<svg width="179" height="44" viewBox="0 0 179 44" fill="none" xmlns="http://www.w3.org/2000/svg">
<mask id="path-1-inside-1_211_2337" fill="white">
<path d="M20.5492 22.0622C20.3816 22.0622 20.2259 22.0161 20.0877 21.942V21.9439C20.0877 22.2076 19.9852 22.4553 19.7992 22.6407C19.6133 22.8267 19.3658 22.9292 19.1024 22.9292C18.9324 22.9292 18.7748 22.882 18.635 22.8059C18.6209 23.0471 18.5245 23.2726 18.3525 23.4448C18.1665 23.6308 17.9191 23.7333 17.6555 23.7333C17.1318 23.7333 16.7066 23.3217 16.676 22.8057C16.5139 22.8933 16.3308 22.9392 16.1418 22.9271C15.6267 22.8933 15.2233 22.4482 15.2233 21.9136V17.482L14.7187 18.3562C14.5265 18.6906 14.1667 18.8982 13.7793 18.8982C13.5906 18.8982 13.4041 18.8487 13.239 18.754C13.0333 18.6348 12.8862 18.4434 12.8251 18.2145C12.7636 17.9854 12.7954 17.7458 12.9143 17.5405C12.9144 17.5405 14.5653 14.6816 14.6661 14.506C14.678 14.4795 14.7121 14.403 14.7412 14.3377C14.7689 14.2754 14.7927 14.2114 14.8155 14.1471C15.3133 12.7416 16.5461 11.8685 18.0328 11.8685C19.9635 11.8685 21.5342 13.5717 21.5342 15.6652L21.5344 21.0767C21.5344 21.3401 21.4321 21.5876 21.2463 21.7737C21.0603 21.9597 20.8128 22.0622 20.5491 22.0622L20.5492 22.0622ZM18.0329 12.392C16.7553 12.392 15.7371 13.1136 15.3089 14.3222C15.2815 14.399 15.253 14.4757 15.2197 14.5505C15.1231 14.7671 15.1231 14.7671 15.0959 14.7983L15.0923 14.7952C14.9575 15.0495 14.557 15.743 13.3676 17.8025C13.3187 17.8869 13.3058 17.985 13.3307 18.0788C13.3559 18.1726 13.4165 18.2517 13.5003 18.3C13.7603 18.4494 14.1166 18.353 14.2648 18.0947L15.2584 16.3744C15.3178 16.2719 15.4378 16.2216 15.553 16.2527C15.6674 16.2834 15.747 16.3872 15.747 16.5056V21.9137C15.747 22.1689 15.9395 22.3891 16.1761 22.4047C16.3126 22.4119 16.4398 22.3662 16.5354 22.2707C16.6224 22.1838 16.6702 22.068 16.6702 21.9442V18.4072C16.6702 18.2626 16.7875 18.1453 16.9321 18.1453C17.0768 18.1453 17.194 18.2624 17.194 18.4072L17.1939 22.7482C17.1939 23.0027 17.401 23.2098 17.6555 23.2098C17.7792 23.2098 17.8953 23.1619 17.9824 23.075C18.0693 22.9879 18.1172 22.8718 18.1172 22.7482V18.4072C18.1172 18.2626 18.2342 18.1453 18.379 18.1453C18.5237 18.1453 18.6409 18.2624 18.6409 18.4072L18.6408 21.9035V21.9442C18.6408 22.1986 18.8479 22.4057 19.1026 22.4057C19.2261 22.4057 19.3418 22.3576 19.4294 22.2704C19.5163 22.1836 19.5642 22.0679 19.5642 21.944V18.4071C19.5642 18.2624 19.6813 18.1452 19.8261 18.1452C19.9708 18.1452 20.088 18.2622 20.088 18.4071L20.0877 21.0769C20.0877 21.3315 20.2948 21.5387 20.5492 21.5387C20.673 21.5387 20.7887 21.4906 20.8757 21.4039C20.9629 21.3166 21.0106 21.2005 21.0106 21.0769L21.0108 15.6654C21.0108 13.8606 19.6749 12.3921 18.0328 12.3921L18.0329 12.392Z"/>
</mask>
<path d="M20.5492 22.0622C20.3816 22.0622 20.2259 22.0161 20.0877 21.942V21.9439C20.0877 22.2076 19.9852 22.4553 19.7992 22.6407C19.6133 22.8267 19.3658 22.9292 19.1024 22.9292C18.9324 22.9292 18.7748 22.882 18.635 22.8059C18.6209 23.0471 18.5245 23.2726 18.3525 23.4448C18.1665 23.6308 17.9191 23.7333 17.6555 23.7333C17.1318 23.7333 16.7066 23.3217 16.676 22.8057C16.5139 22.8933 16.3308 22.9392 16.1418 22.9271C15.6267 22.8933 15.2233 22.4482 15.2233 21.9136V17.482L14.7187 18.3562C14.5265 18.6906 14.1667 18.8982 13.7793 18.8982C13.5906 18.8982 13.4041 18.8487 13.239 18.754C13.0333 18.6348 12.8862 18.4434 12.8251 18.2145C12.7636 17.9854 12.7954 17.7458 12.9143 17.5405C12.9144 17.5405 14.5653 14.6816 14.6661 14.506C14.678 14.4795 14.7121 14.403 14.7412 14.3377C14.7689 14.2754 14.7927 14.2114 14.8155 14.1471C15.3133 12.7416 16.5461 11.8685 18.0328 11.8685C19.9635 11.8685 21.5342 13.5717 21.5342 15.6652L21.5344 21.0767C21.5344 21.3401 21.4321 21.5876 21.2463 21.7737C21.0603 21.9597 20.8128 22.0622 20.5491 22.0622L20.5492 22.0622ZM18.0329 12.392C16.7553 12.392 15.7371 13.1136 15.3089 14.3222C15.2815 14.399 15.253 14.4757 15.2197 14.5505C15.1231 14.7671 15.1231 14.7671 15.0959 14.7983L15.0923 14.7952C14.9575 15.0495 14.557 15.743 13.3676 17.8025C13.3187 17.8869 13.3058 17.985 13.3307 18.0788C13.3559 18.1726 13.4165 18.2517 13.5003 18.3C13.7603 18.4494 14.1166 18.353 14.2648 18.0947L15.2584 16.3744C15.3178 16.2719 15.4378 16.2216 15.553 16.2527C15.6674 16.2834 15.747 16.3872 15.747 16.5056V21.9137C15.747 22.1689 15.9395 22.3891 16.1761 22.4047C16.3126 22.4119 16.4398 22.3662 16.5354 22.2707C16.6224 22.1838 16.6702 22.068 16.6702 21.9442V18.4072C16.6702 18.2626 16.7875 18.1453 16.9321 18.1453C17.0768 18.1453 17.194 18.2624 17.194 18.4072L17.1939 22.7482C17.1939 23.0027 17.401 23.2098 17.6555 23.2098C17.7792 23.2098 17.8953 23.1619 17.9824 23.075C18.0693 22.9879 18.1172 22.8718 18.1172 22.7482V18.4072C18.1172 18.2626 18.2342 18.1453 18.379 18.1453C18.5237 18.1453 18.6409 18.2624 18.6409 18.4072L18.6408 21.9035V21.9442C18.6408 22.1986 18.8479 22.4057 19.1026 22.4057C19.2261 22.4057 19.3418 22.3576 19.4294 22.2704C19.5163 22.1836 19.5642 22.0679 19.5642 21.944V18.4071C19.5642 18.2624 19.6813 18.1452 19.8261 18.1452C19.9708 18.1452 20.088 18.2622 20.088 18.4071L20.0877 21.0769C20.0877 21.3315 20.2948 21.5387 20.5492 21.5387C20.673 21.5387 20.7887 21.4906 20.8757 21.4039C20.9629 21.3166 21.0106 21.2005 21.0106 21.0769L21.0108 15.6654C21.0108 13.8606 19.6749 12.3921 18.0328 12.3921L18.0329 12.392Z" fill="#4CAF4F"/>
<path d="M20.5492 22.0622V21.1341H23.8282L21.0356 22.8526L20.5492 22.0622ZM20.0877 21.942H19.1596V20.3912L20.5263 21.124L20.0877 21.942ZM19.7992 22.6407L19.143 21.9845L19.1438 21.9836L19.7992 22.6407ZM18.635 22.8059L17.7085 22.7517L17.7939 21.2911L19.0789 21.9908L18.635 22.8059ZM18.3525 23.4448L19.0091 24.1007L19.0087 24.1011L18.3525 23.4448ZM16.676 22.8057L16.2347 21.9893L17.5161 21.2967L17.6024 22.7507L16.676 22.8057ZM16.1418 22.9271L16.0823 23.8533L16.0811 23.8532L16.1418 22.9271ZM15.2233 17.482L14.4195 17.018L16.1514 14.0176V17.482H15.2233ZM14.7187 18.3562L13.914 17.8937L13.9149 17.8922L14.7187 18.3562ZM13.239 18.754L12.7776 19.5593L12.7735 19.557L13.239 18.754ZM12.8251 18.2145L13.7214 17.9739L13.7217 17.9749L12.8251 18.2145ZM12.9143 17.5405L12.1111 17.0754L12.3792 16.6124H12.9143V17.5405ZM14.6661 14.506L15.5113 14.8892L15.4931 14.9294L15.4711 14.9677L14.6661 14.506ZM14.7412 14.3377L13.8931 13.9606L13.8932 13.9606L14.7412 14.3377ZM14.8155 14.1471L15.6903 14.457L15.6902 14.4573L14.8155 14.1471ZM21.5342 15.6652L20.6061 15.6653V15.6652H21.5342ZM21.5344 21.0767L22.4625 21.0767V21.0767H21.5344ZM21.2463 21.7737L21.9031 22.4294L21.9025 22.43L21.2463 21.7737ZM20.5491 22.0622V22.9903H17.2701L20.0627 21.2718L20.5491 22.0622ZM18.0329 12.392V11.4639H19.2633L18.9252 12.647L18.0329 12.392ZM15.3089 14.3222L16.1837 14.6321L16.183 14.6341L15.3089 14.3222ZM15.2197 14.5505L16.0676 14.928L16.0674 14.9284L15.2197 14.5505ZM15.0959 14.7983L15.7948 15.4089L15.1877 16.1038L14.4893 15.5007L15.0959 14.7983ZM15.0923 14.7952L14.2722 14.3606L14.8176 13.3316L15.6989 14.0928L15.0923 14.7952ZM13.3676 17.8025L14.1713 18.2667L14.1709 18.2673L13.3676 17.8025ZM13.3307 18.0788L12.4345 18.3201L12.4337 18.3172L13.3307 18.0788ZM13.5003 18.3L13.038 19.1048L13.0363 19.1038L13.5003 18.3ZM14.2648 18.0947L13.4598 17.6327L13.4611 17.6305L14.2648 18.0947ZM15.2584 16.3744L14.4548 15.9102L14.4553 15.9092L15.2584 16.3744ZM15.553 16.2527L15.3128 17.1492L15.3105 17.1486L15.553 16.2527ZM16.1761 22.4047L16.1271 23.3316L16.1152 23.3308L16.1761 22.4047ZM16.5354 22.2707L17.1917 22.927L17.1911 22.9276L16.5354 22.2707ZM17.194 18.4072H18.1221V18.4073L17.194 18.4072ZM17.1939 22.7482H16.2658V22.7482L17.1939 22.7482ZM17.9824 23.075L18.6392 23.7307L18.638 23.7319L17.9824 23.075ZM18.6409 18.4072H19.569V18.4073L18.6409 18.4072ZM18.6408 21.9035H17.7127V21.9035L18.6408 21.9035ZM19.4294 22.2704L20.0851 22.9273L20.0845 22.9279L19.4294 22.2704ZM20.088 18.4071H21.0161V18.4072L20.088 18.4071ZM20.0877 21.0769H19.1596V21.0767L20.0877 21.0769ZM20.8757 21.4039L21.5319 22.0601L21.5313 22.0607L20.8757 21.4039ZM21.0106 21.0769H20.0825V21.0768L21.0106 21.0769ZM21.0108 15.6654H21.9389V15.6654L21.0108 15.6654ZM18.0328 12.3921V13.3202H16.8024L17.1405 12.1371L18.0328 12.3921ZM20.5492 22.9903C20.2074 22.9903 19.9023 22.8957 19.6491 22.7599L20.5263 21.124C20.5383 21.1305 20.5459 21.1329 20.5489 21.1337C20.5515 21.1344 20.5512 21.1341 20.5492 21.1341V22.9903ZM21.0158 21.942V21.9439H19.1596V21.942H21.0158ZM21.0158 21.9439C21.0158 22.453 20.816 22.9374 20.4546 23.2979L19.1438 21.9836C19.1505 21.977 19.1538 21.9713 19.1557 21.9667C19.1576 21.962 19.1596 21.9549 19.1596 21.9439H21.0158ZM20.4555 23.297C20.0953 23.6572 19.6118 23.8573 19.1024 23.8573V22.0011C19.1131 22.0011 19.1201 21.9992 19.1248 21.9972C19.1296 21.9952 19.1357 21.9917 19.143 21.9845L20.4555 23.297ZM19.1024 23.8573C18.7562 23.8573 18.4473 23.7604 18.1912 23.621L19.0789 21.9908C19.091 21.9974 19.0986 21.9999 19.1017 22.0007C19.1043 22.0014 19.1041 22.0011 19.1024 22.0011V23.8573ZM19.5615 22.8601C19.5348 23.3169 19.3495 23.7599 19.0091 24.1007L17.6959 22.7889C17.6993 22.7854 17.7013 22.7824 17.703 22.7786C17.7048 22.7744 17.7077 22.7659 17.7085 22.7517L19.5615 22.8601ZM19.0087 24.1011C18.6485 24.4613 18.1649 24.6614 17.6555 24.6614V22.8052C17.6663 22.8052 17.6734 22.8032 17.6781 22.8013C17.6828 22.7993 17.689 22.7958 17.6962 22.7886L19.0087 24.1011ZM17.6555 24.6614C16.6309 24.6614 15.8087 23.8572 15.7495 22.8608L17.6024 22.7507C17.6034 22.7665 17.6098 22.7803 17.6212 22.7912C17.6268 22.7965 17.6325 22.8 17.6374 22.802C17.6417 22.8037 17.6472 22.8052 17.6555 22.8052V24.6614ZM17.1172 23.6222C16.8175 23.7842 16.462 23.8777 16.0823 23.8533L16.2013 22.0009C16.2013 22.0009 16.2033 22.0011 16.2082 21.9999C16.2134 21.9987 16.2225 21.9958 16.2347 21.9893L17.1172 23.6222ZM16.0811 23.8532C15.0506 23.7856 14.2952 22.9093 14.2952 21.9136H16.1514C16.1514 21.945 16.1628 21.9691 16.1771 21.9849C16.191 22.0002 16.2004 22.0008 16.2026 22.001L16.0811 23.8532ZM14.2952 21.9136V17.482H16.1514V21.9136H14.2952ZM16.0271 17.9459L15.5225 18.8202L13.9149 17.8922L14.4195 17.018L16.0271 17.9459ZM15.5233 18.8187C15.1647 19.4426 14.4972 19.8263 13.7793 19.8263V17.9701C13.8362 17.9701 13.8883 17.9385 13.914 17.8937L15.5233 18.8187ZM13.7793 19.8263C13.4284 19.8263 13.0829 19.7342 12.7776 19.5593L13.7004 17.9488C13.7254 17.9631 13.7528 17.9701 13.7793 17.9701V19.8263ZM12.7735 19.557C12.3568 19.3154 12.0535 18.9223 11.9284 18.454L13.7217 17.9749C13.7209 17.9717 13.7185 17.9661 13.7141 17.9603C13.7096 17.9545 13.7055 17.9517 13.7045 17.9511L12.7735 19.557ZM11.9287 18.4551C11.8031 17.9872 11.8689 17.4938 12.1111 17.0754L13.7174 18.0055C13.7188 18.0032 13.7211 17.9979 13.7221 17.9904C13.7231 17.9829 13.7222 17.9769 13.7214 17.9739L11.9287 18.4551ZM12.9143 16.6124C12.459 16.7317 12.1182 17.0633 12.1157 17.0676C12.1148 17.069 12.1136 17.0711 12.1132 17.0718C12.113 17.0722 12.1126 17.0729 12.1124 17.0731C12.1123 17.0733 12.1122 17.0736 12.1121 17.0736C12.112 17.0739 12.112 17.0738 12.1124 17.0732C12.113 17.0721 12.1141 17.0703 12.1156 17.0676C12.1187 17.0623 12.1232 17.0544 12.1293 17.0439C12.1414 17.023 12.1591 16.9923 12.1818 16.953C12.2271 16.8746 12.292 16.7622 12.3702 16.6269C12.5265 16.3561 12.7361 15.9933 12.9487 15.625C13.3747 14.8871 13.8115 14.1305 13.861 14.0442L15.4711 14.9677C15.4199 15.057 14.9808 15.8176 14.5562 16.5531C14.3435 16.9215 14.134 17.2844 13.9776 17.5552C13.8994 17.6905 13.8345 17.8029 13.7891 17.8815C13.7664 17.9208 13.7486 17.9516 13.7364 17.9727C13.7304 17.9832 13.7256 17.9913 13.7224 17.9969C13.7208 17.9996 13.7195 18.0019 13.7186 18.0036C13.7181 18.0044 13.7176 18.0053 13.717 18.0062C13.7168 18.0066 13.7162 18.0076 13.7155 18.0088C13.7151 18.0096 13.7138 18.0118 13.7129 18.0133C13.7103 18.0176 13.3695 18.3492 12.9143 18.4686V16.6124ZM13.8208 14.1227C13.831 14.1002 13.8634 14.0275 13.8931 13.9606L15.5892 14.7148C15.5609 14.7784 15.525 14.8589 15.5113 14.8892L13.8208 14.1227ZM13.8932 13.9606C13.9061 13.9316 13.9203 13.8945 13.9407 13.837L15.6902 14.4573C15.665 14.5284 15.6317 14.6192 15.5892 14.7148L13.8932 13.9606ZM13.9406 13.8373C14.5692 12.0626 16.1514 10.9404 18.0328 10.9404V12.7966C16.9408 12.7966 16.0574 13.4205 15.6903 14.457L13.9406 13.8373ZM18.0328 10.9404C20.5454 10.9404 22.4623 13.1313 22.4623 15.6652H20.6061C20.6061 14.0121 19.3816 12.7966 18.0328 12.7966V10.9404ZM22.4623 15.6652L22.4625 21.0767L20.6063 21.0768L20.6061 15.6653L22.4623 15.6652ZM22.4625 21.0767C22.4625 21.5857 22.2628 22.069 21.9031 22.4294L20.5894 21.1181C20.5967 21.1107 20.6003 21.1045 20.6023 21.0996C20.6043 21.0947 20.6063 21.0876 20.6063 21.0767H22.4625ZM21.9025 22.43C21.5422 22.7903 21.0586 22.9903 20.5491 22.9903V21.1341C20.5601 21.1341 20.5672 21.1321 20.5719 21.1302C20.5766 21.1282 20.5828 21.1247 20.59 21.1175L21.9025 22.43ZM20.0627 21.2718L20.0628 21.2717L21.0356 22.8526L21.0355 22.8526L20.0627 21.2718ZM18.0329 13.3201C17.1504 13.3201 16.4813 13.7922 16.1837 14.6321L14.4341 14.0123C14.9929 12.4351 16.3602 11.4639 18.0329 11.4639V13.3201ZM16.183 14.6341C16.1537 14.7162 16.1157 14.8199 16.0676 14.928L14.3718 14.173C14.3903 14.1315 14.4093 14.0817 14.4348 14.0103L16.183 14.6341ZM16.0674 14.9284C16.0249 15.0238 15.9893 15.1043 15.962 15.1588C15.9451 15.1926 15.9177 15.2448 15.878 15.3026C15.8378 15.3611 15.798 15.4052 15.7948 15.4089L14.397 14.1876C14.3992 14.1851 14.3985 14.186 14.3974 14.1872C14.3959 14.1889 14.3923 14.1931 14.3876 14.1989C14.3827 14.2048 14.3765 14.2126 14.3696 14.2217C14.3626 14.231 14.3554 14.2408 14.3483 14.2512C14.3337 14.2724 14.3225 14.2909 14.3146 14.3049C14.3071 14.318 14.3026 14.3271 14.3016 14.3291C14.3005 14.3312 14.3012 14.33 14.3043 14.3232C14.3074 14.3167 14.3117 14.3073 14.3179 14.2935C14.3241 14.28 14.3315 14.2635 14.3405 14.2432C14.3496 14.223 14.3599 14.1998 14.3721 14.1726L16.0674 14.9284ZM14.4893 15.5007L14.4857 15.4976L15.6989 14.0928L15.7025 14.0959L14.4893 15.5007ZM15.9123 15.2298C15.7671 15.5039 15.3524 16.2216 14.1713 18.2667L12.5639 17.3383C13.7616 15.2645 14.1479 14.5952 14.2722 14.3606L15.9123 15.2298ZM14.1709 18.2673C14.2451 18.139 14.2658 17.9841 14.2276 17.8404L12.4337 18.3172C12.3457 17.9859 12.3923 17.6349 12.5643 17.3376L14.1709 18.2673ZM14.2269 17.8375C14.1887 17.6957 14.0948 17.5716 13.9643 17.4963L13.0363 19.1038C12.7381 18.9317 12.5232 18.6495 12.4345 18.3201L14.2269 17.8375ZM13.9625 17.4953C13.8569 17.4346 13.7541 17.435 13.6832 17.4541C13.6125 17.4731 13.5219 17.5246 13.4599 17.6327L15.0697 18.5567C14.6653 19.2615 13.7409 19.5085 13.038 19.1048L13.9625 17.4953ZM13.4611 17.6305L14.4548 15.9102L16.0621 16.8386L15.0685 18.5589L13.4611 17.6305ZM14.4553 15.9092C14.7234 15.4464 15.2706 15.2148 15.7954 15.3569L15.3105 17.1486C15.6051 17.2283 15.9122 17.0974 16.0615 16.8396L14.4553 15.9092ZM15.7931 15.3563C16.3138 15.4957 16.6751 15.9676 16.6751 16.5056H14.8189C14.8189 16.8068 15.021 17.0711 15.3128 17.1492L15.7931 15.3563ZM16.6751 16.5056V21.9137H14.8189V16.5056H16.6751ZM16.6751 21.9137C16.6751 21.808 16.6359 21.7118 16.5716 21.6383C16.5073 21.5648 16.394 21.489 16.2371 21.4786L16.1152 23.3308C15.3339 23.2794 14.8189 22.5988 14.8189 21.9137H16.6751ZM16.2252 21.4779C16.1155 21.4721 15.9816 21.5123 15.8798 21.6139L17.1911 22.9276C16.8981 23.2201 16.5097 23.3517 16.1271 23.3315L16.2252 21.4779ZM15.8792 21.6145C15.7911 21.7026 15.7422 21.8232 15.7422 21.9442H17.5983C17.5983 22.3129 17.4536 22.6651 17.1917 22.927L15.8792 21.6145ZM15.7422 21.9442V18.4072H17.5983V21.9442H15.7422ZM15.7422 18.4072C15.7422 17.75 16.2749 17.2173 16.9321 17.2173V19.0734C17.3001 19.0734 17.5983 18.7752 17.5983 18.4072H15.7422ZM16.9321 17.2173C17.589 17.2173 18.1221 17.7495 18.1221 18.4072H16.2659C16.2659 18.7754 16.5646 19.0734 16.9321 19.0734V17.2173ZM18.1221 18.4073L18.122 22.7482L16.2658 22.7482L16.2659 18.4072L18.1221 18.4073ZM18.122 22.7482C18.122 22.4901 17.9136 22.2817 17.6555 22.2817V24.1379C16.8884 24.1379 16.2658 23.5153 16.2658 22.7482H18.122ZM17.6555 22.2817C17.5347 22.2817 17.4146 22.3304 17.3267 22.4181L18.638 23.7319C18.3759 23.9935 18.0236 24.1379 17.6555 24.1379V22.2817ZM17.3255 22.4194C17.2377 22.5073 17.1891 22.6274 17.1891 22.7482H19.0452C19.0452 23.1163 18.9008 23.4686 18.6392 23.7307L17.3255 22.4194ZM17.1891 22.7482V18.4072H19.0452V22.7482H17.1891ZM17.1891 18.4072C17.1891 17.7504 17.7213 17.2172 18.379 17.2172V19.0734C18.7472 19.0734 19.0452 18.7748 19.0452 18.4072H17.1891ZM18.379 17.2172C19.0359 17.2172 19.569 17.7495 19.569 18.4072H17.7129C17.7129 18.7754 18.0115 19.0734 18.379 19.0734V17.2172ZM19.569 18.4073L19.5689 21.9036L17.7127 21.9035L17.7129 18.4072L19.569 18.4073ZM19.5689 21.9035V21.9442H17.7127V21.9035H19.5689ZM19.5689 21.9442C19.5689 21.6855 19.36 21.4776 19.1026 21.4776V23.3338C18.3358 23.3338 17.7127 22.7116 17.7127 21.9442H19.5689ZM19.1026 21.4776C18.9793 21.4776 18.8599 21.5277 18.7744 21.6129L20.0845 22.9279C19.8238 23.1875 19.4729 23.3338 19.1026 23.3338V21.4776ZM18.7738 21.6135C18.685 21.7021 18.6361 21.8232 18.6361 21.944H20.4923C20.4923 22.3125 20.3477 22.6652 20.0851 22.9273L18.7738 21.6135ZM18.6361 21.944V18.4071H20.4923V21.944H18.6361ZM18.6361 18.4071C18.6361 17.7502 19.1684 17.2171 19.8261 17.2171V19.0733C20.1943 19.0733 20.4923 18.7746 20.4923 18.4071H18.6361ZM19.8261 17.2171C20.483 17.2171 21.0161 17.7493 21.0161 18.4071H19.1599C19.1599 18.7752 19.4586 19.0733 19.8261 19.0733V17.2171ZM21.0161 18.4072L21.0158 21.077L19.1596 21.0767L19.1599 18.4069L21.0161 18.4072ZM21.0158 21.0769C21.0158 20.8194 20.8078 20.6106 20.5492 20.6106V22.4668C19.7818 22.4668 19.1596 21.8437 19.1596 21.0769H21.0158ZM20.5492 20.6106C20.4274 20.6106 20.3073 20.6599 20.22 20.747L21.5313 22.0607C21.2702 22.3214 20.9185 22.4668 20.5492 22.4668V20.6106ZM20.2194 20.7476C20.131 20.836 20.0825 20.9566 20.0825 21.0769H21.9387C21.9387 21.4444 21.7948 21.7973 21.5319 22.0601L20.2194 20.7476ZM20.0825 21.0768L20.0827 15.6653L21.9389 15.6654L21.9387 21.0769L20.0825 21.0768ZM20.0827 15.6654C20.0827 14.2886 19.0817 13.3202 18.0328 13.3202V11.464C20.2682 11.464 21.9389 13.4327 21.9389 15.6654H20.0827ZM17.1405 12.1371L17.1405 12.137L18.9252 12.647L18.9252 12.647L17.1405 12.1371Z" fill="#4CAF4F" mask="url(#path-1-inside-1_211_2337)"/>
<path d="M12.0666 27.037C11.9423 27.1117 11.7816 27.0714 11.7073 26.9473C11.6328 26.8233 11.6732 26.6624 11.797 26.588M12.0666 27.037L14.3292 23.9924C14.5478 23.8611 14.8361 23.9129 14.9709 24.1079M12.0666 27.037L15.0995 25.2175H15.0996L15.0999 25.2173M12.0666 27.037L16.264 25.5956C16.3699 25.532 16.4447 25.4313 16.4745 25.3118M11.797 26.588L14.83 24.7685C14.936 24.7048 15.0109 24.604 15.0407 24.4847M11.797 26.588L11.8277 26.6391L11.9317 26.8125L11.9319 26.8129L11.9788 26.891L12.0357 26.9859L12.0358 26.9858L12.0359 26.9858L12.0361 26.9856M11.797 26.588L11.8277 26.6391M15.0407 24.4847C15.0735 24.3539 15.0486 24.2201 14.9709 24.1079M15.0407 24.4847L15.1156 24.5035L15.1085 24.3496C15.1035 24.2437 15.0725 24.1497 15.0201 24.0742L15.02 24.0739L14.9709 24.1079M15.0407 24.4847L15.1156 24.5035L15.123 24.6623L14.9711 24.7534H14.9709L14.8607 24.8195L14.8607 24.8196L14.8607 24.8196L11.8279 26.639M14.9709 24.1079L15.0199 24.0739L12.7806 28.2264C12.8759 28.1691 12.9074 28.0452 12.8496 27.9491C12.7924 27.8538 12.6681 27.8224 12.5724 27.8798L15.6053 26.0604C15.675 26.0185 15.748 25.9869 15.8226 25.9652L16.293 25.644L16.293 25.644L16.3189 25.6263C16.4293 25.5509 16.5023 25.4465 16.5323 25.3263L16.5323 25.3262L16.4745 25.3118M11.8279 26.639C11.9233 26.582 12.0475 26.6129 12.1051 26.7084C12.1052 26.7086 12.1054 26.7088 12.1055 26.709C12.1627 26.805 12.1311 26.9285 12.0361 26.9856M11.8279 26.639C11.8278 26.6391 11.8278 26.6391 11.8277 26.6391M11.8279 26.639L11.8277 26.6391M12.0361 26.9856L15.0687 25.1664L15.0688 25.1664L15.069 25.1663C15.069 25.1662 15.0691 25.1662 15.0692 25.1661L15.0995 25.2165L15.0996 25.2168L15.0999 25.2173M12.0361 26.9856L11.9321 26.8127L11.9319 26.8124L11.8967 26.7539L11.8277 26.6391M15.0999 25.2173V25.1468C15.1585 25.1085 15.212 25.0641 15.2598 25.0145L15.7591 24.7539L15.7591 24.7539L15.7867 24.7395C15.867 24.6976 15.9479 24.678 16.0248 24.678C16.0663 24.678 16.1092 24.6831 16.1529 24.694C16.1529 24.694 16.1529 24.694 16.153 24.694C16.1531 24.694 16.1533 24.6941 16.1534 24.6941L16.2511 24.3017M15.0999 25.2173L15.789 24.8039C15.8947 24.7406 16.0183 24.722 16.1385 24.7519C16.2581 24.7817 16.3589 24.8565 16.4224 24.9623C16.4858 25.0682 16.5044 25.1924 16.4745 25.3118M16.2511 24.3017C16.2511 24.3017 16.2511 24.3017 16.2511 24.3017M16.2511 24.3017C16.4902 24.3615 16.6936 24.5124 16.8202 24.7234L16.8713 24.6928M16.2511 24.3017L16.2655 24.2438M16.2511 24.3017L16.153 24.694C16.2888 24.7279 16.4013 24.8113 16.4733 24.9315C16.4734 24.9315 16.4734 24.9316 16.4735 24.9316C16.4735 24.9317 16.4735 24.9317 16.4735 24.9317C16.5457 25.0524 16.5662 25.1908 16.5323 25.326L16.5323 25.3262L16.4745 25.3118M16.2511 24.3017C16.251 24.3017 16.251 24.3017 16.2509 24.3017L16.2503 24.3015C16.1786 24.2837 16.106 24.2746 16.0337 24.274M16.2511 24.3017L16.2655 24.2438M15.8134 26.407L16.075 26.2501L16.3448 26.4092C16.4256 26.4569 16.4866 26.5166 16.5279 26.5855L16.5281 26.5858C16.5281 26.5858 16.5282 26.5859 16.5282 26.586L16.4773 26.6166M15.8134 26.407L16.5873 26.9806C16.621 26.845 16.6004 26.7066 16.5282 26.586L16.4773 26.6166M15.8134 26.407L15.8441 26.4582M15.8134 26.407L15.8134 26.407L15.8441 26.4582M16.4773 26.6166C16.3463 26.3983 16.0621 26.3273 15.8441 26.4582M16.4773 26.6166C16.5409 26.7224 16.5595 26.8467 16.5296 26.9663L15.8441 26.4582M16.9195 26.3363C16.9217 26.3399 16.9239 26.3435 16.9261 26.3472L16.9195 26.3363ZM16.9195 26.3363C16.9038 26.3486 16.8879 26.3605 16.8717 26.3721C16.8728 26.3739 16.8739 26.3756 16.875 26.3774L16.9195 26.3363ZM16.8473 25.6286C16.8807 25.5645 16.9068 25.496 16.9247 25.4243L16.8473 25.6286ZM16.8473 25.6286C16.8639 25.6389 16.8804 25.6496 16.8968 25.6607C16.934 25.5914 16.9629 25.5171 16.9825 25.4387C17.0463 25.1836 17.0068 24.9188 16.8713 24.6928M16.8473 25.6286L16.9247 25.4242C16.9845 25.1851 16.9468 24.9348 16.8205 24.7238L16.8203 24.7235C16.8203 24.7235 16.8203 24.7235 16.8202 24.7234L16.8713 24.6928M16.8713 24.6928C16.736 24.4672 16.5209 24.3076 16.2655 24.2438M16.2655 24.2438L16.0285 24.214M16.0285 24.214C16.0306 24.234 16.0323 24.254 16.0337 24.274M16.0285 24.214C16.0272 24.214 16.026 24.214 16.0248 24.214C15.8678 24.214 15.7137 24.2541 15.572 24.3281M16.0285 24.214L15.572 24.3281M16.0337 24.274C16.0344 24.2848 16.035 24.2957 16.0355 24.3066L16.0248 24.3071L15.7367 24.3204M16.0337 24.274C16.0307 24.2739 16.0277 24.2739 16.0248 24.2739C15.9269 24.274 15.8297 24.2897 15.7367 24.3204M15.7367 24.3204L15.572 24.3281M15.7367 24.3204C15.6894 24.3361 15.6432 24.3556 15.5985 24.3789C15.5823 24.3874 15.5663 24.3964 15.5505 24.4059L15.5503 24.406L15.5173 24.4257M15.572 24.3281L15.3075 24.5516L15.3076 24.5516L15.4909 24.5974C15.4909 24.5975 15.4909 24.5975 15.4909 24.5976C15.5052 24.5405 15.5139 24.483 15.5173 24.4257M15.572 24.3281L15.5012 24.1924M15.572 24.3281C15.5647 24.17 15.523 24.0143 15.443 23.8753C15.4248 23.8834 15.4068 23.8919 15.3889 23.9007M15.5173 24.4257C15.5192 24.3939 15.5194 24.3622 15.518 24.3306C15.5159 24.284 15.5102 24.2379 15.5012 24.1924M15.5173 24.4257L15.5012 24.1924M15.5012 24.1924L15.3573 23.9167C15.3678 23.9112 15.3783 23.9059 15.3889 23.9007M15.5012 24.1924L15.3524 23.8437C15.3653 23.8623 15.3775 23.8813 15.3889 23.9007M15.5012 24.1924C15.4808 24.0903 15.443 23.9919 15.3889 23.9007M16.5806 26.0095L16.6599 25.875C16.6255 25.9072 16.5886 25.9368 16.5493 25.9637C16.5342 25.974 16.5187 25.9839 16.5029 25.9934L16.5027 25.9936L16.4691 26.0137L16.5806 26.0095ZM9.16976 23.8499L9.117 23.8221C9.1073 23.8396 9.08315 23.8831 9.04749 23.9474C9.03865 23.9633 9.02912 23.9804 9.01892 23.9988C9.0371 24.0079 9.05544 24.0158 9.07381 24.0228C9.10519 23.9662 9.13716 23.9086 9.16976 23.8499ZM13.3167 29.1205C13.3167 29.1206 13.3166 29.1206 13.3166 29.1206L13.3167 29.1205Z" fill="#4CAF4F" stroke="#4CAF4F" stroke-width="0.928093"/>
<path d="M25.0185 24.6861L25.0184 24.6861L25.0185 24.6861ZM25.0185 24.6861C24.9212 24.5119 24.9252 24.2974 25.0282 24.1257L25.0185 24.6861ZM19.2769 24.2738C19.2044 24.2744 19.1315 24.2836 19.0595 24.3016L19.2769 24.2738ZM19.2769 24.2738C19.2782 24.2539 19.28 24.2339 19.2821 24.2139L19.2769 24.2738ZM24.6008 25.0115L24.5614 24.9405L24.6008 25.0115ZM23.4827 26.639C23.4826 26.6389 23.4825 26.6389 23.4824 26.6388L23.4825 26.6389L23.4827 26.639ZM21.9938 29.121C21.9937 29.1209 21.9936 29.1208 21.9935 29.1208L21.9938 29.121ZM21.9933 29.1207L21.9935 29.1208L21.9933 29.1207Z" fill="#4CAF4F" stroke="#4CAF4F" stroke-width="0.928093"/>
<g clip-path="url(#clip0_211_2337)">
<path d="M46.325 18.3178V15.9577L52.2426 6.63494H54.2774V9.90172H53.0731L49.3426 15.8055V15.9162H57.7518V18.3178H46.325ZM53.1285 20.8094V17.598L53.1838 16.5529V6.63494H55.9938V20.8094H53.1285ZM65.1886 21.0032C64.4595 20.9986 63.7559 20.8764 63.0776 20.6364C62.404 20.3965 61.7995 20.0066 61.2643 19.4667C60.729 18.9269 60.3045 18.2117 59.9908 17.3212C59.6816 16.4307 59.5271 15.3371 59.5271 14.0406C59.5317 12.8501 59.6678 11.7866 59.9354 10.8499C60.2076 9.90864 60.5952 9.11041 61.0982 8.4552C61.6057 7.8 62.2125 7.30168 62.9184 6.96024C63.6244 6.61418 64.4157 6.44115 65.2924 6.44115C66.2383 6.44115 67.0734 6.62571 67.7978 6.99484C68.5222 7.35936 69.1036 7.85537 69.542 8.48289C69.9849 9.11041 70.2525 9.81406 70.3448 10.5938H67.3895C67.2741 10.1001 67.0319 9.71255 66.6628 9.43109C66.2936 9.14963 65.8368 9.0089 65.2924 9.0089C64.3696 9.0089 63.6682 9.41032 63.1883 10.2132C62.7131 11.016 62.4709 12.1073 62.4616 13.4869H62.5585C62.7708 13.067 63.0568 12.7094 63.4167 12.4141C63.7813 12.1142 64.1942 11.8858 64.6556 11.7289C65.1217 11.5674 65.6131 11.4867 66.1298 11.4867C66.9696 11.4867 67.7171 11.6851 68.3723 12.0819C69.0275 12.4741 69.5443 13.0139 69.9226 13.7014C70.301 14.3889 70.4902 15.1756 70.4902 16.0615C70.4902 17.0213 70.2664 17.8749 69.8188 18.6224C69.3759 19.3699 68.7553 19.9558 67.957 20.3803C67.1634 20.8002 66.2406 21.0079 65.1886 21.0032ZM65.1747 18.6501C65.6361 18.6501 66.0491 18.5393 66.4136 18.3178C66.7781 18.0964 67.0642 17.7964 67.2718 17.4181C67.4795 17.0397 67.5833 16.6152 67.5833 16.1446C67.5833 15.674 67.4795 15.2518 67.2718 14.878C67.0688 14.5043 66.7873 14.2067 66.4274 13.9852C66.0675 13.7637 65.6569 13.653 65.1955 13.653C64.8494 13.653 64.5287 13.7176 64.2334 13.8468C63.9428 13.976 63.6867 14.1559 63.4652 14.3866C63.2483 14.6173 63.0776 14.8849 62.953 15.1895C62.8285 15.4894 62.7662 15.8101 62.7662 16.1515C62.7662 16.6083 62.87 17.0259 63.0776 17.4042C63.2899 17.7826 63.5759 18.0848 63.9358 18.3109C64.3003 18.537 64.7133 18.6501 65.1747 18.6501ZM75.2571 18.8715L75.181 19.6329C75.121 20.2419 75.0056 20.8487 74.8349 21.4531C74.6688 22.0622 74.4935 22.6136 74.3089 23.1073C74.1289 23.601 73.9836 23.9886 73.8729 24.27H71.9626C72.0318 23.9978 72.1264 23.6171 72.2464 23.128C72.3664 22.6436 72.4794 22.0991 72.5855 21.4946C72.6917 20.8902 72.7586 20.2742 72.7862 19.6467L72.8209 18.8715H75.2571ZM82.7077 21.0032C81.6742 21.0032 80.7536 20.8256 79.9462 20.4703C79.1433 20.1104 78.5089 19.6167 78.0429 18.9892C77.5814 18.3571 77.3438 17.628 77.33 16.8021H80.3476C80.3661 17.1482 80.4791 17.4527 80.6867 17.7157C80.899 17.9741 81.1804 18.1748 81.5311 18.3178C81.8818 18.4609 82.2763 18.5324 82.7146 18.5324C83.1714 18.5324 83.5752 18.4516 83.9258 18.2902C84.2765 18.1287 84.551 17.9049 84.7494 17.6188C84.9479 17.3327 85.0471 17.0028 85.0471 16.6291C85.0471 16.2507 84.9409 15.9162 84.7287 15.6255C84.521 15.3302 84.2211 15.0995 83.8289 14.9334C83.4414 14.7673 82.9799 14.6842 82.4447 14.6842H81.1228V12.4833H82.4447C82.8969 12.4833 83.296 12.4049 83.6421 12.248C83.9927 12.0911 84.265 11.8742 84.4588 11.5974C84.6526 11.3159 84.7494 10.9883 84.7494 10.6146C84.7494 10.2593 84.6641 9.94786 84.4934 9.68025C84.3273 9.40802 84.0919 9.19577 83.7874 9.0435C83.4875 8.89124 83.1368 8.8151 82.7354 8.8151C82.3294 8.8151 81.9579 8.88893 81.6211 9.03658C81.2843 9.17962 81.0143 9.38494 80.8113 9.65256C80.6083 9.92018 80.4999 10.2339 80.486 10.5938H77.6137C77.6276 9.77714 77.8606 9.05734 78.3128 8.43444C78.765 7.81154 79.374 7.32475 80.14 6.97408C80.9105 6.61879 81.7803 6.44115 82.7492 6.44115C83.7274 6.44115 84.5833 6.61879 85.317 6.97408C86.0506 7.32936 86.6205 7.80923 87.0265 8.41368C87.4372 9.01351 87.6402 9.68717 87.6356 10.4347C87.6402 11.2283 87.3933 11.8904 86.895 12.421C86.4013 12.9516 85.7576 13.2885 84.964 13.4315V13.5422C86.0068 13.6761 86.8004 14.0383 87.3449 14.6289C87.894 15.2149 88.1662 15.9485 88.1616 16.8298C88.1662 17.6373 87.9332 18.3547 87.4625 18.9823C86.9965 19.6098 86.3528 20.1035 85.5315 20.4634C84.7102 20.8233 83.769 21.0032 82.7077 21.0032ZM90.3158 20.8094V18.6501L95.3613 13.9783C95.7904 13.563 96.1503 13.1893 96.441 12.8571C96.7363 12.5248 96.9601 12.1995 97.1123 11.8812C97.2646 11.5582 97.3407 11.2098 97.3407 10.8361C97.3407 10.4208 97.2462 10.0632 97.057 9.7633C96.8678 9.45877 96.6094 9.22576 96.2818 9.06426C95.9542 8.89816 95.5828 8.8151 95.1675 8.8151C94.7338 8.8151 94.3554 8.90277 94.0324 9.07811C93.7094 9.25344 93.4603 9.50491 93.285 9.83251C93.1096 10.1601 93.0219 10.55 93.0219 11.0022H90.1774C90.1774 10.0748 90.3873 9.26959 90.8072 8.58671C91.2271 7.90382 91.8154 7.37551 92.5721 7.00176C93.3288 6.62802 94.2008 6.44115 95.1883 6.44115C96.2034 6.44115 97.087 6.6211 97.8391 6.981C98.5958 7.33629 99.1841 7.82999 99.604 8.46213C100.024 9.09426 100.234 9.81867 100.234 10.6354C100.234 11.1706 100.128 11.6989 99.9154 12.2203C99.7078 12.7417 99.3363 13.3208 98.8011 13.9575C98.2659 14.5896 97.5115 15.3487 96.5379 16.2346L94.4685 18.2625V18.3594H100.421V20.8094H90.3158ZM107.88 21.0032C106.814 21.0032 105.866 20.8302 105.035 20.4842C104.209 20.1335 103.561 19.6559 103.09 19.0515C102.62 18.447 102.385 17.7618 102.385 16.9959C102.385 16.4053 102.518 15.8631 102.786 15.3694C103.058 14.8711 103.427 14.4581 103.893 14.1305C104.359 13.7983 104.881 13.5861 105.458 13.4938V13.3969C104.701 13.2446 104.087 12.8778 103.616 12.2964C103.146 11.7104 102.911 11.0299 102.911 10.2547C102.911 9.52106 103.125 8.86817 103.554 8.29602C103.983 7.71926 104.572 7.26707 105.319 6.93947C106.071 6.60726 106.925 6.44115 107.88 6.44115C108.835 6.44115 109.686 6.60726 110.434 6.93947C111.186 7.27169 111.777 7.72618 112.206 8.30294C112.635 8.87509 112.852 9.52567 112.856 10.2547C112.852 11.0345 112.612 11.7151 112.136 12.2964C111.661 12.8778 111.052 13.2446 110.309 13.3969V13.4938C110.877 13.5861 111.391 13.7983 111.853 14.1305C112.319 14.4581 112.688 14.8711 112.96 15.3694C113.237 15.8631 113.378 16.4053 113.382 16.9959C113.378 17.7618 113.14 18.447 112.669 19.0515C112.199 19.6559 111.548 20.1335 110.718 20.4842C109.892 20.8302 108.946 21.0032 107.88 21.0032ZM107.88 18.8023C108.355 18.8023 108.77 18.717 109.126 18.5462C109.481 18.3709 109.758 18.131 109.956 17.8264C110.159 17.5173 110.261 17.162 110.261 16.7606C110.261 16.3499 110.157 15.9877 109.949 15.674C109.742 15.3556 109.46 15.1064 109.105 14.9265C108.75 14.7419 108.341 14.6496 107.88 14.6496C107.423 14.6496 107.015 14.7419 106.655 14.9265C106.295 15.1064 106.011 15.3556 105.804 15.674C105.601 15.9877 105.499 16.3499 105.499 16.7606C105.499 17.162 105.598 17.5173 105.797 17.8264C105.995 18.131 106.274 18.3709 106.634 18.5462C106.994 18.717 107.409 18.8023 107.88 18.8023ZM107.88 12.4695C108.277 12.4695 108.63 12.3887 108.939 12.2272C109.248 12.0657 109.49 11.842 109.666 11.5559C109.841 11.2698 109.929 10.9399 109.929 10.5662C109.929 10.197 109.841 9.87404 109.666 9.59719C109.49 9.31573 109.25 9.09656 108.946 8.93968C108.641 8.77819 108.286 8.69744 107.88 8.69744C107.478 8.69744 107.123 8.77819 106.814 8.93968C106.505 9.09656 106.263 9.31573 106.087 9.59719C105.917 9.87404 105.831 10.197 105.831 10.5662C105.831 10.9399 105.919 11.2698 106.094 11.5559C106.27 11.842 106.512 12.0657 106.821 12.2272C107.13 12.3887 107.483 12.4695 107.88 12.4695Z" fill="#4D4D4D"/>
<path d="M52.8892 33.2409H51.9084C51.8504 32.9588 51.7489 32.7109 51.6038 32.4974C51.4615 32.2838 51.2874 32.1045 51.0818 31.9595C50.8788 31.8118 50.6533 31.7011 50.4055 31.6273C50.1576 31.5535 49.8993 31.5165 49.6303 31.5165C49.1399 31.5165 48.6956 31.6405 48.2975 31.8883C47.902 32.1361 47.5869 32.5013 47.3523 32.9838C47.1203 33.4663 47.0042 34.0582 47.0042 34.7596C47.0042 35.4609 47.1203 36.0529 47.3523 36.5354C47.5869 37.0179 47.902 37.383 48.2975 37.6309C48.6956 37.8787 49.1399 38.0026 49.6303 38.0026C49.8993 38.0026 50.1576 37.9657 50.4055 37.8919C50.6533 37.8181 50.8788 37.7087 51.0818 37.5636C51.2874 37.416 51.4615 37.2354 51.6038 37.0218C51.7489 36.8056 51.8504 36.5578 51.9084 36.2783H52.8892C52.8154 36.6922 52.6809 37.0627 52.4858 37.3896C52.2907 37.7166 52.0481 37.9947 51.7581 38.2241C51.4681 38.4509 51.1424 38.6236 50.7812 38.7422C50.4226 38.8609 50.039 38.9202 49.6303 38.9202C48.9395 38.9202 48.3252 38.7514 47.7873 38.414C47.2494 38.0765 46.8263 37.5966 46.5178 36.9744C46.2093 36.3521 46.0551 35.6139 46.0551 34.7596C46.0551 33.9053 46.2093 33.1671 46.5178 32.5448C46.8263 31.9226 47.2494 31.4427 47.7873 31.1052C48.3252 30.7677 48.9395 30.599 49.6303 30.599C50.039 30.599 50.4226 30.6583 50.7812 30.777C51.1424 30.8956 51.4681 31.0696 51.7581 31.299C52.0481 31.5258 52.2907 31.8026 52.4858 32.1296C52.6809 32.4539 52.8154 32.8243 52.8892 33.2409ZM55.2809 30.7097V38.8094H54.3476V30.7097H55.2809ZM60.8188 36.3257V32.7347H61.7522V38.8094H60.8188V37.7812H60.7556C60.6132 38.0896 60.3917 38.352 60.0911 38.5682C59.7906 38.7818 59.4109 38.8885 58.9521 38.8885C58.5724 38.8885 58.235 38.8055 57.9397 38.6394C57.6443 38.4706 57.4123 38.2175 57.2436 37.88C57.0748 37.5399 56.9905 37.1115 56.9905 36.5947V32.7347H57.9238V36.5314C57.9238 36.9744 58.0478 37.3277 58.2956 37.5913C58.5461 37.855 58.8651 37.9868 59.2527 37.9868C59.4847 37.9868 59.7207 37.9275 59.9606 37.8088C60.2032 37.6902 60.4062 37.5083 60.5697 37.2631C60.7358 37.0179 60.8188 36.7054 60.8188 36.3257ZM63.5883 38.8094V30.7097H64.5217V33.6997H64.6008C64.6693 33.5942 64.7642 33.4597 64.8855 33.2963C65.0094 33.1302 65.1861 32.9825 65.4155 32.8533C65.6475 32.7215 65.9613 32.6556 66.3568 32.6556C66.8683 32.6556 67.3191 32.7834 67.7093 33.0392C68.0996 33.2949 68.4041 33.6575 68.6229 34.1268C68.8418 34.5961 68.9512 35.1498 68.9512 35.7879C68.9512 36.4312 68.8418 36.9889 68.6229 37.4608C68.4041 37.9301 68.1009 38.294 67.7133 38.5524C67.3257 38.8081 66.8788 38.936 66.3726 38.936C65.9824 38.936 65.6699 38.8714 65.4353 38.7422C65.2006 38.6104 65.02 38.4614 64.8934 38.2953C64.7669 38.1266 64.6693 37.9868 64.6008 37.8761H64.49V38.8094H63.5883ZM64.5058 35.7721C64.5058 36.2308 64.5731 36.6355 64.7075 36.9862C64.842 37.3343 65.0384 37.6071 65.2968 37.8049C65.5552 38 65.8716 38.0976 66.246 38.0976C66.6362 38.0976 66.9619 37.9947 67.2229 37.7891C67.4865 37.5808 67.6843 37.3013 67.8161 36.9506C67.9506 36.5973 68.0178 36.2045 68.0178 35.7721C68.0178 35.3449 67.9519 34.96 67.8201 34.6172C67.6909 34.2718 67.4945 33.9989 67.2308 33.7985C66.9698 33.5955 66.6415 33.494 66.246 33.494C65.8663 33.494 65.5473 33.5902 65.2889 33.7827C65.0305 33.9726 64.8354 34.2389 64.7036 34.5816C64.5718 34.9217 64.5058 35.3186 64.5058 35.7721ZM74.6819 34.0952L73.8435 34.3325C73.7907 34.1927 73.7129 34.0569 73.6101 33.9251C73.5099 33.7906 73.3728 33.6799 73.1988 33.5929C73.0248 33.5059 72.802 33.4624 72.5304 33.4624C72.1587 33.4624 71.8488 33.5481 71.601 33.7194C71.3558 33.8882 71.2332 34.1031 71.2332 34.3641C71.2332 34.5961 71.3176 34.7794 71.4863 34.9138C71.6551 35.0483 71.9187 35.1604 72.2773 35.25L73.179 35.4715C73.7222 35.6033 74.1269 35.805 74.3932 36.0766C74.6595 36.3455 74.7926 36.6922 74.7926 37.1167C74.7926 37.4648 74.6924 37.7759 74.4921 38.0501C74.2943 38.3243 74.0175 38.5405 73.6615 38.6987C73.3056 38.8569 72.8916 38.936 72.4197 38.936C71.8001 38.936 71.2872 38.8015 70.8812 38.5326C70.4752 38.2637 70.2181 37.8708 70.11 37.354L70.9959 37.1326C71.0803 37.4595 71.2398 37.7047 71.4744 37.8682C71.7117 38.0316 72.0215 38.1134 72.4039 38.1134C72.8389 38.1134 73.1843 38.0211 73.4401 37.8365C73.6984 37.6493 73.8276 37.4252 73.8276 37.1642C73.8276 36.9533 73.7538 36.7766 73.6062 36.6342C73.4585 36.4892 73.2318 36.3811 72.9259 36.3099L71.9134 36.0726C71.3571 35.9408 70.9484 35.7365 70.6874 35.4596C70.429 35.1801 70.2998 34.8308 70.2998 34.4116C70.2998 34.0688 70.3961 33.7656 70.5885 33.5019C70.7836 33.2383 71.0486 33.0313 71.3835 32.881C71.721 32.7307 72.1033 32.6556 72.5304 32.6556C73.1316 32.6556 73.6035 32.7874 73.9463 33.0511C74.2917 33.3147 74.5369 33.6628 74.6819 34.0952Z" fill="#717171"/>
</g>
<defs>
<clipPath id="clip0_211_2337">
<rect width="132.949" height="43" fill="white" transform="translate(45.3906 0.809448)"/>
</clipPath>
</defs>
</svg>
