<svg width="178" height="44" viewBox="0 0 178 44" fill="none" xmlns="http://www.w3.org/2000/svg">
<g clip-path="url(#clip0_211_2331)">
<path d="M32.4496 31.9085L32.4496 31.9085C32.5809 31.8175 32.6927 31.7013 32.7787 31.5667L33.072 31.754L32.7787 31.5667C32.8646 31.4321 32.9229 31.2818 32.9503 31.1244C32.9776 30.967 32.9734 30.8058 32.9378 30.6501L33.2771 30.5727L32.9378 30.6501C32.9023 30.4944 32.8362 30.3473 32.7433 30.2174L32.7417 30.2152C31.4347 28.3573 29.6537 26.8834 27.5841 25.9468L27.0794 25.7184L27.5042 25.3628C28.764 24.3084 29.6682 22.8912 30.0937 21.3044C30.5192 19.7176 30.4453 18.0382 29.8821 16.4949C29.3189 14.9516 28.2938 13.6193 26.9463 12.6795C25.5987 11.7397 23.9943 11.2381 22.3514 11.2428L22.3499 11.2428C21.6187 11.2416 20.891 11.3426 20.1879 11.5428L20.1816 11.5446L20.1816 11.5445C20.0254 11.5858 19.879 11.6578 19.7509 11.7563C19.6228 11.8547 19.5156 11.9777 19.4355 12.118C19.3553 12.2583 19.3039 12.4131 19.2842 12.5735C19.2645 12.7338 19.2769 12.8965 19.3206 13.052C19.3644 13.2076 19.4387 13.3528 19.5391 13.4794L19.2665 13.6957L19.5391 13.4794C19.6396 13.6059 19.7642 13.7112 19.9057 13.7891L19.7378 14.094L19.9057 13.7891C20.0472 13.8671 20.2028 13.9161 20.3635 13.9333C20.5241 13.9505 20.6866 13.9356 20.8414 13.8894L20.8454 13.8882L20.8454 13.8882C21.3351 13.7485 21.8419 13.6781 22.3511 13.6791M32.4496 31.9085L22.3504 14.0271M32.4496 31.9085L32.4455 31.9114C32.2424 32.0566 31.9987 32.1343 31.749 32.1336C31.5537 32.1324 31.3614 32.0848 31.1881 31.9946C31.0149 31.9045 30.8657 31.7745 30.7526 31.6153M32.4496 31.9085L30.4683 31.816M22.3511 13.6791L22.3504 14.0271M22.3511 13.6791C22.3509 13.6791 22.3507 13.6791 22.3504 13.6791V14.0271M22.3511 13.6791C23.8277 13.6793 25.2438 14.2659 26.288 15.3101C27.3323 16.3544 27.919 17.7708 27.919 19.2476C27.919 20.7245 27.3323 22.1409 26.288 23.1852C25.2437 24.2295 23.8273 24.8162 22.3504 24.8162C22.0274 24.8162 21.7175 24.9445 21.4891 25.173C21.2607 25.4014 21.1323 25.7113 21.1323 26.0343C21.1323 26.3574 21.2607 26.6672 21.4891 26.8957C21.7175 27.1241 22.0274 27.2524 22.3504 27.2524H22.3508C23.9982 27.2543 25.6212 27.6515 27.0832 28.4107C28.5452 29.1699 29.8035 30.2688 30.7526 31.6153M22.3504 14.0271C23.735 14.0271 25.0629 14.5771 26.0419 15.5562C27.0209 16.5352 27.571 17.8631 27.571 19.2476C27.571 20.6322 27.0209 21.9601 26.0419 22.9391C25.0629 23.9181 23.735 24.4682 22.3504 24.4682C21.9351 24.4682 21.5367 24.6332 21.243 24.9269C20.9493 25.2206 20.7843 25.619 20.7843 26.0343C20.7843 26.4497 20.9493 26.848 21.243 27.1418C21.5367 27.4355 21.9351 27.6005 22.3504 27.6005C23.9422 27.6022 25.5102 27.986 26.9228 28.7196C28.3354 29.4531 29.5513 30.515 30.4683 31.816M30.7526 31.6153C30.7525 31.6151 30.7524 31.6149 30.7522 31.6147L30.4683 31.816M30.7526 31.6153C30.7527 31.6154 30.7528 31.6154 30.7528 31.6155L30.4683 31.816M16.8667 25.3634L16.444 25.719L16.9473 25.9468C19.0169 26.8834 20.7978 28.3573 22.1049 30.2152L22.1099 30.2223L22.1152 30.2291C22.2168 30.3592 22.2908 30.5086 22.3329 30.6681C22.375 30.8277 22.3842 30.9942 22.3599 31.1574C22.3357 31.3206 22.2786 31.4772 22.192 31.6177C22.1054 31.7582 21.9912 31.8796 21.8563 31.9747C21.7214 32.0697 21.5685 32.1363 21.4071 32.1704C21.2456 32.2045 21.0789 32.2055 20.9171 32.1733C20.7552 32.1411 20.6016 32.0763 20.4656 31.9829C20.3295 31.8895 20.2139 31.7694 20.1256 31.63L20.1212 31.6229L20.1164 31.6161C19.1692 30.267 17.9112 29.1659 16.4486 28.4057C14.986 27.6455 13.3619 27.2487 11.7136 27.2487C10.0653 27.2487 8.4412 27.6455 6.97864 28.4057C5.51607 29.1659 4.25803 30.267 3.31087 31.6161L3.3101 31.6172C3.19875 31.7771 3.0503 31.9076 2.87746 31.9975C2.70461 32.0875 2.51253 32.1342 2.31768 32.1336L2.31555 32.1336C2.06566 32.1344 1.82183 32.0567 1.61853 31.9114L1.61686 31.9102C1.35334 31.7242 1.17436 31.4413 1.11918 31.1235C1.06401 30.8058 1.13706 30.4791 1.32231 30.2152C2.62941 28.3573 4.41036 26.8834 6.47998 25.9468L6.98329 25.719L6.56053 25.3634C5.30411 24.3064 4.40309 22.8887 3.97963 21.3023C3.55618 19.716 3.63077 18.0378 4.19329 16.4953C4.75582 14.9528 5.77907 13.6206 7.12432 12.6793C8.46957 11.7379 10.0717 11.233 11.7136 11.233C13.3555 11.233 14.9577 11.7379 16.3029 12.6793C17.6482 13.6206 18.6714 14.9528 19.234 16.4953C19.7965 18.0378 19.8711 19.716 19.4476 21.3023C19.0242 22.8887 18.1231 24.3064 16.8667 25.3634ZM7.08354 16.1539C6.47166 17.0697 6.14507 18.1463 6.14507 19.2476C6.14507 20.7245 6.73175 22.1409 7.77606 23.1852C8.82037 24.2295 10.2368 24.8162 11.7136 24.8162C12.815 24.8162 13.8916 24.4896 14.8073 23.8777C15.7231 23.2658 16.4368 22.3962 16.8583 21.3786C17.2798 20.3611 17.39 19.2415 17.1752 18.1613C16.9603 17.0811 16.43 16.0889 15.6512 15.3101C14.8724 14.5313 13.8802 14.001 12.8 13.7861C11.7198 13.5712 10.6002 13.6815 9.58263 14.103C8.56511 14.5244 7.69542 15.2382 7.08354 16.1539Z" fill="#4CAF4F" stroke="#4CAF4F" stroke-width="0.696069"/>
</g>
<g clip-path="url(#clip1_211_2331)">
<path d="M45.9258 20.3579V18.1985L50.9713 13.5267C51.4004 13.1115 51.7603 12.7377 52.051 12.4055C52.3463 12.0733 52.5701 11.748 52.7223 11.4296C52.8746 11.1066 52.9507 10.7583 52.9507 10.3845C52.9507 9.96927 52.8561 9.61168 52.667 9.31176C52.4778 9.00723 52.2194 8.77422 51.8918 8.61273C51.5642 8.44662 51.1928 8.36357 50.7775 8.36357C50.3438 8.36357 49.9654 8.45123 49.6424 8.62657C49.3194 8.8019 49.0703 9.05337 48.8949 9.38097C48.7196 9.70857 48.6319 10.0985 48.6319 10.5506H45.7873C45.7873 9.62321 45.9973 8.81805 46.4172 8.13517C46.837 7.45228 47.4253 6.92397 48.1821 6.55022C48.9388 6.17648 49.8108 5.98961 50.7983 5.98961C51.8134 5.98961 52.697 6.16956 53.4491 6.52946C54.2058 6.88475 54.7941 7.37846 55.2139 8.01059C55.6338 8.64272 55.8438 9.36713 55.8438 10.1838C55.8438 10.7191 55.7376 11.2474 55.5254 11.7688C55.3178 12.2902 54.9463 12.8692 54.4111 13.506C53.8759 14.1381 53.1214 14.8971 52.1479 15.783L50.0785 17.8109V17.9078H56.0306V20.3579H45.9258ZM61.4343 18.42L61.3582 19.1813C61.2982 19.7904 61.1829 20.3971 61.0121 21.0016C60.846 21.6106 60.6707 22.162 60.4861 22.6557C60.3062 23.1494 60.1608 23.537 60.0501 23.8185H58.1399C58.2091 23.5463 58.3037 23.1656 58.4236 22.6765C58.5436 22.192 58.6566 21.6476 58.7628 21.0431C58.8689 20.4387 58.9358 19.8227 58.9635 19.1952L58.9981 18.42H61.4343ZM64.1024 20.3579V18.1985L69.1479 13.5267C69.5771 13.1115 69.9369 12.7377 70.2276 12.4055C70.5229 12.0733 70.7467 11.748 70.899 11.4296C71.0513 11.1066 71.1274 10.7583 71.1274 10.3845C71.1274 9.96927 71.0328 9.61168 70.8436 9.31176C70.6544 9.00723 70.3961 8.77422 70.0685 8.61273C69.7409 8.44662 69.3694 8.36357 68.9541 8.36357C68.5204 8.36357 68.1421 8.45123 67.8191 8.62657C67.4961 8.8019 67.2469 9.05337 67.0716 9.38097C66.8963 9.70857 66.8086 10.0985 66.8086 10.5506H63.964C63.964 9.62321 64.1739 8.81805 64.5938 8.13517C65.0137 7.45228 65.602 6.92397 66.3587 6.55022C67.1154 6.17648 67.9875 5.98961 68.9749 5.98961C69.99 5.98961 70.8736 6.16956 71.6257 6.52946C72.3824 6.88475 72.9707 7.37846 73.3906 8.01059C73.8105 8.64272 74.0204 9.36713 74.0204 10.1838C74.0204 10.7191 73.9143 11.2474 73.7021 11.7688C73.4944 12.2902 73.123 12.8692 72.5877 13.506C72.0525 14.1381 71.2981 14.8971 70.3245 15.783L68.2551 17.8109V17.9078H74.2073V20.3579H64.1024ZM75.8597 17.8663V15.5062L81.7773 6.1834H83.8121V9.45018H82.6078L78.8773 15.3539V15.4647H87.2865V17.8663H75.8597ZM82.6632 20.3579V17.1465L82.7186 16.1014V6.1834H85.5286V20.3579H82.6632ZM94.4603 20.5517C93.4821 20.5517 92.61 20.3718 91.8441 20.0119C91.0828 19.652 90.4783 19.1559 90.0308 18.5238C89.5832 17.8917 89.3502 17.1673 89.3317 16.3506H92.2386C92.2709 16.8996 92.5016 17.3449 92.9307 17.6863C93.3598 18.0278 93.8697 18.1985 94.4603 18.1985C94.9309 18.1985 95.3462 18.0947 95.7061 17.8871C96.0706 17.6748 96.3544 17.3818 96.5574 17.0081C96.765 16.6297 96.8689 16.196 96.8689 15.7069C96.8689 15.2086 96.7627 14.7702 96.5505 14.3919C96.3428 14.0135 96.0545 13.7182 95.6853 13.506C95.3162 13.2937 94.894 13.1853 94.4188 13.1807C94.0035 13.1807 93.5998 13.266 93.2076 13.4368C92.82 13.6075 92.5178 13.8405 92.3009 14.1358L89.6363 13.6582L90.3076 6.1834H98.9729V8.63349H92.7785L92.4116 12.184H92.4947C92.7439 11.8334 93.1199 11.5427 93.6228 11.312C94.1258 11.0813 94.6887 10.9659 95.3116 10.9659C96.1652 10.9659 96.9265 11.1666 97.5956 11.5681C98.2646 11.9695 98.7929 12.5209 99.1805 13.2222C99.5681 13.9189 99.7596 14.7218 99.755 15.6308C99.7596 16.5859 99.5381 17.4349 99.0905 18.1777C98.6476 18.916 98.027 19.4974 97.2288 19.9219C96.4351 20.3418 95.5123 20.5517 94.4603 20.5517ZM104.621 18.42L104.544 19.1813C104.484 19.7904 104.369 20.3971 104.198 21.0016C104.032 21.6106 103.857 22.162 103.672 22.6557C103.492 23.1494 103.347 23.537 103.236 23.8185H101.326C101.395 23.5463 101.49 23.1656 101.61 22.6765C101.73 22.192 101.843 21.6476 101.949 21.0431C102.055 20.4387 102.122 19.8227 102.15 19.1952L102.184 18.42H104.621ZM112.071 20.5517C111.038 20.5517 110.117 20.3741 109.31 20.0188C108.507 19.6589 107.872 19.1652 107.406 18.5376C106.945 17.9055 106.707 17.1765 106.693 16.3506H109.711C109.729 16.6966 109.843 17.0012 110.05 17.2642C110.262 17.5225 110.544 17.7233 110.895 17.8663C111.245 18.0093 111.64 18.0809 112.078 18.0809C112.535 18.0809 112.939 18.0001 113.289 17.8386C113.64 17.6771 113.914 17.4533 114.113 17.1673C114.311 16.8812 114.41 16.5513 114.41 16.1775C114.41 15.7992 114.304 15.4647 114.092 15.174C113.884 14.8787 113.585 14.648 113.192 14.4819C112.805 14.3158 112.343 14.2327 111.808 14.2327H110.486V12.0318H111.808C112.26 12.0318 112.659 11.9533 113.006 11.7965C113.356 11.6396 113.628 11.4227 113.822 11.1459C114.016 10.8644 114.113 10.5368 114.113 10.1631C114.113 9.80778 114.028 9.49633 113.857 9.22871C113.691 8.95648 113.455 8.74423 113.151 8.59196C112.851 8.4397 112.5 8.36357 112.099 8.36357C111.693 8.36357 111.321 8.43739 110.985 8.58504C110.648 8.72808 110.378 8.93341 110.175 9.20102C109.972 9.46864 109.863 9.7824 109.849 10.1423H106.977C106.991 9.3256 107.224 8.60581 107.676 7.9829C108.128 7.36 108.737 6.87321 109.503 6.52254C110.274 6.16726 111.144 5.98961 112.113 5.98961C113.091 5.98961 113.947 6.16726 114.68 6.52254C115.414 6.87783 115.984 7.35769 116.39 7.96214C116.801 8.56197 117.004 9.23563 116.999 9.98311C117.004 10.7767 116.757 11.4389 116.258 11.9695C115.765 12.5001 115.121 12.8369 114.327 12.98V13.0907C115.37 13.2245 116.164 13.5867 116.708 14.1773C117.257 14.7633 117.53 15.497 117.525 16.3783C117.53 17.1857 117.297 17.9032 116.826 18.5307C116.36 19.1582 115.716 19.652 114.895 20.0119C114.074 20.3718 113.132 20.5517 112.071 20.5517ZM119.465 17.8663V15.5062L125.382 6.1834H127.417V9.45018H126.213L122.482 15.3539V15.4647H130.891V17.8663H119.465ZM126.268 20.3579V17.1465L126.324 16.1014V6.1834H129.133V20.3579H126.268ZM138.865 6.1834V20.3579H135.868V9.02799H135.785L132.539 11.0628V8.40509L136.048 6.1834H138.865Z" fill="#4D4D4D"/>
<path d="M45.7577 30.2582H46.9283L49.681 36.9816H49.7759L52.5285 30.2582H53.6992V38.3579H52.7817V32.204H52.7026L50.1714 38.3579H49.2855L46.7543 32.204H46.6752V38.3579H45.7577V30.2582ZM58.0862 38.4845C57.5009 38.4845 56.996 38.3553 56.5715 38.0969C56.1496 37.8359 55.824 37.472 55.5946 37.0053C55.3679 36.536 55.2545 35.9902 55.2545 35.368C55.2545 34.7457 55.3679 34.1973 55.5946 33.7227C55.824 33.2455 56.143 32.8737 56.5517 32.6074C56.963 32.3385 57.4429 32.204 57.9913 32.204C58.3077 32.204 58.6201 32.2568 58.9286 32.3622C59.2371 32.4677 59.5179 32.6391 59.771 32.8764C60.0241 33.111 60.2258 33.4221 60.3761 33.8097C60.5264 34.1973 60.6016 34.6745 60.6016 35.2414V35.6369H55.9189V34.8301H59.6524C59.6524 34.4873 59.5838 34.1815 59.4467 33.9126C59.3123 33.6436 59.1198 33.4314 58.8693 33.2758C58.6215 33.1203 58.3288 33.0425 57.9913 33.0425C57.6195 33.0425 57.2979 33.1348 57.0263 33.3193C56.7574 33.5012 56.5504 33.7385 56.4054 34.0312C56.2604 34.3239 56.1878 34.6376 56.1878 34.9725V35.5104C56.1878 35.9691 56.2669 36.358 56.4251 36.6771C56.586 36.9935 56.8088 37.2347 57.0935 37.4008C57.3783 37.5643 57.7092 37.646 58.0862 37.646C58.3314 37.646 58.5529 37.6117 58.7506 37.5432C58.951 37.472 59.1237 37.3665 59.2687 37.2268C59.4138 37.0844 59.5258 36.9078 59.6049 36.6968L60.5066 36.95C60.4117 37.2558 60.2522 37.5247 60.0281 37.7568C59.804 37.9861 59.5271 38.1654 59.1976 38.2946C58.868 38.4212 58.4975 38.4845 58.0862 38.4845ZM62.0214 38.3579V32.2831H62.9231V33.2323H63.0022C63.1288 32.908 63.3331 32.6562 63.6152 32.4769C63.8973 32.295 64.2362 32.204 64.6316 32.204C65.0324 32.204 65.3659 32.295 65.6322 32.4769C65.9012 32.6562 66.1108 32.908 66.2611 33.2323H66.3244C66.4799 32.9185 66.7133 32.6694 67.0244 32.4848C67.3355 32.2976 67.7086 32.204 68.1436 32.204C68.6868 32.204 69.131 32.3741 69.4764 32.7142C69.8218 33.0517 69.9945 33.5777 69.9945 34.2922V38.3579H69.0612V34.2922C69.0612 33.844 68.9386 33.5237 68.6934 33.3312C68.4482 33.1387 68.1595 33.0425 67.8272 33.0425C67.4001 33.0425 67.0692 33.1717 66.8345 33.4301C66.5999 33.6858 66.4826 34.0101 66.4826 34.403V38.3579H65.5334V34.1973C65.5334 33.8519 65.4213 33.5738 65.1972 33.3628C64.9731 33.1493 64.6844 33.0425 64.3311 33.0425C64.0885 33.0425 63.8618 33.1071 63.6508 33.2363C63.4425 33.3655 63.2738 33.5447 63.1446 33.7741C63.018 34.0009 62.9548 34.2632 62.9548 34.5612V38.3579H62.0214ZM71.8277 38.3579V30.2582H72.761V33.2481H72.8401C72.9087 33.1427 73.0036 33.0082 73.1249 32.8447C73.2488 32.6786 73.4255 32.531 73.6548 32.4018C73.8869 32.2699 74.2006 32.204 74.5961 32.204C75.1076 32.204 75.5585 32.3319 75.9487 32.5877C76.3389 32.8434 76.6435 33.2059 76.8623 33.6753C77.0811 34.1446 77.1906 34.6983 77.1906 35.3363C77.1906 35.9797 77.0811 36.5373 76.8623 37.0093C76.6435 37.4786 76.3402 37.8424 75.9527 38.1008C75.5651 38.3566 75.1182 38.4845 74.6119 38.4845C74.2217 38.4845 73.9093 38.4199 73.6746 38.2907C73.44 38.1588 73.2593 38.0099 73.1328 37.8438C73.0062 37.675 72.9087 37.5353 72.8401 37.4245H72.7294V38.3579H71.8277ZM72.7452 35.3205C72.7452 35.7793 72.8124 36.184 72.9469 36.5347C73.0814 36.8827 73.2778 37.1556 73.5362 37.3534C73.7946 37.5485 74.111 37.646 74.4854 37.646C74.8756 37.646 75.2012 37.5432 75.4622 37.3375C75.7259 37.1292 75.9237 36.8498 76.0555 36.4991C76.19 36.1458 76.2572 35.7529 76.2572 35.3205C76.2572 34.8934 76.1913 34.5084 76.0594 34.1657C75.9302 33.8203 75.7338 33.5474 75.4702 33.347C75.2091 33.144 74.8809 33.0425 74.4854 33.0425C74.1057 33.0425 73.7867 33.1387 73.5283 33.3312C73.2699 33.521 73.0748 33.7873 72.943 34.1301C72.8111 34.4702 72.7452 34.867 72.7452 35.3205ZM81.1653 38.4845C80.5799 38.4845 80.075 38.3553 79.6505 38.0969C79.2287 37.8359 78.903 37.472 78.6737 37.0053C78.4469 36.536 78.3335 35.9902 78.3335 35.368C78.3335 34.7457 78.4469 34.1973 78.6737 33.7227C78.903 33.2455 79.2221 32.8737 79.6308 32.6074C80.0421 32.3385 80.5219 32.204 81.0704 32.204C81.3867 32.204 81.6992 32.2568 82.0077 32.3622C82.3162 32.4677 82.597 32.6391 82.8501 32.8764C83.1032 33.111 83.3049 33.4221 83.4552 33.8097C83.6055 34.1973 83.6806 34.6745 83.6806 35.2414V35.6369H78.998V34.8301H82.7314C82.7314 34.4873 82.6629 34.1815 82.5258 33.9126C82.3913 33.6436 82.1988 33.4314 81.9483 33.2758C81.7005 33.1203 81.4078 33.0425 81.0704 33.0425C80.6986 33.0425 80.3769 33.1348 80.1053 33.3193C79.8364 33.5012 79.6294 33.7385 79.4844 34.0312C79.3394 34.3239 79.2669 34.6376 79.2669 34.9725V35.5104C79.2669 35.9691 79.346 36.358 79.5042 36.6771C79.665 36.9935 79.8878 37.2347 80.1726 37.4008C80.4573 37.5643 80.7882 37.646 81.1653 37.646C81.4105 37.646 81.632 37.6117 81.8297 37.5432C82.0301 37.472 82.2028 37.3665 82.3478 37.2268C82.4928 37.0844 82.6049 36.9078 82.684 36.6968L83.5857 36.95C83.4908 37.2558 83.3313 37.5247 83.1071 37.7568C82.883 37.9861 82.6062 38.1654 82.2766 38.2946C81.947 38.4212 81.5766 38.4845 81.1653 38.4845ZM85.1004 38.3579V32.2831H86.0022V33.2007H86.0654C86.1762 32.9001 86.3766 32.6562 86.6666 32.469C86.9566 32.2818 87.2836 32.1882 87.6474 32.1882C87.716 32.1882 87.8017 32.1895 87.9045 32.1922C88.0073 32.1948 88.0851 32.1987 88.1378 32.204V33.1532C88.1062 33.1453 88.0337 33.1334 87.9203 33.1176C87.8096 33.0992 87.6922 33.0899 87.5683 33.0899C87.273 33.0899 87.0094 33.1519 86.7773 33.2758C86.5479 33.3971 86.366 33.5658 86.2316 33.782C86.0997 33.9956 86.0338 34.2395 86.0338 34.5137V38.3579H85.1004ZM93.5472 33.6436L92.7088 33.8809C92.656 33.7412 92.5782 33.6054 92.4754 33.4736C92.3752 33.3391 92.2381 33.2284 92.0641 33.1413C91.8901 33.0543 91.6673 33.0108 91.3957 33.0108C91.024 33.0108 90.7141 33.0965 90.4663 33.2679C90.2211 33.4366 90.0985 33.6515 90.0985 33.9126C90.0985 34.1446 90.1829 34.3278 90.3516 34.4623C90.5204 34.5968 90.784 34.7088 91.1426 34.7985L92.0443 35.0199C92.5875 35.1518 92.9922 35.3535 93.2585 35.625C93.5248 35.894 93.6579 36.2407 93.6579 36.6652C93.6579 37.0132 93.5577 37.3244 93.3574 37.5986C93.1596 37.8728 92.8828 38.089 92.5268 38.2472C92.1709 38.4054 91.7569 38.4845 91.285 38.4845C90.6654 38.4845 90.1525 38.35 89.7465 38.0811C89.3405 37.8121 89.0834 37.4193 88.9753 36.9025L89.8612 36.681C89.9456 37.008 90.1051 37.2532 90.3397 37.4166C90.577 37.5801 90.8868 37.6618 91.2692 37.6618C91.7042 37.6618 92.0496 37.5696 92.3054 37.385C92.5637 37.1978 92.6929 36.9737 92.6929 36.7127C92.6929 36.5017 92.6191 36.3251 92.4715 36.1827C92.3238 36.0377 92.0971 35.9296 91.7912 35.8584L90.7787 35.6211C90.2224 35.4893 89.8137 35.2849 89.5527 35.0081C89.2943 34.7286 89.1651 34.3792 89.1651 33.96C89.1651 33.6173 89.2614 33.314 89.4538 33.0504C89.649 32.7867 89.9139 32.5797 90.2488 32.4295C90.5863 32.2792 90.9686 32.204 91.3957 32.204C91.9969 32.204 92.4688 32.3359 92.8116 32.5995C93.157 32.8632 93.4022 33.2112 93.5472 33.6436Z" fill="#717171"/>
</g>
<defs>
<clipPath id="clip0_211_2331">
<rect width="33.4113" height="33.4113" fill="white" transform="translate(0.228516 5.15222)"/>
</clipPath>
<clipPath id="clip1_211_2331">
<rect width="132.949" height="43" fill="white" transform="translate(44.7769 0.35791)"/>
</clipPath>
</defs>
</svg>
