<svg width="178" height="44" viewBox="0 0 178 44" fill="none" xmlns="http://www.w3.org/2000/svg">
<path d="M28.0713 34.2299V31.4456C28.0713 29.9687 27.4847 28.5524 26.4403 27.508C25.396 26.4637 23.9797 25.8771 22.5028 25.8771H21.1106C20.7414 25.8771 20.3873 25.7304 20.1263 25.4693C19.8652 25.2082 19.7185 24.8541 19.7185 24.4849V17.5242C19.7185 16.7858 19.4252 16.0776 18.903 15.5554C18.3809 15.0333 17.6727 14.7399 16.9342 14.7399C16.1958 14.7399 15.4876 15.0333 14.9654 15.5554C14.4433 16.0776 14.15 16.7858 14.15 17.5242V30.0535L10.8088 25.5986C10.5495 25.2528 10.2132 24.9722 9.82656 24.7789C9.43995 24.5856 9.01364 24.4849 8.5814 24.4849H7.97721C6.77301 24.4849 5.79712 25.4608 5.79712 26.665C5.79712 27.0604 5.90431 27.4488 6.10757 27.7871L9.97354 34.2299M16.9342 10.5635V9.17139V10.5635ZM25.2871 18.9164H26.6792H25.2871ZM7.18926 18.9164H8.5814H7.18926ZM10.451 12.4332L9.4668 11.4489L10.451 12.4332ZM23.4174 12.4332L24.4017 11.4489L23.4174 12.4332Z" fill="#4CAF4F"/>
<path d="M28.0713 34.2299V31.4456C28.0713 29.9687 27.4847 28.5524 26.4403 27.508C25.396 26.4637 23.9797 25.8771 22.5028 25.8771H21.1106C20.7414 25.8771 20.3873 25.7304 20.1263 25.4693C19.8652 25.2082 19.7185 24.8541 19.7185 24.4849V17.5242C19.7185 16.7858 19.4252 16.0776 18.903 15.5554C18.3809 15.0333 17.6727 14.7399 16.9342 14.7399V14.7399C16.1958 14.7399 15.4876 15.0333 14.9654 15.5554C14.4433 16.0776 14.15 16.7858 14.15 17.5242V30.0535L10.8088 25.5986C10.5495 25.2528 10.2132 24.9722 9.82656 24.7789C9.43995 24.5856 9.01364 24.4849 8.5814 24.4849H7.97721C6.77301 24.4849 5.79712 25.4608 5.79712 26.665C5.79712 27.0604 5.90431 27.4488 6.10757 27.7871L9.97354 34.2299M16.9342 10.5635V9.17139M25.2871 18.9164H26.6792M7.18926 18.9164H8.5814M10.451 12.4332L9.4668 11.4489M23.4174 12.4332L24.4017 11.4489" stroke="#4CAF4F" stroke-width="1.39214" stroke-linecap="round" stroke-linejoin="round"/>
<g clip-path="url(#clip0_211_2347)">
<path d="M51.2135 20.3945C50.1477 20.3945 49.1995 20.2214 48.3689 19.8754C47.543 19.5247 46.8947 19.0472 46.4241 18.4427C45.9535 17.8383 45.7181 17.1531 45.7181 16.3871C45.7181 15.7965 45.8519 15.2544 46.1196 14.7607C46.3918 14.2623 46.7609 13.8494 47.2269 13.5218C47.693 13.1896 48.2144 12.9773 48.7911 12.885V12.7881C48.0344 12.6359 47.4207 12.2691 46.9501 11.6877C46.4795 11.1017 46.2441 10.4211 46.2441 9.64594C46.2441 8.9123 46.4587 8.2594 46.8878 7.68725C47.3169 7.11049 47.9052 6.65831 48.6527 6.33071C49.4048 5.99849 50.2584 5.83239 51.2135 5.83239C52.1686 5.83239 53.0199 5.99849 53.7674 6.33071C54.5195 6.66292 55.1101 7.11741 55.5392 7.69417C55.9683 8.26632 56.1852 8.91691 56.1898 9.64594C56.1852 10.4257 55.9453 11.1063 55.47 11.6877C54.9948 12.2691 54.3857 12.6359 53.6428 12.7881V12.885C54.2104 12.9773 54.7248 13.1896 55.1863 13.5218C55.6523 13.8494 56.0214 14.2623 56.2936 14.7607C56.5705 15.2544 56.7112 15.7965 56.7158 16.3871C56.7112 17.1531 56.4736 17.8383 56.003 18.4427C55.5323 19.0472 54.8817 19.5247 54.0512 19.8754C53.2253 20.2214 52.2794 20.3945 51.2135 20.3945ZM51.2135 18.1936C51.6888 18.1936 52.104 18.1082 52.4593 17.9375C52.8146 17.7621 53.0915 17.5222 53.2899 17.2177C53.4929 16.9085 53.5944 16.5532 53.5944 16.1518C53.5944 15.7412 53.4906 15.379 53.2829 15.0652C53.0753 14.7468 52.7938 14.4977 52.4386 14.3177C52.0833 14.1331 51.6749 14.0409 51.2135 14.0409C50.7567 14.0409 50.3484 14.1331 49.9885 14.3177C49.6286 14.4977 49.3448 14.7468 49.1372 15.0652C48.9342 15.379 48.8326 15.7412 48.8326 16.1518C48.8326 16.5532 48.9318 16.9085 49.1303 17.2177C49.3287 17.5222 49.6078 17.7621 49.9677 17.9375C50.3276 18.1082 50.7429 18.1936 51.2135 18.1936ZM51.2135 11.8607C51.6103 11.8607 51.9633 11.78 52.2725 11.6185C52.5816 11.457 52.8238 11.2332 52.9992 10.9471C53.1745 10.661 53.2622 10.3311 53.2622 9.95739C53.2622 9.58826 53.1745 9.26527 52.9992 8.98843C52.8238 8.70697 52.5839 8.4878 52.2794 8.33092C51.9748 8.16943 51.6196 8.08868 51.2135 8.08868C50.8121 8.08868 50.4568 8.16943 50.1477 8.33092C49.8385 8.4878 49.5963 8.70697 49.4209 8.98843C49.2502 9.26527 49.1649 9.58826 49.1649 9.95739C49.1649 10.3311 49.2525 10.661 49.4279 10.9471C49.6032 11.2332 49.8454 11.457 50.1546 11.6185C50.4637 11.78 50.8167 11.8607 51.2135 11.8607ZM58.8112 20.2007V18.0413L63.8567 13.3695C64.2858 12.9542 64.6457 12.5805 64.9364 12.2483C65.2317 11.9161 65.4555 11.5908 65.6078 11.2724C65.76 10.9494 65.8362 10.6011 65.8362 10.2273C65.8362 9.81204 65.7416 9.45445 65.5524 9.15454C65.3632 8.85001 65.1048 8.61699 64.7772 8.4555C64.4496 8.28939 64.0782 8.20634 63.6629 8.20634C63.2292 8.20634 62.8508 8.29401 62.5279 8.46934C62.2049 8.64468 61.9557 8.89615 61.7804 9.22375C61.605 9.55135 61.5174 9.94124 61.5174 10.3934H58.6728C58.6728 9.46599 58.8827 8.66083 59.3026 7.97794C59.7225 7.29506 60.3108 6.76674 61.0675 6.393C61.8242 6.01926 62.6963 5.83239 63.6837 5.83239C64.6988 5.83239 65.5824 6.01234 66.3345 6.37224C67.0912 6.72752 67.6795 7.22123 68.0994 7.85336C68.5193 8.48549 68.7292 9.2099 68.7292 10.0266C68.7292 10.5618 68.6231 11.0901 68.4108 11.6115C68.2032 12.1329 67.8318 12.712 67.2965 13.3487C66.7613 13.9809 66.0069 14.7399 65.0333 15.6258L62.9639 17.6537V17.7506H68.9161V20.2007H58.8112ZM76.3753 20.3945C75.3095 20.3945 74.3613 20.2214 73.5308 19.8754C72.7048 19.5247 72.0565 19.0472 71.5859 18.4427C71.1153 17.8383 70.88 17.1531 70.88 16.3871C70.88 15.7965 71.0138 15.2544 71.2814 14.7607C71.5536 14.2623 71.9227 13.8494 72.3888 13.5218C72.8548 13.1896 73.3762 12.9773 73.9529 12.885V12.7881C73.1962 12.6359 72.5826 12.2691 72.1119 11.6877C71.6413 11.1017 71.406 10.4211 71.406 9.64594C71.406 8.9123 71.6205 8.2594 72.0496 7.68725C72.4787 7.11049 73.067 6.65831 73.8145 6.33071C74.5666 5.99849 75.4202 5.83239 76.3753 5.83239C77.3305 5.83239 78.1818 5.99849 78.9292 6.33071C79.6813 6.66292 80.2719 7.11741 80.7011 7.69417C81.1302 8.26632 81.347 8.91691 81.3516 9.64594C81.347 10.4257 81.1071 11.1063 80.6318 11.6877C80.1566 12.2691 79.5475 12.6359 78.8047 12.7881V12.885C79.3722 12.9773 79.8867 13.1896 80.3481 13.5218C80.8141 13.8494 81.1832 14.2623 81.4555 14.7607C81.7323 15.2544 81.873 15.7965 81.8777 16.3871C81.873 17.1531 81.6354 17.8383 81.1648 18.4427C80.6941 19.0472 80.0436 19.5247 79.213 19.8754C78.3871 20.2214 77.4412 20.3945 76.3753 20.3945ZM76.3753 18.1936C76.8506 18.1936 77.2659 18.1082 77.6212 17.9375C77.9764 17.7621 78.2533 17.5222 78.4517 17.2177C78.6547 16.9085 78.7562 16.5532 78.7562 16.1518C78.7562 15.7412 78.6524 15.379 78.4448 15.0652C78.2371 14.7468 77.9557 14.4977 77.6004 14.3177C77.2451 14.1331 76.8368 14.0409 76.3753 14.0409C75.9185 14.0409 75.5102 14.1331 75.1503 14.3177C74.7904 14.4977 74.5066 14.7468 74.299 15.0652C74.096 15.379 73.9945 15.7412 73.9945 16.1518C73.9945 16.5532 74.0937 16.9085 74.2921 17.2177C74.4905 17.5222 74.7696 17.7621 75.1295 17.9375C75.4894 18.1082 75.9047 18.1936 76.3753 18.1936ZM76.3753 11.8607C76.7722 11.8607 77.1251 11.78 77.4343 11.6185C77.7434 11.457 77.9857 11.2332 78.161 10.9471C78.3363 10.661 78.424 10.3311 78.424 9.95739C78.424 9.58826 78.3363 9.26527 78.161 8.98843C77.9857 8.70697 77.7457 8.4878 77.4412 8.33092C77.1367 8.16943 76.7814 8.08868 76.3753 8.08868C75.9739 8.08868 75.6186 8.16943 75.3095 8.33092C75.0003 8.4878 74.7581 8.70697 74.5828 8.98843C74.412 9.26527 74.3267 9.58826 74.3267 9.95739C74.3267 10.3311 74.4144 10.661 74.5897 10.9471C74.765 11.2332 75.0073 11.457 75.3164 11.6185C75.6256 11.78 75.9785 11.8607 76.3753 11.8607ZM86.8055 18.2628L86.7294 19.0241C86.6694 19.6331 86.554 20.2399 86.3833 20.8444C86.2172 21.4534 86.0419 22.0048 85.8573 22.4985C85.6774 22.9922 85.532 23.3798 85.4213 23.6613H83.511C83.5803 23.389 83.6748 23.0084 83.7948 22.5193C83.9148 22.0348 84.0278 21.4903 84.1339 20.8859C84.2401 20.2814 84.307 19.6654 84.3347 19.0379L84.3693 18.2628H86.8055ZM94.1904 20.3945C93.1245 20.3945 92.1763 20.2214 91.3458 19.8754C90.5199 19.5247 89.8716 19.0472 89.4009 18.4427C88.9303 17.8383 88.695 17.1531 88.695 16.3871C88.695 15.7965 88.8288 15.2544 89.0964 14.7607C89.3686 14.2623 89.7378 13.8494 90.2038 13.5218C90.6698 13.1896 91.1912 12.9773 91.768 12.885V12.7881C91.0113 12.6359 90.3976 12.2691 89.9269 11.6877C89.4563 11.1017 89.221 10.4211 89.221 9.64594C89.221 8.9123 89.4355 8.2594 89.8647 7.68725C90.2938 7.11049 90.8821 6.65831 91.6295 6.33071C92.3816 5.99849 93.2353 5.83239 94.1904 5.83239C95.1455 5.83239 95.9968 5.99849 96.7443 6.33071C97.4964 6.66292 98.087 7.11741 98.5161 7.69417C98.9452 8.26632 99.1621 8.91691 99.1667 9.64594C99.1621 10.4257 98.9221 11.1063 98.4469 11.6877C97.9716 12.2691 97.3626 12.6359 96.6197 12.7881V12.885C97.1872 12.9773 97.7017 13.1896 98.1631 13.5218C98.6291 13.8494 98.9983 14.2623 99.2705 14.7607C99.5473 15.2544 99.6881 15.7965 99.6927 16.3871C99.6881 17.1531 99.4504 17.8383 98.9798 18.4427C98.5092 19.0472 97.8586 19.5247 97.028 19.8754C96.2021 20.2214 95.2562 20.3945 94.1904 20.3945ZM94.1904 18.1936C94.6656 18.1936 95.0809 18.1082 95.4362 17.9375C95.7915 17.7621 96.0683 17.5222 96.2667 17.2177C96.4697 16.9085 96.5712 16.5532 96.5712 16.1518C96.5712 15.7412 96.4674 15.379 96.2598 15.0652C96.0522 14.7468 95.7707 14.4977 95.4154 14.3177C95.0601 14.1331 94.6518 14.0409 94.1904 14.0409C93.7336 14.0409 93.3252 14.1331 92.9653 14.3177C92.6054 14.4977 92.3217 14.7468 92.114 15.0652C91.911 15.379 91.8095 15.7412 91.8095 16.1518C91.8095 16.5532 91.9087 16.9085 92.1071 17.2177C92.3055 17.5222 92.5847 17.7621 92.9446 17.9375C93.3045 18.1082 93.7197 18.1936 94.1904 18.1936ZM94.1904 11.8607C94.5872 11.8607 94.9402 11.78 95.2493 11.6185C95.5585 11.457 95.8007 11.2332 95.976 10.9471C96.1514 10.661 96.239 10.3311 96.239 9.95739C96.239 9.58826 96.1514 9.26527 95.976 8.98843C95.8007 8.70697 95.5608 8.4878 95.2562 8.33092C94.9517 8.16943 94.5964 8.08868 94.1904 8.08868C93.7889 8.08868 93.4337 8.16943 93.1245 8.33092C92.8154 8.4878 92.5731 8.70697 92.3978 8.98843C92.2271 9.26527 92.1417 9.58826 92.1417 9.95739C92.1417 10.3311 92.2294 10.661 92.4047 10.9471C92.5801 11.2332 92.8223 11.457 93.1314 11.6185C93.4406 11.78 93.7936 11.8607 94.1904 11.8607ZM107.228 20.3945C106.499 20.3899 105.795 20.2676 105.117 20.0277C104.443 19.7877 103.839 19.3978 103.304 18.858C102.769 18.3181 102.344 17.6029 102.03 16.7124C101.721 15.8219 101.567 14.7284 101.567 13.4318C101.571 12.2414 101.707 11.1778 101.975 10.2412C102.247 9.29988 102.635 8.50164 103.138 7.84644C103.645 7.19124 104.252 6.69291 104.958 6.35147C105.664 6.00541 106.455 5.83239 107.332 5.83239C108.278 5.83239 109.113 6.01695 109.837 6.38608C110.562 6.75059 111.143 7.24661 111.581 7.87412C112.024 8.50164 112.292 9.20529 112.384 9.98507H109.429C109.314 9.49137 109.071 9.10378 108.702 8.82232C108.333 8.54086 107.876 8.40013 107.332 8.40013C106.409 8.40013 105.708 8.80156 105.228 9.60441C104.753 10.4073 104.51 11.4985 104.501 12.8781H104.598C104.81 12.4582 105.096 12.1006 105.456 11.8053C105.821 11.5054 106.234 11.277 106.695 11.1201C107.161 10.9586 107.653 10.8779 108.169 10.8779C109.009 10.8779 109.757 11.0763 110.412 11.4731C111.067 11.8653 111.584 12.4052 111.962 13.0927C112.34 13.7802 112.53 14.5669 112.53 15.4528C112.53 16.4125 112.306 17.2661 111.858 18.0136C111.415 18.7611 110.795 19.3471 109.997 19.7716C109.203 20.1915 108.28 20.3991 107.228 20.3945ZM107.214 18.0413C107.676 18.0413 108.089 17.9305 108.453 17.7091C108.818 17.4876 109.104 17.1877 109.311 16.8093C109.519 16.431 109.623 16.0065 109.623 15.5358C109.623 15.0652 109.519 14.643 109.311 14.2693C109.108 13.8955 108.827 13.5979 108.467 13.3764C108.107 13.155 107.696 13.0442 107.235 13.0442C106.889 13.0442 106.568 13.1088 106.273 13.238C105.982 13.3672 105.726 13.5472 105.505 13.7779C105.288 14.0086 105.117 14.2762 104.993 14.5807C104.868 14.8806 104.806 15.2013 104.806 15.5428C104.806 15.9995 104.909 16.4171 105.117 16.7955C105.329 17.1738 105.615 17.4761 105.975 17.7022C106.34 17.9282 106.753 18.0413 107.214 18.0413ZM115.215 20.2007L121.091 8.57316V8.47626H114.246V6.02618H124.192V8.51087L118.309 20.2007H115.215Z" fill="#4D4D4D"/>
<path d="M45.7577 38.2007V30.101H50.646V30.9711H46.7385V33.7079H50.3929V34.578H46.7385V37.3306H50.7093V38.2007H45.7577ZM57.2547 32.1259L55.0083 38.2007H54.0591L51.8127 32.1259H52.8252L54.5021 36.9667H54.5653L56.2422 32.1259H57.2547ZM60.8161 38.3272C60.2308 38.3272 59.7259 38.198 59.3014 37.9397C58.8795 37.6786 58.5539 37.3148 58.3245 36.8481C58.0978 36.3788 57.9844 35.833 57.9844 35.2107C57.9844 34.5885 58.0978 34.0401 58.3245 33.5655C58.5539 33.0883 58.8729 32.7165 59.2816 32.4502C59.6929 32.1813 60.1728 32.0468 60.7212 32.0468C61.0376 32.0468 61.35 32.0995 61.6585 32.205C61.967 32.3105 62.2478 32.4818 62.5009 32.7191C62.754 32.9538 62.9557 33.2649 63.106 33.6525C63.2563 34.0401 63.3315 34.5173 63.3315 35.0842V35.4797H58.6488V34.6729H62.3823C62.3823 34.3301 62.3137 34.0243 62.1766 33.7553C62.0421 33.4864 61.8497 33.2741 61.5992 33.1186C61.3514 32.963 61.0587 32.8852 60.7212 32.8852C60.3494 32.8852 60.0278 32.9775 59.7562 33.1621C59.4873 33.344 59.2803 33.5813 59.1353 33.874C58.9903 34.1666 58.9177 34.4804 58.9177 34.8153V35.3531C58.9177 35.8119 58.9968 36.2008 59.155 36.5198C59.3159 36.8362 59.5387 37.0775 59.8234 37.2436C60.1082 37.4071 60.4391 37.4888 60.8161 37.4888C61.0613 37.4888 61.2828 37.4545 61.4805 37.386C61.6809 37.3148 61.8536 37.2093 61.9986 37.0696C62.1437 36.9272 62.2557 36.7505 62.3348 36.5396L63.2365 36.7927C63.1416 37.0986 62.9821 37.3675 62.758 37.5995C62.5339 37.8289 62.257 38.0082 61.9275 38.1374C61.5979 38.264 61.2274 38.3272 60.8161 38.3272ZM65.6846 34.5463V38.2007H64.7513V32.1259H65.653V33.0751H65.7321C65.8745 32.7666 66.0907 32.5188 66.3807 32.3316C66.6707 32.1417 67.0451 32.0468 67.5039 32.0468C67.9152 32.0468 68.2751 32.1312 68.5836 32.2999C68.8921 32.466 69.132 32.7191 69.3034 33.0593C69.4748 33.3967 69.5605 33.8239 69.5605 34.3407V38.2007H68.6271V34.4039C68.6271 33.9267 68.5032 33.5549 68.2554 33.2886C68.0075 33.0197 67.6674 32.8852 67.235 32.8852C66.937 32.8852 66.6707 32.9498 66.4361 33.079C66.2041 33.2082 66.0208 33.3967 65.8863 33.6446C65.7519 33.8924 65.6846 34.193 65.6846 34.5463ZM73.908 32.1259V32.9169H70.7598V32.1259H73.908ZM71.6774 30.6705H72.6107V36.4605C72.6107 36.7242 72.649 36.9219 72.7254 37.0538C72.8045 37.1829 72.9047 37.27 73.026 37.3148C73.1499 37.357 73.2804 37.3781 73.4175 37.3781C73.5204 37.3781 73.6047 37.3728 73.6707 37.3622C73.7366 37.3491 73.7893 37.3385 73.8289 37.3306L74.0187 38.169C73.9554 38.1928 73.8671 38.2165 73.7537 38.2402C73.6403 38.2666 73.4966 38.2798 73.3226 38.2798C73.059 38.2798 72.8006 38.2231 72.5475 38.1097C72.297 37.9963 72.0887 37.8236 71.9226 37.5916C71.7591 37.3596 71.6774 37.0669 71.6774 36.7136V30.6705ZM78.5708 38.2007V30.101H81.4026C81.9668 30.101 82.4322 30.1985 82.7987 30.3936C83.1652 30.5861 83.438 30.8458 83.6173 31.1728C83.7966 31.4971 83.8863 31.857 83.8863 32.2525C83.8863 32.6005 83.8243 32.8879 83.7004 33.1146C83.5791 33.3414 83.4183 33.5207 83.2179 33.6525C83.0201 33.7843 82.8053 33.8819 82.5732 33.9452V34.0243C82.8211 34.0401 83.0702 34.1271 83.3207 34.2853C83.5712 34.4435 83.7808 34.6702 83.9495 34.9655C84.1183 35.2608 84.2027 35.6221 84.2027 36.0492C84.2027 36.4552 84.1104 36.8204 83.9258 37.1447C83.7413 37.469 83.4499 37.7261 83.0518 37.9159C82.6536 38.1058 82.1355 38.2007 81.4975 38.2007H78.5708ZM79.5517 37.3306H81.4975C82.1382 37.3306 82.593 37.2067 82.8619 36.9588C83.1335 36.7084 83.2693 36.4051 83.2693 36.0492C83.2693 35.775 83.1994 35.5219 83.0597 35.2898C82.9199 35.0552 82.7209 34.868 82.4625 34.7282C82.2041 34.5859 81.8983 34.5147 81.5449 34.5147H79.5517V37.3306ZM79.5517 33.6604H81.3709C81.6662 33.6604 81.9325 33.6024 82.1698 33.4864C82.4098 33.3704 82.5996 33.2069 82.7393 32.996C82.8817 32.7851 82.9529 32.5372 82.9529 32.2525C82.9529 31.8965 82.829 31.5946 82.5811 31.3468C82.3333 31.0963 81.9404 30.9711 81.4026 30.9711H79.5517V33.6604ZM88.1556 38.3272C87.6072 38.3272 87.126 38.1967 86.7121 37.9357C86.3008 37.6747 85.9791 37.3095 85.7471 36.8402C85.5177 36.3709 85.403 35.8224 85.403 35.1949C85.403 34.5621 85.5177 34.0098 85.7471 33.5378C85.9791 33.0659 86.3008 32.6994 86.7121 32.4383C87.126 32.1773 87.6072 32.0468 88.1556 32.0468C88.704 32.0468 89.1839 32.1773 89.5952 32.4383C90.0092 32.6994 90.3308 33.0659 90.5602 33.5378C90.7923 34.0098 90.9083 34.5621 90.9083 35.1949C90.9083 35.8224 90.7923 36.3709 90.5602 36.8402C90.3308 37.3095 90.0092 37.6747 89.5952 37.9357C89.1839 38.1967 88.704 38.3272 88.1556 38.3272ZM88.1556 37.4888C88.5722 37.4888 88.915 37.382 89.1839 37.1684C89.4529 36.9549 89.6519 36.6741 89.7811 36.326C89.9103 35.978 89.9749 35.601 89.9749 35.1949C89.9749 34.7889 89.9103 34.4105 89.7811 34.0599C89.6519 33.7092 89.4529 33.4258 89.1839 33.2095C88.915 32.9933 88.5722 32.8852 88.1556 32.8852C87.739 32.8852 87.3963 32.9933 87.1273 33.2095C86.8584 33.4258 86.6593 33.7092 86.5302 34.0599C86.401 34.4105 86.3364 34.7889 86.3364 35.1949C86.3364 35.601 86.401 35.978 86.5302 36.326C86.6593 36.6741 86.8584 36.9549 87.1273 37.1684C87.3963 37.382 87.739 37.4888 88.1556 37.4888ZM94.8009 38.3272C94.2525 38.3272 93.7713 38.1967 93.3574 37.9357C92.9461 37.6747 92.6244 37.3095 92.3924 36.8402C92.163 36.3709 92.0483 35.8224 92.0483 35.1949C92.0483 34.5621 92.163 34.0098 92.3924 33.5378C92.6244 33.0659 92.9461 32.6994 93.3574 32.4383C93.7713 32.1773 94.2525 32.0468 94.8009 32.0468C95.3493 32.0468 95.8292 32.1773 96.2405 32.4383C96.6545 32.6994 96.9761 33.0659 97.2055 33.5378C97.4375 34.0098 97.5536 34.5621 97.5536 35.1949C97.5536 35.8224 97.4375 36.3709 97.2055 36.8402C96.9761 37.3095 96.6545 37.6747 96.2405 37.9357C95.8292 38.1967 95.3493 38.3272 94.8009 38.3272ZM94.8009 37.4888C95.2175 37.4888 95.5603 37.382 95.8292 37.1684C96.0981 36.9549 96.2972 36.6741 96.4264 36.326C96.5556 35.978 96.6202 35.601 96.6202 35.1949C96.6202 34.7889 96.5556 34.4105 96.4264 34.0599C96.2972 33.7092 96.0981 33.4258 95.8292 33.2095C95.5603 32.9933 95.2175 32.8852 94.8009 32.8852C94.3843 32.8852 94.0416 32.9933 93.7726 33.2095C93.5037 33.4258 93.3046 33.7092 93.1754 34.0599C93.0462 34.4105 92.9816 34.7889 92.9816 35.1949C92.9816 35.601 93.0462 35.978 93.1754 36.326C93.3046 36.6741 93.5037 36.9549 93.7726 37.1684C94.0416 37.382 94.3843 37.4888 94.8009 37.4888ZM99.8484 35.9859L99.8326 34.8311H100.022L102.68 32.1259H103.835L101.003 34.9893H100.924L99.8484 35.9859ZM98.9783 38.2007V30.101H99.9117V38.2007H98.9783ZM102.838 38.2007L100.465 35.1949L101.13 34.5463L104.025 38.2007H102.838ZM105.036 38.2007V32.1259H105.97V38.2007H105.036ZM105.511 31.1134C105.329 31.1134 105.172 31.0515 105.04 30.9275C104.911 30.8036 104.846 30.6547 104.846 30.4806C104.846 30.3066 104.911 30.1577 105.04 30.0337C105.172 29.9098 105.329 29.8478 105.511 29.8478C105.693 29.8478 105.848 29.9098 105.978 30.0337C106.109 30.1577 106.175 30.3066 106.175 30.4806C106.175 30.6547 106.109 30.8036 105.978 30.9275C105.848 31.0515 105.693 31.1134 105.511 31.1134ZM108.613 34.5463V38.2007H107.679V32.1259H108.581V33.0751H108.66C108.802 32.7666 109.019 32.5188 109.309 32.3316C109.599 32.1417 109.973 32.0468 110.432 32.0468C110.843 32.0468 111.203 32.1312 111.512 32.2999C111.82 32.466 112.06 32.7191 112.231 33.0593C112.403 33.3967 112.488 33.8239 112.488 34.3407V38.2007H111.555V34.4039C111.555 33.9267 111.431 33.5549 111.183 33.2886C110.935 33.0197 110.595 32.8852 110.163 32.8852C109.865 32.8852 109.599 32.9498 109.364 33.079C109.132 33.2082 108.949 33.3967 108.814 33.6446C108.68 33.8924 108.613 34.193 108.613 34.5463ZM116.646 40.6053C116.195 40.6053 115.808 40.5473 115.483 40.4313C115.159 40.3179 114.889 40.1676 114.673 39.9804C114.459 39.7958 114.289 39.5981 114.162 39.3872L114.906 38.8651C114.99 38.9759 115.097 39.1024 115.226 39.2448C115.355 39.3898 115.532 39.515 115.756 39.6205C115.983 39.7286 116.28 39.7827 116.646 39.7827C117.136 39.7827 117.541 39.664 117.86 39.4267C118.179 39.1894 118.339 38.8177 118.339 38.3114V37.0775H118.26C118.191 37.1882 118.094 37.3253 117.967 37.4888C117.843 37.6496 117.664 37.7933 117.429 37.9199C117.197 38.0438 116.883 38.1058 116.488 38.1058C115.997 38.1058 115.557 37.9898 115.167 37.7577C114.779 37.5257 114.472 37.1882 114.245 36.7453C114.021 36.3023 113.909 35.7644 113.909 35.1316C113.909 34.5094 114.019 33.9676 114.237 33.5062C114.456 33.0421 114.761 32.6835 115.151 32.4304C115.541 32.1747 115.992 32.0468 116.504 32.0468C116.899 32.0468 117.213 32.1127 117.445 32.2445C117.68 32.3737 117.859 32.5214 117.983 32.6875C118.109 32.851 118.207 32.9854 118.275 33.0909H118.37V32.1259H119.272V38.3747C119.272 38.8968 119.153 39.3212 118.916 39.6482C118.682 39.9778 118.365 40.219 117.967 40.3719C117.571 40.5275 117.131 40.6053 116.646 40.6053ZM116.614 37.2673C116.989 37.2673 117.305 37.1816 117.564 37.0102C117.822 36.8389 118.018 36.5923 118.153 36.2707C118.287 35.949 118.355 35.5641 118.355 35.1158C118.355 34.6782 118.289 34.2919 118.157 33.957C118.025 33.6222 117.83 33.3598 117.571 33.17C117.313 32.9802 116.994 32.8852 116.614 32.8852C116.219 32.8852 115.889 32.9854 115.626 33.1858C115.365 33.3862 115.168 33.6551 115.036 33.9926C114.907 34.3301 114.843 34.7045 114.843 35.1158C114.843 35.5377 114.908 35.9108 115.04 36.2351C115.175 36.5567 115.373 36.8099 115.634 36.9944C115.897 37.1764 116.224 37.2673 116.614 37.2673ZM125.284 33.4864L124.445 33.7237C124.392 33.5839 124.315 33.4482 124.212 33.3163C124.112 33.1819 123.975 33.0711 123.801 32.9841C123.626 32.8971 123.404 32.8536 123.132 32.8536C122.76 32.8536 122.451 32.9393 122.203 33.1107C121.958 33.2794 121.835 33.4943 121.835 33.7553C121.835 33.9874 121.919 34.1706 122.088 34.3051C122.257 34.4395 122.52 34.5516 122.879 34.6412L123.781 34.8627C124.324 34.9945 124.729 35.1962 124.995 35.4678C125.261 35.7368 125.394 36.0835 125.394 36.508C125.394 36.856 125.294 37.1671 125.094 37.4413C124.896 37.7155 124.619 37.9317 124.263 38.0899C123.907 38.2481 123.493 38.3272 123.021 38.3272C122.402 38.3272 121.889 38.1928 121.483 37.9238C121.077 37.6549 120.82 37.262 120.712 36.7453L121.598 36.5238C121.682 36.8507 121.841 37.0959 122.076 37.2594C122.313 37.4229 122.623 37.5046 123.006 37.5046C123.441 37.5046 123.786 37.4123 124.042 37.2278C124.3 37.0406 124.429 36.8165 124.429 36.5554C124.429 36.3445 124.356 36.1678 124.208 36.0255C124.06 35.8805 123.833 35.7724 123.528 35.7012L122.515 35.4639C121.959 35.332 121.55 35.1277 121.289 34.8508C121.031 34.5714 120.902 34.222 120.902 33.8028C120.902 33.46 120.998 33.1568 121.19 32.8932C121.385 32.6295 121.65 32.4225 121.985 32.2722C122.323 32.1219 122.705 32.0468 123.132 32.0468C123.733 32.0468 124.205 32.1786 124.548 32.4423C124.893 32.706 125.139 33.054 125.284 33.4864Z" fill="#717171"/>
</g>
<defs>
<clipPath id="clip0_211_2347">
<rect width="132.949" height="43" fill="white" transform="translate(44.7769 0.200684)"/>
</clipPath>
</defs>
</svg>
