<svg width="179" height="44" viewBox="0 0 179 44" fill="none" xmlns="http://www.w3.org/2000/svg">
<path d="M4.67059 16.9317V17.2798H5.01863H30.0771H30.4252V16.9317V15.3656C30.4252 14.581 30.1135 13.8285 29.5587 13.2738C29.0039 12.719 28.2515 12.4073 27.4669 12.4073H7.62889C6.8443 12.4073 6.09185 12.719 5.53706 13.2738C4.98227 13.8285 4.67059 14.581 4.67059 15.3656V16.9317ZM30.4252 19.0199V18.6719H30.0771H5.01863H4.67059V19.0199V28.9389C4.67059 29.7235 4.98227 30.476 5.53706 31.0308C6.09185 31.5856 6.8443 31.8972 7.62889 31.8972H27.4669C28.2515 31.8972 29.0039 31.5856 29.5587 31.0308C30.1135 30.476 30.4252 29.7235 30.4252 28.9389V19.0199ZM3.27845 15.3656C3.27845 14.2118 3.7368 13.1052 4.55267 12.2894C5.36853 11.4735 6.47508 11.0151 7.62889 11.0151H27.4669C28.6207 11.0151 29.7272 11.4735 30.5431 12.2894C31.359 13.1052 31.8173 14.2118 31.8173 15.3656V28.9389C31.8173 30.0927 31.359 31.1993 30.5431 32.0152C29.7272 32.831 28.6207 33.2894 27.4669 33.2894H7.62889C6.47508 33.2894 5.36853 32.831 4.55267 32.0152C3.7368 31.1993 3.27845 30.0927 3.27845 28.9389V15.3656ZM22.7684 25.6326H25.9007C26.0853 25.6326 26.2624 25.7059 26.3929 25.8365C26.5234 25.967 26.5968 26.1441 26.5968 26.3287C26.5968 26.5133 26.5234 26.6903 26.3929 26.8209C26.2624 26.9514 26.0853 27.0247 25.9007 27.0247H22.7684C22.5838 27.0247 22.4067 26.9514 22.2762 26.8209C22.1457 26.6903 22.0723 26.5133 22.0723 26.3287C22.0723 26.1441 22.1457 25.967 22.2762 25.8365C22.4067 25.7059 22.5838 25.6326 22.7684 25.6326Z" fill="#4CAF4F" stroke="#4CAF4F" stroke-width="0.696069"/>
<g clip-path="url(#clip0_211_2353)">
<path d="M52.7063 6.47772V20.6522H49.7094V9.32231H49.6264L46.3803 11.3571V8.6994L49.8894 6.47772H52.7063ZM58.546 18.7143L58.4699 19.4756C58.4099 20.0847 58.2945 20.6914 58.1238 21.2959C57.9577 21.9049 57.7824 22.4563 57.5978 22.95C57.4178 23.4438 57.2725 23.8313 57.1618 24.1128H55.2515C55.3207 23.8406 55.4153 23.4599 55.5353 22.9708C55.6553 22.4863 55.7683 21.9419 55.8744 21.3374C55.9806 20.733 56.0475 20.117 56.0751 19.4895L56.1097 18.7143H58.546ZM66.0762 6.28392C66.8052 6.28392 67.5066 6.4062 68.1802 6.65074C68.8585 6.89529 69.4629 7.28518 69.9936 7.82042C70.5288 8.35565 70.951 9.06622 71.2601 9.95213C71.5739 10.8334 71.7331 11.9154 71.7377 13.1981C71.7377 14.4024 71.6016 15.4775 71.3293 16.4234C71.0617 17.3647 70.6765 18.1652 70.1735 18.825C69.6706 19.4849 69.0638 19.9878 68.3533 20.3338C67.6427 20.6753 66.8491 20.846 65.9724 20.846C65.0265 20.846 64.1913 20.6638 63.4669 20.2992C62.7425 19.9301 62.1588 19.4295 61.7159 18.7974C61.2775 18.1606 61.0122 17.4454 60.9199 16.6518H63.8753C63.9906 17.1686 64.2329 17.57 64.602 17.8561C64.9711 18.1375 65.4279 18.2783 65.9724 18.2783C66.8952 18.2783 67.5965 17.8768 68.0764 17.074C68.5563 16.2665 68.7985 15.1614 68.8031 13.7588H68.7062C68.494 14.174 68.2079 14.5316 67.848 14.8315C67.4881 15.1268 67.0751 15.3552 66.6091 15.5167C66.1477 15.6782 65.6563 15.759 65.1349 15.759C64.2998 15.759 63.5546 15.5629 62.8994 15.1707C62.2442 14.7785 61.7274 14.2386 61.3491 13.5511C60.9707 12.8636 60.7815 12.0792 60.7815 11.1979C60.7769 10.2474 60.9961 9.40075 61.439 8.65788C61.882 7.91501 62.5003 7.33363 63.2939 6.91375C64.0921 6.48925 65.0196 6.27931 66.0762 6.28392ZM66.097 8.63711C65.6309 8.63711 65.2157 8.74785 64.8512 8.96933C64.4913 9.19081 64.2052 9.48841 63.9929 9.86216C63.7853 10.2359 63.6838 10.6535 63.6884 11.1149C63.6884 11.5809 63.7899 12.0008 63.9929 12.3745C64.2006 12.7437 64.482 13.039 64.8373 13.2604C65.1972 13.4773 65.6079 13.5857 66.0693 13.5857C66.4153 13.5857 66.736 13.5211 67.0313 13.3919C67.3266 13.2627 67.5827 13.0851 67.7996 12.859C68.021 12.6283 68.1941 12.363 68.3186 12.0631C68.4432 11.7632 68.5055 11.4448 68.5055 11.108C68.5009 10.6604 68.3948 10.2497 68.1871 9.876C67.9795 9.50226 67.6934 9.20234 67.3289 8.97625C66.9644 8.75016 66.5538 8.63711 66.097 8.63711ZM73.814 20.6522V18.4928L78.8596 13.8211C79.2887 13.4058 79.6486 13.032 79.9393 12.6998C80.2346 12.3676 80.4583 12.0423 80.6106 11.7239C80.7629 11.401 80.839 11.0526 80.839 10.6789C80.839 10.2636 80.7444 9.90599 80.5552 9.60607C80.3661 9.30154 80.1077 9.06853 79.7801 8.90704C79.4525 8.74093 79.081 8.65788 78.6658 8.65788C78.232 8.65788 77.8537 8.74555 77.5307 8.92088C77.2077 9.09622 76.9585 9.34768 76.7832 9.67529C76.6079 10.0029 76.5202 10.3928 76.5202 10.845H73.6756C73.6756 9.91753 73.8856 9.11237 74.3054 8.42948C74.7253 7.74659 75.3136 7.21828 76.0703 6.84454C76.827 6.47079 77.6991 6.28392 78.6865 6.28392C79.7016 6.28392 80.5852 6.46387 81.3373 6.82377C82.094 7.17906 82.6823 7.67277 83.1022 8.3049C83.5221 8.93703 83.732 9.66144 83.732 10.4781C83.732 11.0134 83.6259 11.5417 83.4137 12.0631C83.206 12.5845 82.8346 13.1635 82.2994 13.8003C81.7641 14.4324 81.0097 15.1914 80.0361 16.0773L77.9667 18.1052V18.2021H83.9189V20.6522H73.814ZM91.5304 20.846C90.8014 20.8414 90.0978 20.7191 89.4195 20.4792C88.7458 20.2393 88.1414 19.8494 87.6062 19.3095C87.0709 18.7697 86.6464 18.0545 86.3327 17.164C86.0235 16.2734 85.8689 15.1799 85.8689 13.8833C85.8736 12.6929 86.0097 11.6294 86.2773 10.6927C86.5495 9.75142 86.9371 8.95318 87.44 8.29798C87.9476 7.64278 88.5543 7.14445 89.2603 6.80301C89.9663 6.45695 90.7576 6.28392 91.6343 6.28392C92.5801 6.28392 93.4153 6.46849 94.1397 6.83762C94.8641 7.20213 95.4455 7.69814 95.8838 8.32566C96.3268 8.95318 96.5944 9.65683 96.6867 10.4366H93.7314C93.616 9.9429 93.3738 9.55532 93.0046 9.27386C92.6355 8.9924 92.1787 8.85167 91.6343 8.85167C90.7114 8.85167 90.0101 9.2531 89.5302 10.0559C89.055 10.8588 88.8127 11.95 88.8035 13.3296H88.9004C89.1127 12.9098 89.3987 12.5522 89.7586 12.2569C90.1231 11.957 90.5361 11.7286 90.9975 11.5717C91.4635 11.4102 91.9549 11.3294 92.4717 11.3294C93.3115 11.3294 94.059 11.5278 94.7142 11.9247C95.3694 12.3169 95.8861 12.8567 96.2645 13.5442C96.6429 14.2317 96.832 15.0184 96.832 15.9043C96.832 16.864 96.6083 17.7177 96.1607 18.4651C95.7177 19.2126 95.0971 19.7986 94.2989 20.2231C93.5053 20.643 92.5825 20.8506 91.5304 20.846ZM91.5166 18.4928C91.978 18.4928 92.391 18.3821 92.7555 18.1606C93.12 17.9391 93.4061 17.6392 93.6137 17.2609C93.8213 16.8825 93.9252 16.458 93.9252 15.9874C93.9252 15.5167 93.8213 15.0945 93.6137 14.7208C93.4107 14.3471 93.1292 14.0494 92.7693 13.828C92.4094 13.6065 91.9988 13.4958 91.5374 13.4958C91.1913 13.4958 90.8706 13.5604 90.5753 13.6895C90.2846 13.8187 90.0286 13.9987 89.8071 14.2294C89.5902 14.4601 89.4195 14.7277 89.2949 15.0323C89.1703 15.3322 89.108 15.6528 89.108 15.9943C89.108 16.4511 89.2119 16.8687 89.4195 17.247C89.6317 17.6254 89.9178 17.9276 90.2777 18.1537C90.6422 18.3798 91.0552 18.4928 91.5166 18.4928ZM101.599 18.7143L101.523 19.4756C101.463 20.0847 101.348 20.6914 101.177 21.2959C101.011 21.9049 100.835 22.4563 100.651 22.95C100.471 23.4438 100.325 23.8313 100.215 24.1128H98.3045C98.3737 23.8406 98.4683 23.4599 98.5883 22.9708C98.7082 22.4863 98.8213 21.9419 98.9274 21.3374C99.0335 20.733 99.1004 20.117 99.1281 19.4895L99.1627 18.7143H101.599ZM104.053 18.1606V15.8005L109.97 6.47772H112.005V9.7445H110.801L107.07 15.6482V15.759H115.479V18.1606H104.053ZM110.856 20.6522V17.4408L110.911 16.3957V6.47772H113.721V20.6522H110.856ZM122.715 20.846C121.682 20.846 120.761 20.6684 119.954 20.3131C119.151 19.9532 118.517 19.4595 118.051 18.832C117.589 18.1998 117.352 17.4708 117.338 16.6449H120.355C120.374 16.9909 120.487 17.2955 120.694 17.5585C120.907 17.8169 121.188 18.0176 121.539 18.1606C121.889 18.3036 122.284 18.3752 122.722 18.3752C123.179 18.3752 123.583 18.2944 123.934 18.1329C124.284 17.9714 124.559 17.7476 124.757 17.4616C124.956 17.1755 125.055 16.8456 125.055 16.4718C125.055 16.0935 124.949 15.759 124.736 15.4683C124.529 15.173 124.229 14.9423 123.837 14.7762C123.449 14.6101 122.988 14.527 122.452 14.527H121.13V12.3261H122.452C122.905 12.3261 123.304 12.2476 123.65 12.0908C124 11.9339 124.273 11.717 124.466 11.4402C124.66 11.1587 124.757 10.8311 124.757 10.4574C124.757 10.1021 124.672 9.79064 124.501 9.52302C124.335 9.25079 124.1 9.03854 123.795 8.88627C123.495 8.73401 123.144 8.65788 122.743 8.65788C122.337 8.65788 121.966 8.7317 121.629 8.87935C121.292 9.02239 121.022 9.22772 120.819 9.49534C120.616 9.76295 120.508 10.0767 120.494 10.4366H117.621C117.635 9.61992 117.868 8.90012 118.32 8.27721C118.773 7.65431 119.382 7.16752 120.148 6.81685C120.918 6.46157 121.788 6.28392 122.757 6.28392C123.735 6.28392 124.591 6.46157 125.325 6.81685C126.058 7.17214 126.628 7.652 127.034 8.25645C127.445 8.85628 127.648 9.52994 127.643 10.2774C127.648 11.071 127.401 11.7332 126.903 12.2638C126.409 12.7944 125.765 13.1312 124.972 13.2743V13.385C126.014 13.5188 126.808 13.881 127.353 14.4716C127.902 15.0576 128.174 15.7913 128.169 16.6726C128.174 17.48 127.941 18.1975 127.47 18.825C127.004 19.4526 126.361 19.9463 125.539 20.3062C124.718 20.6661 123.777 20.846 122.715 20.846ZM135.763 20.846C135.034 20.8414 134.331 20.7191 133.653 20.4792C132.979 20.2393 132.374 19.8494 131.839 19.3095C131.304 18.7697 130.879 18.0545 130.566 17.164C130.257 16.2734 130.102 15.1799 130.102 13.8833C130.107 12.6929 130.243 11.6294 130.51 10.6927C130.783 9.75142 131.17 8.95318 131.673 8.29798C132.181 7.64278 132.787 7.14445 133.493 6.80301C134.199 6.45695 134.991 6.28392 135.867 6.28392C136.813 6.28392 137.648 6.46849 138.373 6.83762C139.097 7.20213 139.679 7.69814 140.117 8.32566C140.56 8.95318 140.827 9.65683 140.92 10.4366H137.964C137.849 9.9429 137.607 9.55532 137.238 9.27386C136.869 8.9924 136.412 8.85167 135.867 8.85167C134.944 8.85167 134.243 9.2531 133.763 10.0559C133.288 10.8588 133.046 11.95 133.037 13.3296H133.133C133.346 12.9098 133.632 12.5522 133.992 12.2569C134.356 11.957 134.769 11.7286 135.231 11.5717C135.697 11.4102 136.188 11.3294 136.705 11.3294C137.545 11.3294 138.292 11.5278 138.947 11.9247C139.602 12.3169 140.119 12.8567 140.498 13.5442C140.876 14.2317 141.065 15.0184 141.065 15.9043C141.065 16.864 140.841 17.7177 140.394 18.4651C139.951 19.2126 139.33 19.7986 138.532 20.2231C137.738 20.643 136.815 20.8506 135.763 20.846ZM135.75 18.4928C136.211 18.4928 136.624 18.3821 136.989 18.1606C137.353 17.9391 137.639 17.6392 137.847 17.2609C138.054 16.8825 138.158 16.458 138.158 15.9874C138.158 15.5167 138.054 15.0945 137.847 14.7208C137.644 14.3471 137.362 14.0494 137.002 13.828C136.642 13.6065 136.232 13.4958 135.77 13.4958C135.424 13.4958 135.104 13.5604 134.808 13.6895C134.518 13.8187 134.262 13.9987 134.04 14.2294C133.823 14.4601 133.653 14.7277 133.528 15.0323C133.403 15.3322 133.341 15.6528 133.341 15.9943C133.341 16.4511 133.445 16.8687 133.653 17.247C133.865 17.6254 134.151 17.9276 134.511 18.1537C134.875 18.3798 135.288 18.4928 135.75 18.4928Z" fill="#4D4D4D"/>
<path d="M46.3715 38.6522V30.5525H49.1083C49.7437 30.5525 50.2631 30.6672 50.6665 30.8966C51.0726 31.1233 51.3731 31.4305 51.5682 31.8181C51.7634 32.2057 51.8609 32.6381 51.8609 33.1153C51.8609 33.5925 51.7634 34.0263 51.5682 34.4165C51.3758 34.8067 51.0778 35.1178 50.6744 35.3498C50.271 35.5792 49.7542 35.6939 49.1241 35.6939H47.1624V34.8238H49.0924C49.5275 34.8238 49.8768 34.7487 50.1405 34.5984C50.4042 34.4481 50.5953 34.2451 50.714 33.9893C50.8353 33.731 50.8959 33.4396 50.8959 33.1153C50.8959 32.791 50.8353 32.501 50.714 32.2452C50.5953 31.9895 50.4029 31.7891 50.1366 31.6441C49.8703 31.4964 49.5169 31.4226 49.0766 31.4226H47.3523V38.6522H46.3715ZM55.102 38.7946C54.717 38.7946 54.3677 38.7221 54.0539 38.5771C53.7402 38.4294 53.491 38.2172 53.3064 37.9403C53.1219 37.6609 53.0296 37.3234 53.0296 36.9279C53.0296 36.5798 53.0981 36.2977 53.2352 36.0815C53.3724 35.8627 53.5556 35.6913 53.785 35.5674C54.0144 35.4434 54.2675 35.3512 54.5443 35.2905C54.8238 35.2272 55.1046 35.1771 55.3867 35.1402C55.7559 35.0928 56.0551 35.0572 56.2845 35.0335C56.5165 35.0071 56.6853 34.9636 56.7907 34.9029C56.8988 34.8423 56.9529 34.7368 56.9529 34.5865V34.5549C56.9529 34.1647 56.8461 33.8615 56.6325 33.6453C56.4216 33.4291 56.1013 33.321 55.6715 33.321C55.2259 33.321 54.8765 33.4185 54.6234 33.6136C54.3703 33.8087 54.1923 34.017 54.0895 34.2385L53.2036 33.9221C53.3618 33.553 53.5727 33.2656 53.8364 33.0599C54.1027 32.8516 54.3927 32.7066 54.7065 32.6249C55.0229 32.5405 55.334 32.4983 55.6399 32.4983C55.835 32.4983 56.0591 32.5221 56.3122 32.5695C56.5679 32.6143 56.8145 32.7079 57.0518 32.8503C57.2917 32.9927 57.4908 33.2076 57.649 33.495C57.8072 33.7824 57.8863 34.1673 57.8863 34.6498V38.6522H56.9529V37.8296H56.9054C56.8422 37.9614 56.7367 38.1025 56.589 38.2528C56.4414 38.4031 56.245 38.5309 55.9998 38.6364C55.7545 38.7419 55.4553 38.7946 55.102 38.7946ZM55.2444 37.9562C55.6135 37.9562 55.9246 37.8836 56.1777 37.7386C56.4335 37.5936 56.626 37.4064 56.7551 37.177C56.887 36.9476 56.9529 36.7064 56.9529 36.4533V35.599C56.9133 35.6465 56.8263 35.69 56.6919 35.7295C56.56 35.7664 56.4071 35.7994 56.2331 35.8284C56.0617 35.8548 55.8943 35.8785 55.7308 35.8996C55.57 35.918 55.4395 35.9339 55.3393 35.947C55.0967 35.9787 54.87 36.0301 54.659 36.1013C54.4507 36.1698 54.282 36.274 54.1528 36.4137C54.0262 36.5508 53.963 36.738 53.963 36.9753C53.963 37.2996 54.0829 37.5448 54.3229 37.7109C54.5654 37.8744 54.8726 37.9562 55.2444 37.9562ZM59.9735 40.9303C59.8153 40.9303 59.6742 40.9171 59.5503 40.8907C59.4264 40.867 59.3407 40.8433 59.2932 40.8195L59.5305 39.9969C59.7573 40.0549 59.9577 40.076 60.1317 40.0602C60.3057 40.0444 60.4599 39.9666 60.5944 39.8268C60.7315 39.6897 60.8567 39.4669 60.9701 39.1585L61.1441 38.6839L58.8977 32.5774H59.9102L61.5871 37.4183H61.6504L63.3273 32.5774H64.3397L61.7611 39.5381C61.6451 39.8519 61.5014 40.1116 61.33 40.3173C61.1586 40.5255 60.9596 40.6798 60.7328 40.78C60.5087 40.8802 60.2556 40.9303 59.9735 40.9303ZM65.5717 38.6522V32.5774H66.4734V33.5266H66.5525C66.6791 33.2023 66.8834 32.9505 67.1655 32.7712C67.4477 32.5893 67.7865 32.4983 68.182 32.4983C68.5827 32.4983 68.9163 32.5893 69.1826 32.7712C69.4515 32.9505 69.6611 33.2023 69.8114 33.5266H69.8747C70.0302 33.2129 70.2636 32.9637 70.5747 32.7791C70.8858 32.5919 71.2589 32.4983 71.6939 32.4983C72.2371 32.4983 72.6814 32.6684 73.0268 33.0085C73.3722 33.346 73.5449 33.872 73.5449 34.5865V38.6522H72.6115V34.5865C72.6115 34.1383 72.4889 33.818 72.2437 33.6255C71.9985 33.433 71.7098 33.3368 71.3775 33.3368C70.9504 33.3368 70.6195 33.466 70.3849 33.7244C70.1502 33.9801 70.0329 34.3044 70.0329 34.6973V38.6522H69.0837V34.4916C69.0837 34.1462 68.9716 33.8681 68.7475 33.6571C68.5234 33.4436 68.2347 33.3368 67.8814 33.3368C67.6388 33.3368 67.4121 33.4014 67.2011 33.5306C66.9928 33.6598 66.8241 33.8391 66.6949 34.0684C66.5683 34.2952 66.5051 34.5575 66.5051 34.8555V38.6522H65.5717ZM77.7984 38.7788C77.2131 38.7788 76.7081 38.6496 76.2837 38.3912C75.8618 38.1302 75.5362 37.7663 75.3068 37.2996C75.08 36.8303 74.9667 36.2845 74.9667 35.6623C74.9667 35.04 75.08 34.4916 75.3068 34.017C75.5362 33.5398 75.8552 33.168 76.2639 32.9017C76.6752 32.6328 77.1551 32.4983 77.7035 32.4983C78.0199 32.4983 78.3323 32.5511 78.6408 32.6565C78.9493 32.762 79.2301 32.9334 79.4832 33.1707C79.7363 33.4053 79.938 33.7165 80.0883 34.104C80.2386 34.4916 80.3137 34.9689 80.3137 35.5357V35.9312H75.6311V35.1244H79.3645C79.3645 34.7817 79.296 34.4758 79.1589 34.2069C79.0244 33.9379 78.832 33.7257 78.5815 33.5701C78.3336 33.4146 78.041 33.3368 77.7035 33.3368C77.3317 33.3368 77.01 33.4291 76.7385 33.6136C76.4695 33.7956 76.2626 34.0329 76.1175 34.3255C75.9725 34.6182 75.9 34.9319 75.9 35.2668V35.8047C75.9 36.2634 75.9791 36.6523 76.1373 36.9714C76.2982 37.2878 76.5209 37.529 76.8057 37.6951C77.0905 37.8586 77.4214 37.9403 77.7984 37.9403C78.0436 37.9403 78.2651 37.9061 78.4628 37.8375C78.6632 37.7663 78.8359 37.6609 78.9809 37.5211C79.1259 37.3787 79.238 37.2021 79.3171 36.9911L80.2188 37.2443C80.1239 37.5501 79.9644 37.819 79.7403 38.0511C79.5162 38.2805 79.2393 38.4597 78.9097 38.5889C78.5802 38.7155 78.2097 38.7788 77.7984 38.7788ZM82.6669 34.9979V38.6522H81.7336V32.5774H82.6353V33.5266H82.7144C82.8568 33.2181 83.073 32.9703 83.363 32.7831C83.653 32.5933 84.0274 32.4983 84.4862 32.4983C84.8975 32.4983 85.2574 32.5827 85.5659 32.7515C85.8744 32.9176 86.1143 33.1707 86.2857 33.5108C86.4571 33.8483 86.5428 34.2754 86.5428 34.7922V38.6522H85.6094V34.8555C85.6094 34.3782 85.4855 34.0065 85.2376 33.7402C84.9898 33.4712 84.6497 33.3368 84.2173 33.3368C83.9193 33.3368 83.653 33.4014 83.4184 33.5306C83.1863 33.6598 83.0031 33.8483 82.8686 34.0961C82.7342 34.344 82.6669 34.6445 82.6669 34.9979ZM90.8902 32.5774V33.3684H87.7421V32.5774H90.8902ZM88.6596 31.122H89.593V36.912C89.593 37.1757 89.6312 37.3735 89.7077 37.5053C89.7868 37.6345 89.887 37.7215 90.0083 37.7663C90.1322 37.8085 90.2627 37.8296 90.3998 37.8296C90.5026 37.8296 90.587 37.8243 90.6529 37.8138C90.7189 37.8006 90.7716 37.79 90.8111 37.7821L91.001 38.6206C90.9377 38.6443 90.8494 38.668 90.736 38.6918C90.6226 38.7181 90.4789 38.7313 90.3049 38.7313C90.0412 38.7313 89.7828 38.6746 89.5297 38.5613C89.2793 38.4479 89.071 38.2752 88.9049 38.0432C88.7414 37.8111 88.6596 37.5185 88.6596 37.1652V31.122ZM96.4885 33.9379L95.65 34.1752C95.5973 34.0355 95.5195 33.8997 95.4167 33.7679C95.3165 33.6334 95.1794 33.5227 95.0054 33.4357C94.8313 33.3486 94.6085 33.3051 94.337 33.3051C93.9652 33.3051 93.6554 33.3908 93.4076 33.5622C93.1623 33.731 93.0397 33.9458 93.0397 34.2069C93.0397 34.4389 93.1241 34.6221 93.2929 34.7566C93.4616 34.8911 93.7253 35.0031 94.0838 35.0928L94.9856 35.3143C95.5287 35.4461 95.9334 35.6478 96.1997 35.9194C96.466 36.1883 96.5992 36.535 96.5992 36.9595C96.5992 37.3075 96.499 37.6187 96.2986 37.8929C96.1009 38.1671 95.824 38.3833 95.4681 38.5415C95.1121 38.6997 94.6982 38.7788 94.2262 38.7788C93.6066 38.7788 93.0938 38.6443 92.6878 38.3754C92.2817 38.1064 92.0246 37.7136 91.9165 37.1968L92.8024 36.9753C92.8868 37.3023 93.0463 37.5475 93.281 37.7109C93.5183 37.8744 93.8281 37.9562 94.2104 37.9562C94.6455 37.9562 94.9908 37.8639 95.2466 37.6793C95.505 37.4921 95.6342 37.268 95.6342 37.007C95.6342 36.796 95.5604 36.6194 95.4127 36.477C95.2651 36.332 95.0383 36.2239 94.7325 36.1527L93.72 35.9154C93.1637 35.7836 92.755 35.5792 92.494 35.3024C92.2356 35.0229 92.1064 34.6736 92.1064 34.2543C92.1064 33.9116 92.2026 33.6084 92.3951 33.3447C92.5902 33.081 92.8552 32.8741 93.19 32.7238C93.5275 32.5735 93.9098 32.4983 94.337 32.4983C94.9381 32.4983 95.4101 32.6302 95.7528 32.8938C96.0982 33.1575 96.3434 33.5055 96.4885 33.9379Z" fill="#717171"/>
</g>
<defs>
<clipPath id="clip0_211_2353">
<rect width="132.949" height="43" fill="white" transform="translate(45.3906 0.652222)"/>
</clipPath>
</defs>
</svg>
