<svg width="34" height="35" viewBox="0 0 34 35" fill="none" xmlns="http://www.w3.org/2000/svg">
<rect x="0.446045" y="0.76535" width="33.4113" height="33.4113" rx="5.56856" fill="#E8F5E9"/>
<g clip-path="url(#clip0_211_2511)">
<path fill-rule="evenodd" clip-rule="evenodd" d="M7.65259 0.900696C11.4968 0.900696 14.6133 4.0171 14.6133 7.86139V0.900696H21.574C25.4182 0.900696 28.5347 4.0171 28.5347 7.86139C28.5347 11.7056 25.4182 14.8221 21.574 14.8221C25.4182 14.8221 28.5347 17.9385 28.5347 21.7828C28.5347 23.6916 27.7663 25.421 26.522 26.6785L26.496 26.7048L26.4728 26.7277C25.215 27.9738 23.4844 28.7435 21.574 28.7435C19.6766 28.7435 17.9564 27.9843 16.7008 26.7531C16.6845 26.7371 16.6682 26.7209 16.652 26.7048C16.6368 26.6895 16.6216 26.6742 16.6065 26.6588C15.3737 25.403 14.6133 23.6817 14.6133 21.7828C14.6133 25.627 11.4968 28.7435 7.65259 28.7435C3.8083 28.7435 0.691895 25.627 0.691895 21.7828V14.8221H7.65259C3.8083 14.8221 0.691895 11.7056 0.691895 7.86139C0.691895 4.0171 3.8083 0.900696 7.65259 0.900696ZM13.2211 7.86139C13.2211 10.9368 10.728 13.4299 7.65259 13.4299V2.29283C10.728 2.29283 13.2211 4.78596 13.2211 7.86139ZM27.1425 21.7828C27.1425 18.7073 24.6494 16.2142 21.574 16.2142C18.4985 16.2142 16.0054 18.7073 16.0054 21.7828H27.1425ZM2.08403 16.2142V21.7828C2.08403 24.8582 4.57716 27.3513 7.65259 27.3513C10.728 27.3513 13.2211 24.8582 13.2211 21.7828V16.2142H2.08403ZM16.0054 13.4299V2.29283H21.574C24.6494 2.29283 27.1425 4.78596 27.1425 7.86139C27.1425 10.9368 24.6494 13.4299 21.574 13.4299H16.0054Z" fill="#5417D7"/>
</g>
<defs>
<clipPath id="clip0_211_2511">
<rect width="27.8428" height="27.8428" fill="white" transform="translate(0.691895 0.900696)"/>
</clipPath>
</defs>
</svg>
