<svg width="39" height="35" viewBox="0 0 39 35" fill="none" xmlns="http://www.w3.org/2000/svg">
<rect x="0.346436" y="0.76532" width="33.4113" height="33.4113" rx="5.56856" fill="white"/>
<g clip-path="url(#clip0_211_2517)">
<path d="M38.6273 14.3501C38.6313 14.3211 38.6313 14.2917 38.6273 14.2627C38.6311 14.2391 38.6311 14.2149 38.6273 14.1912L38.3437 12.1499C38.3028 11.9057 38.1933 11.6774 38.0277 11.4907L37.9791 11.435L37.89 11.3477L32.9802 7.20148L33.1179 7.33652C33.0052 7.20435 32.8638 7.09863 32.704 7.02715C32.5441 6.95567 32.3699 6.92024 32.1943 6.92349H30.7035C30.4611 6.91878 30.2242 6.99434 30.0311 7.13795C29.8282 6.9952 29.584 6.92003 29.3343 6.92349H27.8435C27.648 6.92038 27.4552 6.96795 27.2844 7.0614C27.1137 7.15485 26.9712 7.29086 26.8713 7.45566C26.7173 7.69103 26.6595 7.97463 26.7093 8.24995L26.8956 9.53669C26.7722 9.46808 26.6324 9.43249 26.4905 9.43345H19.2717C19.0127 9.43504 18.7596 9.50946 18.5425 9.64789C18.3325 9.77675 18.1639 9.96125 18.0564 10.1801L17.4973 9.71144C17.2773 9.51185 16.9869 9.40367 16.6871 9.40961H5.3606C5.10068 9.41426 4.84653 9.48544 4.62334 9.61613C4.31799 9.79134 4.09422 10.0762 3.99947 10.4104L0.402202 22.2056C0.334989 22.4 0.328377 22.6096 0.383213 22.8077C0.43805 23.0057 0.551852 23.1833 0.71008 23.3176C0.75131 23.3519 0.794601 23.3837 0.839715 23.4129C0.839715 23.4129 0.766786 23.3653 0.726275 23.3256L5.63608 27.4797C5.84378 27.6672 6.11533 27.772 6.39762 27.7736H17.8133C18.074 27.7669 18.3283 27.693 18.5506 27.5591C18.6763 27.4918 18.7888 27.403 18.8828 27.297L18.9233 27.2414L18.9881 27.162L19.0367 27.0746L19.5715 27.5274C19.7762 27.7074 20.0418 27.8064 20.3168 27.8054H31.7568C32.0172 27.7969 32.271 27.723 32.4941 27.5909C32.6169 27.5194 32.7288 27.4312 32.8263 27.3288L32.8667 27.2732L32.9316 27.1938C32.966 27.1435 32.9959 27.0904 33.0207 27.0349C33.0471 26.9867 33.0688 26.9362 33.0855 26.884L36.3668 16.1134V16.0181C36.3708 15.9811 36.3708 15.9439 36.3668 15.9069V15.8354C36.3707 15.8117 36.3707 15.7876 36.3668 15.7639C36.3704 15.7137 36.3704 15.6633 36.3668 15.613H37.4201C37.5117 15.6212 37.6039 15.6212 37.6955 15.613H37.7684C37.8277 15.5957 37.8848 15.5716 37.9386 15.5415H38.0196L38.1654 15.4303L38.2302 15.3827L38.3437 15.2397V15.1921L38.4247 15.057C38.4202 15.0307 38.4202 15.0039 38.4247 14.9776C38.4204 14.9647 38.4204 14.9508 38.4247 14.9379C38.4419 14.8913 38.4555 14.8435 38.4652 14.7949C38.4614 14.7792 38.4614 14.7629 38.4652 14.7472C38.4613 14.7236 38.4613 14.6994 38.4652 14.6758C38.4652 14.6758 38.6273 14.366 38.6273 14.3501Z" fill="black"/>
<path d="M17.0193 10.3152C17.0623 10.3533 17.0924 10.4034 17.1054 10.4588C17.1185 10.5142 17.1139 10.5722 17.0923 10.6249L13.5031 22.4122C13.4579 22.5409 13.3655 22.6485 13.2439 22.714C13.1449 22.7789 13.0304 22.8173 12.9116 22.8252H1.50411C1.40668 22.8206 1.31439 22.7811 1.24484 22.714C1.20347 22.6765 1.17443 22.6278 1.16144 22.574C1.14845 22.5203 1.15211 22.4639 1.17193 22.4122L4.7692 10.6249C4.81064 10.4946 4.9002 10.3842 5.02035 10.3152C5.12094 10.2549 5.23492 10.2195 5.35253 10.2119H16.7601C16.8567 10.2128 16.9494 10.2497 17.0193 10.3152ZM11.0644 20.0373L13.2114 12.9999H7.1998L5.06085 20.0373H11.0644ZM27.9084 10.4343C27.9473 10.4786 27.9959 10.5138 28.0507 10.5372C28.1054 10.5606 28.1647 10.5716 28.2244 10.5693H29.707C29.7635 10.5699 29.8191 10.5563 29.8688 10.5299C29.9184 10.5035 29.9603 10.4651 29.9906 10.4184C30.0169 10.3819 30.0355 10.3406 30.0452 10.297C30.055 10.2533 30.0557 10.2082 30.0473 10.1643L29.7556 8.06733C29.7279 7.97028 29.678 7.88066 29.6098 7.80521C29.5708 7.76087 29.5222 7.7257 29.4675 7.70232C29.4128 7.67895 29.3534 7.66796 29.2938 7.67018H27.8112C27.7547 7.66964 27.699 7.68322 27.6494 7.70962C27.5998 7.73603 27.5579 7.77439 27.5276 7.8211C27.4709 7.9323 27.4466 8.00378 27.4709 8.06733L27.7707 10.1643C27.786 10.2664 27.8343 10.361 27.9084 10.4343ZM32.6156 8.05144C32.5878 7.95439 32.5379 7.86477 32.4698 7.78932C32.4325 7.74514 32.3853 7.70999 32.3319 7.68657C32.2785 7.66315 32.2203 7.65211 32.1619 7.65429H30.6711C30.6156 7.65274 30.5607 7.66595 30.5122 7.69252C30.4637 7.71909 30.4235 7.75803 30.3957 7.80521C30.3418 7.87568 30.3184 7.96419 30.3309 8.05144L30.6306 10.1484C30.6494 10.2494 30.6972 10.3431 30.7684 10.4184C30.808 10.4619 30.8568 10.4965 30.9113 10.5198C30.9659 10.5431 31.0248 10.5546 31.0843 10.5534H32.5751C32.6305 10.5542 32.6851 10.5406 32.7334 10.5141C32.7818 10.4876 32.8222 10.4492 32.8506 10.4025C32.8788 10.367 32.8985 10.3257 32.9083 10.2817C32.9181 10.2378 32.9178 10.1922 32.9073 10.1484L32.6156 8.05144ZM26.604 11.2286L26.4581 10.196H19.2717C19.1589 10.2021 19.0497 10.2378 18.9557 10.2993C18.896 10.3312 18.8441 10.3754 18.8035 10.4289C18.763 10.4824 18.7348 10.5438 18.7208 10.6091L18.1212 12.5789C18.0973 12.6281 18.0891 12.6833 18.0978 12.7372C18.1065 12.7911 18.1316 12.8411 18.1698 12.8807C18.2381 12.9437 18.3273 12.9804 18.421 12.984H27.1549L25.0079 20.0214H16.2983C16.186 20.0239 16.0766 20.0569 15.9823 20.1167C15.8677 20.188 15.784 20.2984 15.7474 20.4265L15.1397 22.3963C15.1199 22.4469 15.1147 22.5018 15.1247 22.555C15.1347 22.6083 15.1595 22.6578 15.1964 22.6981C15.2626 22.7653 15.3524 22.8051 15.4476 22.8093H26.8875C27.0058 22.7993 27.1199 22.7612 27.2197 22.6981C27.3393 22.6322 27.4291 22.5244 27.4709 22.3963L30.7602 11.6257H27.0577C26.9989 11.6269 26.9406 11.6162 26.8862 11.5943C26.8319 11.5725 26.7827 11.5399 26.7417 11.4986C26.6747 11.4266 26.6273 11.3392 26.604 11.2445V11.2286Z" fill="white"/>
</g>
<defs>
<clipPath id="clip0_211_2517">
<rect width="38.2838" height="20.8821" fill="white" transform="translate(0.346436 6.92328)"/>
</clipPath>
</defs>
</svg>
