<svg width="34" height="35" viewBox="0 0 34 35" fill="none" xmlns="http://www.w3.org/2000/svg">
<rect x="0.246826" y="0.76532" width="33.4113" height="33.4113" rx="5.56856" fill="white"/>
<g clip-path="url(#clip0_211_2537)">
<path d="M27.002 8.90274C27.002 9.2271 27.2681 9.49005 27.5965 9.49005H28.1911C28.5195 9.49005 28.7856 9.2271 28.7856 8.90274C28.7856 8.57838 28.5195 8.31543 28.1911 8.31543H27.5965C27.2681 8.31543 27.002 8.57838 27.002 8.90274Z" fill="#212326"/>
<path d="M9.75978 27.1093H12.6481L11.8072 26.2787C11.5842 26.0584 11.2818 25.9347 10.9664 25.9347H9.75978C5.16264 25.9347 1.43594 22.2534 1.43594 17.7124C1.43594 13.1713 5.16264 9.49005 9.75978 9.49005H19.2727C23.8699 9.49005 27.5966 13.1713 27.5966 17.7124C27.5966 22.2534 23.8699 25.9347 19.2727 25.9347H15.7141C15.241 25.9347 14.7874 25.7491 14.4528 25.4187L13.4678 24.4456C12.9103 23.8948 12.1541 23.5855 11.3657 23.5855H9.75978C6.4761 23.5855 3.81418 20.956 3.81418 17.7124C3.81418 14.4687 6.4761 11.8393 9.75978 11.8393H19.2727C22.5564 11.8393 25.2183 14.4687 25.2183 17.7124C25.2183 20.956 22.5564 23.5855 19.2727 23.5855H16.9878C16.5147 23.5855 16.061 23.3998 15.7265 23.0694L14.7414 22.0963C14.1839 21.5456 13.4277 21.2362 12.6393 21.2362H9.75978C7.7896 21.2362 6.19242 19.6585 6.19242 17.7124C6.19242 15.7662 7.7896 14.1885 9.75978 14.1885H19.2727C21.2429 14.1885 22.8401 15.7662 22.8401 17.7124C22.8401 19.6348 21.2816 21.1977 19.3446 21.2355L19.3443 21.2362H18.4742C18.0011 21.2362 17.5474 21.0506 17.2129 20.7202L16.2278 19.7471C15.7703 19.2952 15.1792 19.0058 14.5461 18.9165L14.5163 18.887H9.75978C9.10305 18.887 8.57066 18.3611 8.57066 17.7124C8.57066 17.0636 9.10305 16.5378 9.75978 16.5378H19.2727C19.9295 16.5378 20.4618 17.0636 20.4618 17.7124C20.4618 18.3611 19.9295 18.887 19.2727 18.887H16.8945L17.7353 19.7176C17.9583 19.9378 18.2608 20.0616 18.5761 20.0616H19.2727C20.5862 20.0616 21.651 19.0098 21.651 17.7124C21.651 16.4149 20.5862 15.3631 19.2727 15.3631H9.75978C8.44632 15.3631 7.38154 16.4149 7.38154 17.7124C7.38154 19.0098 8.44632 20.0616 9.75978 20.0616H14.1257C14.5988 20.0616 15.0524 20.2472 15.387 20.5776L16.3721 21.5507C16.9296 22.1014 17.6857 22.4108 18.4742 22.4108H19.57V22.4018C22.0585 22.2502 24.0292 20.2086 24.0292 17.7124C24.0292 15.1175 21.8996 13.0139 19.2727 13.0139H9.75978C7.13287 13.0139 5.0033 15.1175 5.0033 17.7124C5.0033 20.3073 7.13287 22.4108 9.75978 22.4108H12.6393C13.1124 22.4108 13.566 22.5965 13.9006 22.9269L14.8857 23.9C15.4432 24.4507 16.1993 24.7601 16.9878 24.7601H19.2727C23.2131 24.7601 26.4074 21.6047 26.4074 17.7124C26.4074 13.82 23.2131 10.6647 19.2727 10.6647H9.75978C5.81937 10.6647 2.62506 13.82 2.62506 17.7124C2.62506 21.6047 5.81937 24.7601 9.75978 24.7601H11.3657C11.8387 24.7601 12.2924 24.9457 12.6269 25.2761L13.612 26.2492C14.1696 26.7999 14.9257 27.1093 15.7141 27.1093H19.2727C24.5266 27.1093 28.7857 22.9022 28.7857 17.7124C28.7857 12.5226 24.5266 8.31543 19.2727 8.31543L9.75978 8.31543C4.50592 8.31543 0.246826 12.5226 0.246826 17.7124C0.246827 22.9022 4.50592 27.1093 9.75978 27.1093Z" fill="#212326"/>
</g>
<defs>
<clipPath id="clip0_211_2537">
<rect width="28.5388" height="18.7939" fill="white" transform="translate(0.246826 8.31543)"/>
</clipPath>
</defs>
</svg>
