<svg width="34" height="35" viewBox="0 0 34 35" fill="none" xmlns="http://www.w3.org/2000/svg">
<rect x="0.296631" y="0.76532" width="33.4113" height="33.4113" rx="5.56856" fill="white"/>
<g clip-path="url(#clip0_211_2521)">
<path d="M30.9211 10.1006C30.9211 10.1241 30.9211 10.1536 30.915 10.1712C30.8844 10.4007 30.8844 10.6302 30.9027 10.8656C30.915 10.9244 30.9273 10.9832 30.9763 11.0303C31.056 11.1186 31.1786 11.1009 31.2277 10.995C31.2522 10.9421 31.2522 10.8891 31.2399 10.8361C31.1786 10.6125 31.1664 10.3772 31.1602 10.1477C31.1602 10.1359 31.1602 10.1183 31.1602 10.1006C31.2277 10.0947 31.289 10.0888 31.3441 10.0888C31.3871 10.083 31.4239 10.0771 31.4545 10.0594C31.5465 10.0124 31.5465 9.91232 31.4484 9.86524C31.4116 9.84759 31.3626 9.84171 31.3197 9.84171C31.1664 9.84759 31.0131 9.84759 30.8598 9.84759C30.8047 9.84759 30.7495 9.85348 30.6943 9.85936C30.6636 9.86524 30.6268 9.86524 30.6024 9.8829C30.5594 9.90055 30.5349 9.92997 30.5349 9.97116C30.541 10.0124 30.5594 10.0359 30.6024 10.0535C30.6268 10.0712 30.6575 10.0771 30.6882 10.0771C30.7617 10.083 30.8415 10.0947 30.9211 10.1006ZM32.6071 10.3713C32.6071 10.3772 32.6132 10.3831 32.6132 10.3831C32.6378 10.5419 32.6623 10.6949 32.6807 10.8479C32.6868 10.9009 32.693 10.9479 32.7297 10.9891C32.8094 11.0892 32.9321 11.0774 32.9872 10.9715C33.0117 10.9185 33.0179 10.8656 33.0056 10.8067C32.9688 10.6302 32.9504 10.4537 32.9136 10.283C32.8891 10.1771 32.8585 10.0771 32.8278 9.98293C32.8094 9.92409 32.7665 9.88289 32.693 9.87701C32.6194 9.86525 32.5642 9.90055 32.5335 9.95351C32.4968 10.0006 32.4661 10.0477 32.4416 10.1006C32.3987 10.1948 32.3619 10.2889 32.3128 10.3772C32.3067 10.4007 32.3006 10.4184 32.2883 10.436C32.2822 10.4242 32.2761 10.4184 32.2761 10.4184C32.1963 10.2713 32.1228 10.1241 32.0431 9.98293C32.0308 9.97116 32.0247 9.95939 32.0185 9.94762C31.9818 9.89467 31.9389 9.86524 31.8714 9.86524C31.8101 9.87113 31.761 9.90643 31.7304 9.95939C31.7181 9.98293 31.7181 10.0006 31.712 10.0241C31.6875 10.2124 31.6568 10.4007 31.6323 10.589C31.62 10.6949 31.6139 10.8008 31.6139 10.9067C31.6078 10.9303 31.6139 10.9597 31.6262 10.9832C31.6384 11.0303 31.6752 11.0597 31.7243 11.0656C31.7856 11.0715 31.8285 11.0539 31.8469 11.0068C31.8653 10.9715 31.8714 10.9421 31.8775 10.9126C31.9021 10.8067 31.9204 10.7067 31.9389 10.6067C31.9511 10.5478 31.9572 10.5007 31.9756 10.436C31.9879 10.4595 32.0001 10.4772 32.0124 10.4949C32.0676 10.5655 32.1228 10.6361 32.1902 10.6949C32.2577 10.742 32.3128 10.7361 32.368 10.6831C32.3803 10.6714 32.3864 10.6655 32.3987 10.6537C32.4538 10.5713 32.5213 10.489 32.5764 10.4066C32.5887 10.3948 32.5949 10.3831 32.6071 10.3713Z" fill="#3A3B7B"/>
<path d="M18.4809 10.2162C18.4383 10.328 18.4302 10.4086 18.4499 10.4756C18.4716 10.5666 18.528 10.5964 18.6046 10.5733C19.3247 10.4024 20.9037 10.8875 21.4884 11.0227C21.6262 11.0511 21.7384 10.8802 21.6443 10.7271C21.507 10.5788 19.9286 9.94375 19.3264 9.90913C19.0903 9.89632 18.6683 9.83822 18.4809 10.2162Z" fill="#3A3B7B"/>
<path d="M24.6522 8.16055C24.729 8.20307 24.7719 8.24362 24.7931 8.28894C24.8246 8.34838 24.808 8.3895 24.755 8.41048C24.279 8.63346 23.6456 9.5934 23.3899 9.92447C23.3279 10.0006 23.1849 9.95638 23.1633 9.83113C23.1678 9.68952 23.7293 8.64777 24.0426 8.36403C24.1658 8.25325 24.3692 8.03589 24.6522 8.16055Z" fill="#3A3B7B"/>
<path d="M20.8617 7.68805C20.9539 7.62135 21.0497 7.59798 21.0986 7.64132C21.8168 8.23082 22.1977 9.16435 22.4335 10.019C22.4424 10.0389 22.443 10.0675 22.4359 10.0973C22.4329 10.1227 22.4135 10.1496 22.3827 10.1705C22.3498 10.1935 22.3215 10.2005 22.3082 10.1806C21.9934 9.76974 20.1956 8.17096 20.8617 7.68805Z" fill="#3A3B7B"/>
<path d="M5.65305 17.9085C5.82518 17.7855 6.01232 17.6831 6.21034 17.6036C6.41752 17.5468 6.63835 17.5562 6.83945 17.6305C7.04051 17.7048 7.21096 17.8399 7.3249 18.0155C7.42683 18.1905 7.4667 18.3927 7.43856 18.5914C7.41043 18.7901 7.31578 18.9747 7.16885 19.1173C7.05495 19.2329 6.92563 19.3336 6.78435 19.4168C6.15463 19.8073 5.5193 20.1763 4.884 20.5668C4.754 20.6645 4.6161 20.7522 4.4716 20.8289C4.25182 20.9341 4.00064 20.9623 3.7615 20.9085C3.52236 20.8549 3.3103 20.7226 3.16198 20.5347C3.05111 20.4017 2.95754 20.2562 2.88334 20.1015C2.28147 18.8873 1.65731 17.6785 1.07774 16.4429C0.810237 15.9081 0.592897 15.293 0.381129 14.6993C0.289508 14.5268 0.271617 14.3268 0.331264 14.1418C0.390912 13.9568 0.523392 13.8015 0.700525 13.7088C0.877659 13.6162 1.08547 13.5935 1.27976 13.6456C1.47405 13.6977 1.63949 13.8205 1.7409 13.9879C2.05261 14.3855 2.32853 14.8078 2.56569 15.2502C3.16755 16.3199 3.74156 17.3897 4.32114 18.4273C4.35488 18.4847 4.3921 18.54 4.43259 18.5931C4.86882 18.4171 5.27912 18.1869 5.65305 17.9085Z" fill="#3A3B7B"/>
<path d="M11.8761 17.5353C10.4996 19.0811 8.19242 18.6906 7.03327 16.7009C6.20847 15.2888 6.06359 12.9568 7.85807 11.4859C8.24126 11.178 8.69946 10.9682 9.18995 10.8762C9.79135 10.7934 10.4046 10.8952 10.9421 11.1671C11.4796 11.439 11.9137 11.8669 12.1826 12.3899C13.1634 14.1014 13.0241 16.2837 11.8761 17.5353ZM11.3188 13.9303C11.1725 13.5097 10.8792 13.1506 10.4884 12.914C10.2673 12.7627 9.99863 12.6892 9.72765 12.7058C9.45663 12.7223 9.19986 12.828 9.00049 13.0049C8.20359 13.6842 8.03637 15.2942 8.61594 16.2516C8.68983 16.4077 8.79831 16.5465 8.93389 16.6581C9.06947 16.7698 9.22884 16.8517 9.40083 16.898C9.57282 16.9444 9.75326 16.9541 9.9296 16.9266C10.1059 16.899 10.2738 16.8347 10.4216 16.7383C10.8536 16.4169 11.1705 15.9742 11.3283 15.472C11.4861 14.9697 11.4769 14.4327 11.3021 13.9356L11.3188 13.9303Z" fill="#3A3B7B"/>
<path d="M17.4934 14.6042C17.3525 14.6333 17.2069 14.6351 17.0653 14.6093C16.9236 14.5836 16.7888 14.531 16.6687 14.4545C16.5635 14.3968 16.4731 14.3175 16.4037 14.2222C16.3344 14.1269 16.2879 14.0181 16.2677 13.9035C16.2474 13.7889 16.2539 13.6715 16.2866 13.5596C16.3193 13.4477 16.3775 13.3441 16.4569 13.2564C16.5952 13.08 16.7916 12.9538 17.0142 12.898C17.5952 12.7362 18.1934 12.6375 18.7975 12.6038C18.9302 12.589 19.0647 12.5998 19.193 12.6355C19.3213 12.6713 19.4409 12.7313 19.5447 12.812C19.6485 12.8927 19.7345 12.9926 19.7976 13.1056C19.8606 13.2186 19.8996 13.3427 19.912 13.4703C20.0862 14.0975 20.1053 14.755 19.9678 15.3905C19.4662 17.4444 17.7386 18.1504 15.7993 17.4925C15.2549 17.3166 14.7776 16.9889 14.4284 16.5512C13.9626 16.024 13.6324 15.3993 13.4642 14.7273C13.3281 14.1288 13.343 13.5078 13.5078 12.916C13.6726 12.3243 13.9825 11.7789 14.4116 11.3255C14.8189 10.8327 15.3475 10.4449 15.9498 10.1969C16.3303 9.99559 16.7757 9.93834 17.1981 10.0365C17.2939 10.0619 17.3809 10.1115 17.45 10.1801C17.5191 10.2487 17.5679 10.3338 17.5912 10.4265C17.6145 10.5193 17.6115 10.6164 17.5826 10.7077C17.5536 10.799 17.4998 10.8812 17.4266 10.9457C17.2874 11.0666 17.1362 11.1741 16.9751 11.2667C16.4797 11.5695 16.0486 11.9597 15.7045 12.4166C15.479 12.7123 15.3237 13.0518 15.2496 13.4113C15.1754 13.7707 15.1843 14.1414 15.2755 14.4973C15.4018 14.9825 15.6823 15.418 16.0779 15.7435C17.3039 16.8133 18.8978 15.7809 18.6191 14.3208C18.2123 14.4171 17.8557 14.5187 17.4934 14.6042Z" fill="#3A3B7B"/>
<path d="M24.9834 17.6209C23.1722 18.6907 21.1103 17.6209 20.6589 15.3745C20.3301 13.7699 20.9542 11.5234 23.1388 10.6676C23.6036 10.4894 24.1077 10.4269 24.6045 10.4857C25.2012 10.5906 25.7487 10.8726 26.1696 11.2919C26.5905 11.7113 26.8637 12.2468 26.9506 12.8231C27.3184 14.7326 26.4825 16.7705 24.9834 17.6209ZM25.6132 14.0212C25.6126 13.5769 25.4488 13.1469 25.1506 12.8071C24.9912 12.5969 24.7607 12.4463 24.4986 12.3809C24.2363 12.3156 23.9587 12.3395 23.7128 12.4487C22.732 12.8552 22.0409 14.3314 22.2917 15.4173C22.3109 15.5877 22.3686 15.752 22.4608 15.8988C22.553 16.0455 22.6775 16.1712 22.8256 16.267C22.9736 16.3627 23.1418 16.4263 23.3181 16.4532C23.4945 16.4801 23.6748 16.4697 23.8465 16.4228C24.365 16.249 24.8139 15.9241 25.1306 15.4936C25.4473 15.063 25.616 14.5483 25.6132 14.0212Z" fill="#3A3B7B"/>
<path d="M28.7823 18.0702C28.7549 18.266 28.6477 18.4433 28.4841 18.5632C28.3206 18.683 28.1141 18.7356 27.9101 18.7094C27.7062 18.6831 27.5214 18.5802 27.3965 18.4232C27.2716 18.2662 27.2168 18.0681 27.2442 17.8723C27.2715 17.6765 27.3788 17.4992 27.5423 17.3793C27.7059 17.2595 27.9124 17.2069 28.1163 17.2331C28.3203 17.2594 28.505 17.3623 28.63 17.5193C28.7548 17.6763 28.8097 17.8744 28.7823 18.0702ZM28.2974 10.8548C28.4034 10.6994 28.5589 10.5811 28.7407 10.5175C28.9225 10.4539 29.1208 10.4484 29.3061 10.5018C29.4945 10.547 29.661 10.653 29.7777 10.802C29.8943 10.951 29.9541 11.1339 29.947 11.3201C29.9224 11.6189 29.8759 11.9156 29.8077 12.208C29.6238 13.1975 29.4455 14.187 29.2504 15.1659C29.1613 15.5563 29.0442 15.9307 28.916 16.3265C28.8714 16.4502 28.7969 16.562 28.6987 16.6528C28.6376 16.721 28.5596 16.7734 28.4719 16.805C28.3841 16.8367 28.2894 16.8465 28.1967 16.8337C28.1039 16.8209 28.0159 16.7859 27.941 16.7318C27.8661 16.6777 27.8066 16.6064 27.7681 16.5244C27.7018 16.3773 27.6658 16.2193 27.6621 16.0591C27.6621 15.3958 27.6621 14.7273 27.7067 14.0587C27.7825 13.1045 27.9315 12.157 28.1526 11.2239C28.1786 11.0988 28.2276 10.9793 28.2974 10.8708V10.8548Z" fill="#3A3B7B"/>
<path fill-rule="evenodd" clip-rule="evenodd" d="M3.29842 22.3683C3.23262 22.5093 3.21458 22.6665 3.24673 22.8177C3.26812 23.0171 3.3151 23.2132 3.38661 23.4016C3.47589 23.6323 3.57578 23.8604 3.69896 24.1415C3.72729 24.2062 3.75689 24.2737 3.78787 24.3448C3.95398 24.7257 4.1624 25.2124 4.44041 25.9169C4.5191 26.117 4.58898 26.3188 4.65934 26.5219C4.68777 26.604 4.71629 26.6863 4.74549 26.7689C4.85017 27.0623 5.03027 27.3259 5.269 27.5348C5.37037 27.6497 5.50483 27.7333 5.6556 27.7752C5.80931 27.8178 5.97279 27.8151 6.12487 27.7674C6.27695 27.7197 6.41052 27.6291 6.50825 27.5075C6.60406 27.3882 6.66103 27.2446 6.67211 27.0944C6.73427 26.802 6.71305 26.4988 6.6106 26.2169C6.44801 25.7488 6.26279 25.28 6.04921 24.8215L6.04823 24.8195C5.69686 24.1022 5.33971 23.3898 4.96565 22.6772L4.96285 22.6722C4.85335 22.4865 4.71104 22.3205 4.54232 22.1817C4.43279 22.0578 4.28171 21.9742 4.11486 21.9454C3.94446 21.916 3.76871 21.9456 3.619 22.029C3.47737 22.1067 3.3651 22.2254 3.29842 22.3683Z" fill="#3A3B7B"/>
<path fill-rule="evenodd" clip-rule="evenodd" d="M8.66494 20.6019C8.11401 20.465 7.53865 20.445 6.97893 20.5435C6.54541 20.5845 6.11904 20.6804 5.82296 20.8706C5.67238 20.9673 5.55063 21.0915 5.48291 21.2495C5.41482 21.4082 5.40612 21.5898 5.46193 21.7921C5.56381 22.1627 5.69612 22.5231 5.82796 22.8822L5.84932 22.9404L5.84984 22.9417C6.24681 23.9851 6.64758 25.025 7.05198 26.0613C7.09914 26.2247 7.16583 26.3822 7.2507 26.5308L7.25229 26.5336C7.36441 26.7182 7.50822 26.8833 7.67764 27.022C7.76237 27.0982 7.86715 27.151 7.98077 27.1746C8.09551 27.1983 8.21482 27.1914 8.32573 27.1545C8.43668 27.1177 8.53492 27.0523 8.60979 26.9655C8.68345 26.8802 8.73168 26.7773 8.74939 26.6678C8.82249 26.3705 8.79907 26.0587 8.68223 25.7745C8.64578 25.6788 8.61718 25.581 8.58703 25.4781C8.57698 25.4438 8.56679 25.4089 8.55604 25.3734C9.48175 25.0261 10.4667 24.5591 10.8131 23.4727C10.9487 23.0973 10.96 22.6908 10.8454 22.3089C10.7307 21.9266 10.4954 21.5878 10.1719 21.339C9.7316 20.9908 9.21727 20.7392 8.66494 20.6019ZM7.13784 21.9344C7.15606 21.9294 7.17443 21.9247 7.19285 21.9204C7.79551 21.8294 8.4121 21.9506 8.92909 22.2615C9.15693 22.4135 9.25026 22.5825 9.26629 22.7451C9.28284 22.9125 9.21942 23.0939 9.09201 23.2683C8.85128 23.5977 8.41196 23.8613 8.01512 23.9105C7.72582 23.271 7.43204 22.6057 7.13784 21.9344Z" fill="#3A3B7B"/>
<path d="M12.3379 19.4315C12.994 19.1407 13.8067 19.0905 14.4426 19.295C14.6028 19.3397 14.7417 19.4366 14.8357 19.5689C14.9291 19.7005 14.9722 19.859 14.9578 20.0174C14.9568 20.1203 14.9305 20.2215 14.881 20.3128C14.8306 20.4057 14.7577 20.4857 14.6683 20.5459C14.579 20.606 14.4758 20.6447 14.3676 20.6585C14.2594 20.6723 14.1493 20.661 14.0466 20.6253L14.0388 20.6226L14.0315 20.6189C13.979 20.5925 13.9232 20.5727 13.8654 20.5597L13.8618 20.5589C13.4144 20.4449 12.9925 20.6339 12.8383 20.866C12.7648 20.9767 12.7557 21.0885 12.8169 21.1902C12.8825 21.299 13.0433 21.4212 13.3687 21.5083C13.4582 21.5319 13.55 21.5546 13.643 21.5777C13.9004 21.6417 14.1678 21.7081 14.4264 21.8002L14.4274 21.8006C15.6203 22.2362 16.0646 23.1385 15.9125 23.9871C15.762 24.8263 15.0318 25.5901 13.9336 25.7703C13.534 25.8553 13.1182 25.8387 12.7272 25.7222C12.3353 25.6054 11.982 25.3922 11.7025 25.1037L11.6952 25.0962C11.607 24.9875 11.5476 24.8598 11.5213 24.7244C11.4971 24.6021 11.5099 24.4758 11.558 24.3602C11.6058 24.2453 11.6868 24.1459 11.7913 24.0735C11.9016 23.9913 12.0346 23.9421 12.1738 23.9318C12.3126 23.9216 12.4514 23.9505 12.5733 24.015C12.695 24.0714 12.8082 24.1434 12.9098 24.229L12.9117 24.2306C13.0914 24.3884 13.3089 24.4295 13.5174 24.3914C13.729 24.3528 13.928 24.2326 14.0559 24.0732C14.1831 23.9148 14.2341 23.7266 14.1735 23.5439C14.1126 23.3599 13.9293 23.1537 13.5267 22.9813C13.4215 22.9385 13.3123 22.9039 13.1988 22.8702C13.1682 22.8611 13.1371 22.8521 13.1056 22.8429C13.0216 22.8184 12.9353 22.7933 12.8506 22.7655C12.7922 22.7464 12.7344 22.7283 12.6771 22.7104C12.5205 22.6614 12.3678 22.6137 12.2208 22.5497C11.901 22.4452 11.6247 22.2446 11.4331 21.9774C11.2406 21.7092 11.1438 21.3885 11.1569 21.0631C11.158 20.2702 11.6783 19.724 12.3379 19.4315Z" fill="#3A3B7B"/>
<path d="M20.6558 19.3471C20.5286 19.2874 20.3879 19.2591 20.2465 19.2647C20.105 19.2703 19.9672 19.3095 19.8456 19.379C19.7247 19.448 19.6234 19.5447 19.5509 19.6603C19.4844 19.7577 19.4384 19.8666 19.4154 19.981C19.3925 20.0953 19.393 20.2127 19.417 20.3267C19.4407 20.4733 19.467 20.6157 19.4929 20.7563C19.5359 20.9888 19.5776 21.2161 19.6052 21.4479L19.6062 21.4538C19.669 21.8173 19.7019 22.1849 19.7048 22.5533L19.7051 22.5585C19.7265 22.9564 19.5853 23.3465 19.3117 23.646L19.3073 23.6514C19.2183 23.7609 19.0992 23.8445 18.9635 23.8928C18.8278 23.9411 18.6807 23.9522 18.5388 23.9248C18.3968 23.8975 18.2657 23.8328 18.1598 23.738C18.054 23.6431 17.9777 23.5216 17.9396 23.3876C17.8583 23.1051 17.8112 22.8146 17.7993 22.5218L17.9382 20.3993C17.9402 20.3716 17.9426 20.3432 17.945 20.3145C17.9502 20.25 17.9557 20.1844 17.9579 20.1231C17.9612 20.033 17.9584 19.9403 17.9365 19.8526C17.9141 19.763 17.8715 19.6777 17.796 19.6051C17.7212 19.5332 17.6203 19.4801 17.4933 19.444C17.2635 19.3802 17.0693 19.3822 16.9075 19.4482C16.7455 19.5141 16.6346 19.6365 16.5561 19.7779C16.4781 19.9181 16.4281 20.0841 16.3902 20.2503C16.3621 20.3737 16.3396 20.5032 16.3181 20.6265C16.3107 20.669 16.3034 20.7107 16.2961 20.7512L16.2959 20.7524C16.1811 21.4284 16.147 22.1148 16.1941 22.7983C16.2029 23.1677 16.2831 23.5323 16.4308 23.8734C16.5974 24.3137 16.8992 24.6951 17.2963 24.9674C17.6943 25.2402 18.1691 25.3906 18.6581 25.3985C19.1471 25.4064 19.627 25.2716 20.0343 25.0119C20.441 24.7525 20.7562 24.3809 20.9382 23.946C21.1928 23.392 21.3123 22.7896 21.2877 22.1845C21.2727 21.7428 21.2477 21.2977 21.2227 20.8549C21.2105 20.6376 21.1983 20.4209 21.1874 20.2054C21.1818 19.9894 21.1076 19.7801 20.9746 19.6058C20.8923 19.4955 20.7828 19.4066 20.6558 19.3471Z" fill="#3A3B7B"/>
<path d="M25.1584 22.675C25.1455 22.6908 25.1319 22.707 25.1177 22.724C25.0142 22.1511 24.9183 21.5783 24.8223 21.0047C24.7878 20.7989 24.7532 20.5922 24.7184 20.3862L24.7145 20.3632L24.7018 20.3433C24.6778 20.3059 24.6754 20.2693 24.6754 20.1911V20.182L24.6739 20.1731C24.648 20.0117 24.5719 19.8614 24.4556 19.742C24.3397 19.623 24.1892 19.5401 24.0236 19.5042C23.8583 19.465 23.6846 19.4737 23.5243 19.529C23.3645 19.5842 23.2252 19.6834 23.1238 19.8141C23.0394 19.9144 22.9703 20.0257 22.9185 20.1447C22.801 20.4008 22.6824 20.6577 22.5635 20.9152L22.5615 20.9196C22.2647 21.5625 21.9658 22.2097 21.6757 22.862L21.6748 22.8641C21.4967 23.287 21.3497 23.7327 21.2031 24.177C21.1739 24.2656 21.1446 24.3543 21.1151 24.4427C21.0622 24.5829 21.0391 24.7318 21.047 24.8807C21.0374 25.0139 21.0706 25.1469 21.1423 25.2615C21.2154 25.3785 21.3249 25.4706 21.4554 25.5247C21.5936 25.5829 21.7482 25.5952 21.8946 25.5598C22.0407 25.5245 22.1704 25.4435 22.2634 25.3298C22.3821 25.1896 22.4842 25.0367 22.5675 24.8748C22.8133 24.3923 23.0482 23.9038 23.282 23.4175C23.3725 23.2294 23.4604 23.061 23.5604 22.8775C23.5673 22.9001 23.5743 22.9222 23.5815 22.9443C23.6864 23.3873 23.8633 23.8115 24.1058 24.2016C24.1517 24.2842 24.2157 24.3564 24.2932 24.4133C24.3717 24.4708 24.4624 24.5112 24.5588 24.5317C24.6552 24.5522 24.7551 24.5523 24.8516 24.5319C24.9479 24.5117 25.0388 24.4713 25.1174 24.414L25.2729 24.3023L26.4797 23.3266L26.4084 23.7631C26.3104 24.3632 26.2132 24.9582 26.1099 25.5534C26.0423 25.8172 26.0424 26.0927 26.1102 26.3564C26.1395 26.5048 26.2143 26.6414 26.325 26.7489C26.4366 26.8572 26.5795 26.9308 26.7352 26.9601C26.891 26.9895 27.0523 26.9732 27.1983 26.9134C27.3421 26.8546 27.4645 26.7561 27.55 26.6307C27.749 26.3937 27.8728 26.1068 27.9069 25.8042C27.9581 25.3768 28.016 24.9436 28.0739 24.5105C28.1405 24.0113 28.2072 23.5122 28.2636 23.0228L28.2637 23.0213C28.318 22.4855 28.3442 21.9475 28.3424 21.4091C28.3542 21.239 28.3101 21.0695 28.2161 20.9247C28.1217 20.7794 27.982 20.6664 27.8168 20.6017C27.645 20.5268 27.4527 20.5067 27.2681 20.5446C27.0848 20.5822 26.9188 20.675 26.7943 20.8094C26.5717 21.007 26.3629 21.2184 26.1692 21.4423L26.1679 21.4439C25.9564 21.6968 25.7464 21.9547 25.5377 22.2109C25.4108 22.3666 25.2843 22.522 25.1584 22.675Z" fill="#3A3B7B"/>
</g>
<defs>
<clipPath id="clip0_211_2521">
<rect width="32.7153" height="20.186" fill="white" transform="translate(0.296631 7.61935)"/>
</clipPath>
</defs>
</svg>
