<svg width="37" height="35" viewBox="0 0 37 35" fill="none" xmlns="http://www.w3.org/2000/svg">
<rect x="0.197021" y="0.76532" width="33.4113" height="33.4113" rx="5.56856" fill="white"/>
<g clip-path="url(#clip0_211_2541)">
<path d="M8.7887 10.4036C7.37517 10.4036 6.01955 10.9651 5.02004 11.9647L1.75805 15.2266C0.758541 16.2262 0.197021 17.5818 0.197021 18.9953C0.197021 21.9388 2.58321 24.325 5.52673 24.325C6.94026 24.325 8.29588 23.7635 9.29539 22.764L11.5517 20.5076C11.5517 20.5076 11.5518 20.5077 11.5517 20.5076L18.1259 13.9334C18.6033 13.4561 19.2507 13.1879 19.9258 13.1879C21.056 13.1879 22.0142 13.9245 22.3465 14.9439L24.4213 12.8691C23.4747 11.3866 21.8151 10.4036 19.9258 10.4036C18.5123 10.4036 17.1567 10.9651 16.1572 11.9647L7.32663 20.7952C6.84926 21.2726 6.20183 21.5407 5.52673 21.5407C4.12092 21.5407 2.9813 20.4011 2.9813 18.9953C2.9813 18.3202 3.24948 17.6728 3.72684 17.1954L6.9888 13.9334C7.46617 13.4561 8.11361 13.1879 8.7887 13.1879C9.91898 13.1879 10.8771 13.9246 11.2094 14.944L13.2842 12.8691C12.3377 11.3867 10.678 10.4036 8.7887 10.4036Z" fill="#394149"/>
<path d="M18.4639 20.7952C17.9865 21.2726 17.3391 21.5407 16.664 21.5407C15.5339 21.5407 14.5758 20.8043 14.2435 19.7851L12.1687 21.8599C13.1153 23.3421 14.7748 24.325 16.664 24.325C18.0775 24.325 19.4331 23.7635 20.4326 22.764L29.2631 13.9334C29.7405 13.4561 30.3879 13.1879 31.063 13.1879C32.4689 13.1879 33.6085 14.3275 33.6085 15.7333C33.6085 16.4084 33.3403 17.0559 32.8629 17.5332L29.601 20.7952C29.1236 21.2726 28.4762 21.5407 27.8011 21.5407C26.6709 21.5407 25.7127 20.8042 25.3805 19.7849L23.3057 21.8597C24.2522 23.3421 25.9118 24.325 27.8011 24.325C29.2146 24.325 30.5702 23.7635 31.5697 22.764L34.8317 19.502C35.8312 18.5025 36.3928 17.1469 36.3928 15.7333C36.3928 12.7898 34.0066 10.4036 31.063 10.4036C29.6495 10.4036 28.2939 10.9651 27.2944 11.9647L18.4639 20.7952Z" fill="#394149"/>
</g>
<defs>
<clipPath id="clip0_211_2541">
<rect width="36.1956" height="13.9214" fill="white" transform="translate(0.197021 10.4036)"/>
</clipPath>
</defs>
</svg>
