<svg width="34" height="35" viewBox="0 0 34 35" fill="none" xmlns="http://www.w3.org/2000/svg">
<rect x="0.39624" y="0.76532" width="33.4113" height="33.4113" rx="5.56856" fill="white"/>
<g clip-path="url(#clip0_211_2514)">
<path fill-rule="evenodd" clip-rule="evenodd" d="M7.42516 10.4834L0.474365 17.3643C1.86465 18.7407 3.45284 19.9006 5.18442 20.8081C5.66303 22.0649 6.41325 23.2435 7.43506 24.2551C11.2794 28.0607 17.5122 28.0607 21.3564 24.2551C22.3783 23.2435 23.1285 22.0649 23.6071 20.808C25.3387 19.9006 26.9269 18.7407 28.3171 17.3643L21.372 10.489C21.3668 10.4839 21.3617 10.4787 21.3564 10.4736C17.5122 6.66794 11.2794 6.66794 7.43506 10.4736C7.43177 10.4769 7.42846 10.4801 7.42516 10.4834ZM20.6914 22.0495C18.6658 22.7262 16.5394 23.0728 14.3958 23.0728C12.2521 23.0728 10.1258 22.7262 8.10022 22.0495C8.31969 22.3377 8.562 22.6144 8.8272 22.8769C11.9026 25.9215 16.8889 25.9215 19.9643 22.8769C20.2295 22.6144 20.4719 22.3377 20.6914 22.0495ZM8.96996 11.7139C9.49222 12.0555 10.0475 12.3478 10.6286 12.5861C11.8229 13.0758 13.103 13.3278 14.3958 13.3278C15.6885 13.3278 16.9686 13.0758 18.1629 12.5861C18.744 12.3478 19.2993 12.0555 19.8216 11.7139C16.7845 8.85316 12.007 8.85316 8.96996 11.7139Z" fill="#3B4158"/>
</g>
<defs>
<clipPath id="clip0_211_2514">
<rect width="27.8428" height="19.4899" fill="white" transform="translate(0.474365 7.61935)"/>
</clipPath>
</defs>
</svg>
