<svg width="47" height="40" viewBox="0 0 47 40" fill="none" xmlns="http://www.w3.org/2000/svg">
<path d="M46.23 27.4136C46.23 34.3333 40.6204 39.9429 33.7007 39.9429L14.9069 39.9429C12.9847 39.9429 11.4265 38.3847 11.4265 36.4625L11.4265 12.7962C11.4265 8.95187 14.5429 5.83547 18.3872 5.83547L42.7496 5.83547C44.6718 5.83547 46.23 7.39367 46.23 9.31581L46.23 27.4136Z" fill="#E8F5E9"/>
<path d="M19.7211 14.1959C19.504 14.1959 19.3274 14.0196 19.3274 13.8022V13.133C19.3274 12.9158 19.5037 12.7393 19.7211 12.7393C19.9383 12.7393 20.1149 12.9155 20.1149 13.133V13.8022C20.1149 14.0196 19.9383 14.1959 19.7211 14.1959Z" fill="#103E13"/>
<path d="M18.0656 14.1959C17.8484 14.1959 17.6719 14.0196 17.6719 13.8022V13.133C17.6719 12.9158 17.8482 12.7393 18.0656 12.7393C18.2828 12.7393 18.4594 12.9155 18.4594 13.133V13.8022C18.4591 14.0196 18.2831 14.1959 18.0656 14.1959Z" fill="#103E13"/>
<path d="M16.4104 14.1959C16.1932 14.1959 16.0166 14.0196 16.0166 13.8022V13.133C16.0166 12.9158 16.1929 12.7393 16.4104 12.7393C16.6275 12.7393 16.8041 12.9155 16.8041 13.133V13.8022C16.8041 14.0196 16.6278 14.1959 16.4104 14.1959Z" fill="#103E13"/>
<path d="M19.7211 16.9323C19.504 16.9323 19.3274 16.756 19.3274 16.5386V15.8697C19.3274 15.6525 19.5037 15.476 19.7211 15.476C19.9383 15.476 20.1149 15.6522 20.1149 15.8697V16.5386C20.1149 16.756 19.9383 16.9323 19.7211 16.9323Z" fill="#103E13"/>
<path d="M18.0656 16.9323C17.8484 16.9323 17.6719 16.756 17.6719 16.5386V15.8697C17.6719 15.6525 17.8482 15.476 18.0656 15.476C18.2828 15.476 18.4594 15.6522 18.4594 15.8697V16.5386C18.4591 16.756 18.2831 16.9323 18.0656 16.9323Z" fill="#103E13"/>
<path d="M16.4104 16.9323C16.1932 16.9323 16.0166 16.756 16.0166 16.5386V15.8697C16.0166 15.6525 16.1929 15.476 16.4104 15.476C16.6275 15.476 16.8041 15.6522 16.8041 15.8697V16.5386C16.8041 16.756 16.6278 16.9323 16.4104 16.9323Z" fill="#103E13"/>
<path d="M19.7211 19.6687C19.504 19.6687 19.3274 19.4924 19.3274 19.2749V18.6058C19.3274 18.3886 19.5037 18.212 19.7211 18.212C19.9383 18.212 20.1149 18.3883 20.1149 18.6058V19.2749C20.1149 19.4924 19.9383 19.6687 19.7211 19.6687Z" fill="#103E13"/>
<path d="M18.0656 19.6687C17.8484 19.6687 17.6719 19.4924 17.6719 19.2749V18.6058C17.6719 18.3886 17.8482 18.212 18.0656 18.212C18.2828 18.212 18.4594 18.3883 18.4594 18.6058V19.2749C18.4591 19.4924 18.2831 19.6687 18.0656 19.6687Z" fill="#103E13"/>
<path d="M16.4104 19.6687C16.1932 19.6687 16.0166 19.4924 16.0166 19.2749V18.6058C16.0166 18.3886 16.1929 18.212 16.4104 18.212C16.6275 18.212 16.8041 18.3883 16.8041 18.6058V19.2749C16.8041 19.4924 16.6278 19.6687 16.4104 19.6687Z" fill="#103E13"/>
<path d="M19.7211 22.4045C19.504 22.4045 19.3274 22.2282 19.3274 22.0108V21.3416C19.3274 21.1244 19.5037 20.9479 19.7211 20.9479C19.9383 20.9479 20.1149 21.1242 20.1149 21.3416V22.0108C20.1149 22.2282 19.9383 22.4045 19.7211 22.4045Z" fill="#103E13"/>
<path d="M18.0656 22.4045C17.8484 22.4045 17.6719 22.2282 17.6719 22.0108V21.3416C17.6719 21.1244 17.8482 20.9479 18.0656 20.9479C18.2828 20.9479 18.4594 21.1242 18.4594 21.3416V22.0108C18.4591 22.2282 18.2831 22.4045 18.0656 22.4045Z" fill="#103E13"/>
<path d="M16.4104 22.4045C16.1932 22.4045 16.0166 22.2282 16.0166 22.0108V21.3416C16.0166 21.1244 16.1929 20.9479 16.4104 20.9479C16.6275 20.9479 16.8041 21.1242 16.8041 21.3416V22.0108C16.8041 22.2282 16.6278 22.4045 16.4104 22.4045Z" fill="#103E13"/>
<path d="M19.7211 25.1409C19.504 25.1409 19.3274 24.9647 19.3274 24.7472V24.0783C19.3274 23.8611 19.5037 23.6846 19.7211 23.6846C19.9383 23.6846 20.1149 23.8609 20.1149 24.0783V24.7472C20.1149 24.9644 19.9383 25.1409 19.7211 25.1409Z" fill="#103E13"/>
<path d="M18.0656 25.1409C17.8484 25.1409 17.6719 24.9647 17.6719 24.7472V24.0783C17.6719 23.8611 17.8482 23.6846 18.0656 23.6846C18.2828 23.6846 18.4594 23.8609 18.4594 24.0783V24.7472C18.4591 24.9644 18.2831 25.1409 18.0656 25.1409Z" fill="#103E13"/>
<path d="M16.4104 25.1409C16.1932 25.1409 16.0166 24.9647 16.0166 24.7472L16.0169 24.0783C16.0169 23.8611 16.1932 23.6846 16.4106 23.6846C16.6278 23.6846 16.8044 23.8609 16.8044 24.0783V24.7472C16.8041 24.9644 16.6278 25.1409 16.4104 25.1409Z" fill="#103E13"/>
<path d="M5.1622 27.8641C5.1622 28.0813 5.33847 28.2579 5.55594 28.2579H29.534C29.7512 28.2579 29.9277 28.0816 29.9277 27.8641C29.9277 27.6469 29.7514 27.4704 29.534 27.4704H28.8061V16.1653C28.8061 15.9481 28.6298 15.7716 28.4124 15.7716L21.9837 15.7718V7.62147C21.9837 7.48364 21.9117 7.35623 21.7942 7.28484C21.6769 7.21317 21.5303 7.20878 21.4084 7.2722L14.0994 11.0776C13.969 11.1454 13.8877 11.28 13.8877 11.4269V18.5461H6.81425C6.59706 18.5461 6.4205 18.7223 6.4205 18.9398V27.4704H5.55507C5.33788 27.4702 5.16187 27.6464 5.16187 27.8639L5.1622 27.8641ZM21.9838 21.7353H28.019V27.4707L21.9838 27.4704V21.7353ZM21.9838 18.9991H28.019V20.9481L21.9838 20.9478V18.9991ZM21.9838 16.5589H28.019V18.2122H21.9838V16.5589ZM14.6748 11.666L21.196 8.2705V27.4701H14.6748V11.666ZM9.15443 24.3256C9.15443 23.5084 9.80189 22.8434 10.5979 22.8434C11.3939 22.8434 12.0416 23.5081 12.0416 24.3256V27.4706H9.15443V24.3256ZM7.20798 19.3334H13.8876V27.4704H12.8291V24.3254C12.8291 23.0741 11.8286 22.056 10.5979 22.056C9.36777 22.056 8.36723 23.0739 8.36723 24.3254V27.4704H7.20798V19.3334Z" fill="#103E13"/>
</svg>
