<svg width="46" height="40" viewBox="0 0 46 40" fill="none" xmlns="http://www.w3.org/2000/svg">
<path d="M45.3562 27.1778C45.3562 34.0975 39.7467 39.707 32.8269 39.707L14.0331 39.707C12.1109 39.707 10.5527 38.1488 10.5527 36.2267L10.5527 12.5603C10.5527 8.71603 13.6691 5.59963 17.5134 5.59963L41.8759 5.59963C43.798 5.59963 45.3562 7.15783 45.3562 9.07998L45.3562 27.1778Z" fill="#C8E6C9"/>
<path d="M16.8103 7.68787C14.3244 7.68787 12.3007 9.73005 12.3007 12.2265C12.3007 13.8057 13.1117 15.2002 14.3363 16.013C12.8572 16.5075 11.5774 17.4318 10.6388 18.641C10.1198 18.2418 9.53992 17.9208 8.91479 17.6907C9.86275 16.987 10.4822 15.8565 10.4822 14.5859C10.4822 12.4686 8.76983 10.7354 6.66539 10.7354C4.56096 10.7354 2.84857 12.4686 2.84857 14.5859C2.84857 15.8572 3.46856 16.9882 4.41731 17.692C1.90549 18.6189 0.111572 21.0456 0.111572 23.9016V25.9078C0.111829 26.0607 0.173005 26.2072 0.281475 26.3149C0.389944 26.4229 0.536717 26.483 0.689656 26.4825H9.49143C9.51276 26.4848 9.5341 26.4861 9.55543 26.4859H24.0656C24.0869 26.4861 24.1085 26.4848 24.1296 26.4825H32.932C33.2484 26.4812 33.5047 26.2245 33.5055 25.9078V23.9016C33.5055 21.0456 31.7147 18.6189 29.2042 17.6917C30.1529 16.9882 30.7729 15.8569 30.7729 14.5856C30.7729 12.4684 29.0605 10.7351 26.9561 10.7351C24.8517 10.7351 23.1392 12.4684 23.1392 14.5856C23.1392 15.8562 23.759 16.9869 24.7069 17.6905C24.0805 17.921 23.5004 18.2431 22.9807 18.6433C22.0425 17.4334 20.7644 16.5078 19.2854 16.013C20.5097 15.2002 21.321 13.8057 21.321 12.2265C21.321 9.73005 19.2962 7.68787 16.8104 7.68787H16.8103ZM16.8103 8.83941C18.6695 8.83941 20.1682 10.3483 20.1682 12.2265C20.1682 14.09 18.6928 15.5842 16.8542 15.6081C16.8396 15.6081 16.8252 15.6061 16.8103 15.6061C16.7954 15.6061 16.7812 15.6081 16.7663 15.6081C14.9277 15.5845 13.4533 14.0901 13.4533 12.2265C13.4533 10.348 14.9508 8.83941 16.81 8.83941H16.8103ZM6.66546 11.8869C8.14062 11.8869 9.33073 13.0842 9.33073 14.5858C9.33073 16.0775 8.15602 17.2696 6.69474 17.2858C6.68497 17.2858 6.67546 17.2848 6.66544 17.2848C6.65567 17.2848 6.64616 17.2858 6.63614 17.2858C5.17485 17.2696 4.00014 16.0772 4.00014 14.5858C4.00014 13.0842 5.19025 11.8869 6.66542 11.8869H6.66546ZM26.9557 11.8869C28.4309 11.8869 29.621 13.0842 29.621 14.5858C29.621 16.0775 28.4463 17.2696 26.985 17.2858C26.9752 17.2858 26.9657 17.2848 26.9557 17.2848C26.9459 17.2848 26.9364 17.2858 26.9264 17.2858C25.4651 17.2696 24.2904 16.0772 24.2904 14.5858C24.2904 13.0842 25.4805 11.8869 26.9557 11.8869H26.9557ZM16.7662 16.7596C16.7808 16.7599 16.7952 16.7617 16.8101 16.7617C16.8248 16.7617 16.8392 16.7596 16.8541 16.7596C20.5413 16.7833 23.4923 19.7596 23.4923 23.4853L23.492 25.334H10.1288V23.4853C10.1288 19.7592 13.0789 16.7833 16.7657 16.7596H16.7662ZM6.62137 18.4386C6.63602 18.4389 6.65042 18.4407 6.66532 18.4407C6.68023 18.4407 6.69437 18.4386 6.70928 18.4386C7.95644 18.4487 9.09463 18.8787 10.0009 19.5982C9.35241 20.7456 8.97737 22.0701 8.97737 23.4857V25.3299H1.26266V23.9015C1.26266 20.8735 3.6434 18.4623 6.62123 18.4384L6.62137 18.4386ZM26.9116 18.4386C26.9265 18.4389 26.9407 18.4407 26.9556 18.4407C26.9705 18.4407 26.9846 18.4386 26.9995 18.4386C29.9774 18.4623 32.3581 20.8739 32.3581 23.9018V25.3299H24.6395L24.6392 23.4857C24.6392 22.0709 24.2652 20.7474 23.618 19.6002C24.5245 18.8797 25.6635 18.4487 26.9117 18.4386H26.9116Z" fill="#103E13"/>
</svg>
