<svg width="34" height="34" viewBox="0 0 34 34" fill="none" xmlns="http://www.w3.org/2000/svg">
<path d="M20.128 16.637C19.9604 16.637 19.8048 16.5909 19.6666 16.5168V16.5188C19.6666 16.7825 19.5641 17.0301 19.3781 17.2156C19.1921 17.4015 18.9447 17.504 18.6813 17.504C18.5112 17.504 18.3536 17.4568 18.2139 17.3807C18.1998 17.622 18.1034 17.8474 17.9313 18.0196C17.7454 18.2056 17.4979 18.3081 17.2343 18.3081C16.7107 18.3081 16.2855 17.8965 16.2548 17.3806C16.0928 17.4681 15.9096 17.514 15.7207 17.5019C15.2056 17.4681 14.8022 17.0231 14.8022 16.4884V12.0568L14.2975 12.931C14.1053 13.2654 13.7456 13.473 13.3582 13.473C13.1694 13.473 12.983 13.4235 12.8178 13.3289C12.6122 13.2096 12.4651 13.0183 12.4039 12.7893C12.3424 12.5602 12.3742 12.3206 12.4931 12.1153C12.4933 12.1153 14.1442 9.25639 14.2449 9.08078C14.2569 9.05438 14.291 8.97779 14.32 8.91252C14.3477 8.85021 14.3715 8.78625 14.3943 8.72196C14.8922 7.3164 16.1249 6.4433 17.6117 6.4433C19.5424 6.4433 21.1131 8.14651 21.1131 10.2401L21.1132 15.6516C21.1132 15.9149 21.0109 16.1624 20.8251 16.3486C20.6391 16.5345 20.3917 16.637 20.128 16.637L20.128 16.637ZM17.6117 6.96685C16.3342 6.96685 15.316 7.68843 14.8878 8.89706C14.8604 8.9738 14.8319 9.05055 14.7986 9.12533C14.702 9.34197 14.702 9.34197 14.6748 9.37312L14.6712 9.37001C14.5364 9.62436 14.1359 10.3179 12.9464 12.3773C12.8976 12.4618 12.8846 12.5598 12.9095 12.6536C12.9348 12.7474 12.9953 12.8265 13.0791 12.8749C13.3392 13.0243 13.6954 12.9278 13.8436 12.6695L14.8373 10.9492C14.8966 10.8467 15.0167 10.7964 15.1318 10.8276C15.2463 10.8582 15.3258 10.962 15.3258 11.0804V16.4886C15.3258 16.7437 15.5183 16.964 15.755 16.9795C15.8914 16.9868 16.0187 16.941 16.1143 16.8456C16.2012 16.7587 16.2491 16.6429 16.2491 16.5191V12.9821C16.2491 12.8374 16.3664 12.7202 16.511 12.7202C16.6556 12.7202 16.7729 12.8373 16.7729 12.9821L16.7727 17.323C16.7727 17.5775 16.9799 17.7847 17.2344 17.7847C17.358 17.7847 17.4741 17.7368 17.5612 17.6499C17.6481 17.5628 17.696 17.4467 17.696 17.323V12.9821C17.696 12.8374 17.8131 12.7202 17.9579 12.7202C18.1025 12.7202 18.2198 12.8373 18.2198 12.9821L18.2196 16.4784V16.519C18.2196 16.7734 18.4268 16.9805 18.6814 16.9805C18.8049 16.9805 18.9207 16.9325 19.0083 16.8452C19.0952 16.7585 19.1431 16.6427 19.1431 16.5189V12.9819C19.1431 12.8372 19.2602 12.72 19.405 12.72C19.5496 12.72 19.6669 12.8371 19.6669 12.9819L19.6665 15.6517C19.6665 15.9064 19.8737 16.1135 20.128 16.1135C20.2518 16.1135 20.3676 16.0654 20.4545 15.9787C20.5418 15.8915 20.5895 15.7753 20.5895 15.6517L20.5896 10.2402C20.5896 8.43548 19.2538 6.9669 17.6117 6.9669L17.6117 6.96685Z" fill="#103E13"/>
<path d="M9.83834 20.3982L13.6387 18.1183C14.0969 17.8431 14.6864 17.9601 14.9803 18.3847C15.0876 18.5393 15.1423 18.7195 15.1509 18.903C15.2925 18.8291 15.4467 18.7889 15.6036 18.7889C15.684 18.7889 15.7647 18.7989 15.8444 18.8188C16.0997 18.8825 16.3149 19.0421 16.4502 19.2678C16.5856 19.4937 16.6252 19.7586 16.5614 20.0136C16.5025 20.2496 16.359 20.4482 16.1594 20.5845C16.299 20.6668 16.4193 20.7791 16.505 20.9221C16.6404 21.1481 16.6799 21.4128 16.6163 21.6682C16.5525 21.9232 16.3929 22.1383 16.167 22.274L16.1657 22.2748C16.3028 22.3569 16.421 22.4681 16.5056 22.609C16.6412 22.835 16.6808 23.0998 16.617 23.3551C16.553 23.6103 16.3934 23.8255 16.1678 23.9609L11.5275 26.7447C10.6615 27.2641 9.66028 27.4434 8.7088 27.249C7.7488 27.0529 6.95374 26.5011 6.47032 25.6952C5.70528 24.4201 5.81993 22.9137 6.76895 21.7639C6.81241 21.7115 6.85521 21.658 6.89408 21.6026C6.93524 21.544 6.98329 21.4751 6.99969 21.4515C7.09792 21.2761 8.7008 18.3881 8.70063 18.3885C8.86249 18.0964 9.16588 17.9311 9.47877 17.9312C9.62472 17.9312 9.77281 17.9672 9.90942 18.0429C10.0744 18.1351 10.213 18.2694 10.3099 18.4313C10.5091 18.7634 10.5162 19.1789 10.3286 19.5152L9.83834 20.3982ZM9.86114 18.7005C9.8103 18.6157 9.74044 18.5481 9.655 18.5003C9.47838 18.4025 9.25601 18.4661 9.15877 18.6421C8.01182 20.7084 7.62084 21.4126 7.46996 21.6632L7.4734 21.664C7.46077 21.706 7.46077 21.706 7.32269 21.9033C7.27579 21.97 7.22479 22.0341 7.17281 22.0973C6.35676 23.086 6.262 24.3302 6.91911 25.4258C7.32614 26.1044 7.99884 26.5697 8.81338 26.736C9.63678 26.9034 10.5046 26.7476 11.2579 26.2956L15.8986 23.5117C16.0045 23.4483 16.0793 23.3474 16.1091 23.2279C16.139 23.1085 16.1205 22.9843 16.0568 22.8784C15.926 22.6603 15.6418 22.5886 15.4236 22.72L13.1343 24.0934C13.0103 24.1679 12.8493 24.1279 12.775 24.0037C12.7006 23.8797 12.7407 23.7189 12.8647 23.6444L15.1542 22.271L15.8978 21.8249C16.0037 21.7613 16.0786 21.6604 16.1085 21.5412C16.1383 21.4217 16.1198 21.2973 16.0562 21.1916C15.9251 20.9733 15.6409 20.9023 15.423 21.0332L12.39 22.8527C12.2657 22.9273 12.1051 22.8869 12.0307 22.763C11.9562 22.639 11.9965 22.4781 12.1204 22.4036L15.8428 20.1706C15.9488 20.107 16.0235 20.0063 16.0534 19.8867C16.0832 19.7673 16.0647 19.6432 16.0012 19.5372C15.9378 19.4315 15.8369 19.3567 15.7174 19.3268C15.5972 19.297 15.4735 19.3155 15.3679 19.3788L14.6788 19.7923C14.6786 19.7923 14.6786 19.7924 14.6785 19.7924H14.6783L11.6454 21.6119C11.5211 21.6867 11.3604 21.6464 11.2861 21.5222C11.2117 21.3982 11.252 21.2374 11.3758 21.1629L14.4089 19.3434C14.5148 19.2798 14.5898 19.1789 14.6196 19.0597C14.6524 18.9288 14.6275 18.795 14.5497 18.6828C14.4149 18.4879 14.1266 18.436 13.908 18.5674L9.27071 21.3494C9.16919 21.4101 9.03915 21.3953 8.95404 21.3131C8.86876 21.2308 8.84957 21.1014 8.90697 20.9979L9.87126 19.2606C9.96801 19.0869 9.96424 18.8724 9.86109 18.7006L9.86114 18.7005Z" fill="#103E13"/>
<path d="M27.998 25.6951C27.5147 26.5011 26.7199 27.0528 25.7597 27.2489C24.8081 27.4429 23.8072 27.264 22.941 26.7446L18.3003 23.9607C18.0745 23.8253 17.9148 23.6101 17.8508 23.3546C17.7873 23.0996 17.827 22.8347 17.9623 22.6091C18.0468 22.468 18.1652 22.3568 18.3024 22.2747L18.3011 22.2739C18.0753 22.1384 17.9156 21.9232 17.852 21.6681C17.788 21.4129 17.8277 21.1479 17.9631 20.9219C18.0504 20.7768 18.1699 20.6633 18.3064 20.5828C18.1083 20.4465 17.9656 20.2486 17.9069 20.0137C17.8429 19.7584 17.8826 19.4935 18.0181 19.2679C18.1534 19.042 18.3687 18.8825 18.6239 18.8187C18.7036 18.7987 18.7844 18.7888 18.8645 18.7888C19.0216 18.789 19.1757 18.8289 19.3174 18.903C19.3261 18.7195 19.3807 18.5392 19.488 18.3846C19.782 17.9604 20.371 17.8429 20.8299 18.1183L24.6301 20.3978L24.1403 19.5155C23.9523 19.1786 23.9592 18.7631 24.1585 18.4308C24.2556 18.2691 24.3943 18.1348 24.5601 18.0418C24.6964 17.9664 24.844 17.9306 24.9896 17.9306C25.3023 17.9308 25.606 18.0958 25.7677 18.3879C26.3312 19.4032 27.3945 21.3179 27.4693 21.4516C27.4852 21.4747 27.5332 21.5436 27.5744 21.6021C27.6136 21.6577 27.6559 21.7109 27.6997 21.7637C28.6486 22.9139 28.763 24.4202 27.998 25.6951L27.998 25.6951ZM27.2957 22.0974C27.2435 22.0343 27.1924 21.9698 27.1458 21.9034C27.0041 21.7024 27.0005 21.6971 26.9898 21.6445C26.8242 21.3704 26.4201 20.643 25.3094 18.6419C25.212 18.4663 24.9906 18.4022 24.8143 18.4996C24.7276 18.5481 24.6579 18.6158 24.607 18.7006C24.504 18.8723 24.5001 19.0868 24.5974 19.261L25.5613 20.9978C25.6189 21.1015 25.5997 21.2307 25.5146 21.313C25.4296 21.3955 25.2997 21.41 25.1977 21.3493L20.5604 18.5673C20.3418 18.4363 20.0537 18.4876 19.9185 18.6827C19.8408 18.7949 19.816 18.9287 19.8485 19.0594C19.8784 19.1788 19.9533 19.2795 20.0594 19.3431C20.0597 19.3433 20.0599 19.3436 20.0602 19.3438L23.0923 21.1628C23.2163 21.2373 23.2564 21.398 23.182 21.5221C23.1075 21.6459 22.947 21.6864 22.8227 21.6118L19.1002 19.3787C18.9946 19.3154 18.8703 19.2968 18.7509 19.3268C18.6312 19.3566 18.5305 19.4314 18.467 19.5375C18.4034 19.6433 18.385 19.7674 18.4146 19.8868C18.4444 20.0062 18.5194 20.107 18.6253 20.1707L19.3497 20.6051L22.3476 22.4038C22.4716 22.4782 22.5118 22.6389 22.4373 22.7631C22.3628 22.8869 22.2023 22.9272 22.078 22.8528L19.0453 21.0333C18.8272 20.9021 18.5431 20.9733 18.4119 21.1917C18.3483 21.2976 18.33 21.4218 18.3595 21.5412C18.3893 21.6606 18.4643 21.7612 18.5704 21.825L19.3139 22.2711L21.6031 23.6445C21.727 23.719 21.7672 23.8797 21.6928 24.0038C21.6183 24.1277 21.4578 24.1683 21.3335 24.0935L19.0443 22.7201C18.9387 22.6568 18.8149 22.6381 18.6948 22.6681C18.5754 22.698 18.4744 22.7727 18.411 22.8785C18.3475 22.9845 18.329 23.1088 18.3585 23.228C18.3883 23.3474 18.4633 23.4481 18.5694 23.5119L23.2101 26.2958C23.9632 26.7476 24.8316 26.904 25.6546 26.7361C26.4689 26.5698 27.1417 26.1045 27.5487 25.4259C28.2064 24.3301 28.1118 23.0858 27.296 22.0974L27.2957 22.0974Z" fill="#103E13"/>
</svg>
